{"glyphs":{"0":{"ha":833,"x_min":0,"x_max":0,"o":"m 56 486 b 417 -14 56 196 203 -14 b 778 486 631 -14 778 196 b 417 986 778 776 631 986 b 56 486 203 986 56 776 z m 174 486 b 417 875 174 713 267 875 b 660 486 567 875 660 713 b 417 97 660 260 567 97 b 174 486 267 97 174 260 z "},"1":{"ha":625,"x_min":0,"x_max":0,"o":"m 111 781 l 326 844 l 326 0 l 444 0 l 444 986 l 111 903 z "},"2":{"ha":790,"x_min":0,"x_max":0,"o":"m 28 0 l 714 0 l 714 111 l 271 111 l 581 426 b 710 707 657 504 710 607 b 401 988 710 824 615 988 b 83 639 200 988 83 846 l 201 639 b 401 876 201 786 276 876 b 589 703 519 876 589 788 b 488 490 589 625 551 558 z "},"3":{"ha":758,"x_min":0,"x_max":0,"o":"m 393 -14 b 696 257 567 -14 696 92 b 503 507 696 394 617 474 b 668 728 606 549 668 632 b 399 986 668 865 565 986 b 125 731 239 986 125 882 l 238 731 b 400 879 238 815 310 879 b 547 724 497 879 547 815 b 351 556 547 632 476 556 l 351 451 b 575 271 476 451 575 390 b 393 97 575 165 504 97 b 203 257 282 97 203 165 l 83 257 b 393 -14 83 106 206 -14 z "},"4":{"ha":810,"x_min":0,"x_max":0,"o":"m 28 194 l 497 194 l 497 0 l 615 0 l 615 194 l 768 194 l 768 299 l 615 299 l 615 972 l 567 972 z m 222 299 l 497 710 l 497 299 z "},"5":{"ha":783,"x_min":0,"x_max":0,"o":"m 728 319 b 438 647 728 513 604 647 b 293 611 389 647 339 635 l 358 868 l 725 868 l 725 972 l 267 972 l 139 454 b 388 542 238 524 294 542 b 606 319 513 542 606 453 b 388 97 606 186 526 97 b 142 258 281 97 185 175 l 42 190 b 388 -14 106 79 208 -14 b 728 319 575 -14 728 99 z "},"6":{"ha":800,"x_min":0,"x_max":0,"o":"m 458 972 l 131 521 b 69 319 93 469 69 399 b 400 -14 69 119 213 -14 b 731 319 588 -14 731 119 b 443 635 731 499 601 635 b 333 611 400 635 364 629 l 607 972 z m 182 319 b 400 549 182 453 275 549 b 618 319 525 549 618 453 b 400 93 618 186 525 93 b 182 319 275 93 182 186 z "},"7":{"ha":729,"x_min":0,"x_max":0,"o":"m 42 861 l 546 861 l 133 0 l 257 0 l 722 972 l 42 972 z "},"8":{"ha":758,"x_min":0,"x_max":0,"o":"m 76 264 b 379 -14 76 113 206 -14 b 682 264 553 -14 682 113 b 510 518 682 392 608 479 b 647 738 594 556 647 632 b 379 986 647 875 532 986 b 111 738 226 986 111 875 b 249 518 111 632 164 556 b 76 264 150 479 76 392 z m 224 724 b 379 882 224 815 289 882 b 535 724 469 882 535 815 b 379 569 535 632 463 569 b 224 724 296 569 224 632 z m 189 278 b 379 465 189 383 282 465 b 569 278 476 465 569 383 b 379 90 569 158 476 90 b 189 278 282 90 189 158 z "},"9":{"ha":800,"x_min":0,"x_max":0,"o":"m 342 0 l 669 451 b 731 653 707 503 731 574 b 400 986 731 853 588 986 b 69 653 213 986 69 853 b 357 338 69 474 199 338 b 467 361 400 338 436 343 l 193 0 z m 618 653 b 400 424 618 519 525 424 b 182 653 275 424 182 519 b 400 879 182 786 275 879 b 618 653 525 879 618 786 z "}," ":{"ha":417,"x_min":0,"x_max":0,"o":""}," ":{"ha":417,"x_min":0,"x_max":0,"o":""},"A":{"ha":917,"x_min":0,"x_max":0,"o":"m 778 0 l 910 0 l 458 1021 l 7 0 l 139 0 l 263 292 l 654 292 z m 458 753 l 607 403 l 310 403 z "},"À":{"ha":917,"x_min":0,"x_max":0,"o":"m 278 1313 l 528 1104 l 590 1146 l 382 1368 z m 778 0 l 910 0 l 458 1021 l 7 0 l 139 0 l 263 292 l 654 292 z m 458 753 l 607 403 l 310 403 z "},"Á":{"ha":917,"x_min":0,"x_max":0,"o":"m 639 1313 l 535 1368 l 326 1146 l 389 1104 z m 778 0 l 910 0 l 458 1021 l 7 0 l 139 0 l 263 292 l 654 292 z m 458 753 l 607 403 l 310 403 z "},"Â":{"ha":917,"x_min":0,"x_max":0,"o":"m 458 1181 l 611 1049 l 681 1104 l 458 1299 l 236 1104 l 306 1049 z m 778 0 l 910 0 l 458 1021 l 7 0 l 139 0 l 263 292 l 654 292 z m 458 753 l 607 403 l 310 403 z "},"Ã":{"ha":917,"x_min":0,"x_max":0,"o":"m 229 1128 l 303 1076 b 372 1147 303 1097 315 1147 b 540 1082 435 1147 464 1082 b 688 1183 610 1082 665 1132 l 624 1243 b 546 1176 596 1199 572 1176 b 374 1242 471 1176 464 1242 b 229 1128 311 1242 243 1196 z m 778 0 l 910 0 l 458 1021 l 7 0 l 139 0 l 263 292 l 654 292 z m 458 753 l 607 403 l 310 403 z "},"Ä":{"ha":917,"x_min":0,"x_max":0,"o":"m 521 1181 b 597 1104 521 1139 556 1104 b 674 1181 639 1104 674 1139 b 597 1257 674 1222 639 1257 b 521 1181 556 1257 521 1222 z m 243 1181 b 319 1104 243 1139 278 1104 b 396 1181 361 1104 396 1139 b 319 1257 396 1222 361 1257 b 243 1181 278 1257 243 1222 z m 778 0 l 910 0 l 458 1021 l 7 0 l 139 0 l 263 292 l 654 292 z m 458 753 l 607 403 l 310 403 z "},"Å":{"ha":917,"x_min":0,"x_max":0,"o":"m 317 1108 b 436 971 317 1033 372 981 l 7 0 l 139 0 l 263 292 l 654 292 l 778 0 l 910 0 l 481 971 b 600 1108 544 981 600 1033 b 458 1247 600 1192 531 1247 b 317 1108 386 1247 317 1192 z m 388 1108 b 458 1182 388 1154 424 1182 b 529 1108 493 1182 529 1154 b 458 1035 529 1063 493 1035 b 388 1108 424 1035 388 1063 z m 458 753 l 607 403 l 310 403 z "},"Ā":{"ha":917,"x_min":0,"x_max":0,"o":"m 215 1104 l 701 1104 l 701 1208 l 215 1208 z m 778 0 l 910 0 l 458 1021 l 7 0 l 139 0 l 263 292 l 654 292 z m 458 753 l 607 403 l 310 403 z "},"Ă":{"ha":917,"x_min":0,"x_max":0,"o":"m 239 1299 b 458 1104 239 1203 313 1104 b 678 1299 604 1104 678 1203 l 579 1299 b 458 1194 579 1263 556 1194 b 338 1299 361 1194 338 1263 z m 778 0 l 910 0 l 458 1021 l 7 0 l 139 0 l 263 292 l 654 292 z m 458 753 l 607 403 l 310 403 z "},"Ą":{"ha":917,"x_min":0,"x_max":0,"o":"m 917 -181 b 847 -208 897 -199 883 -208 b 781 -139 806 -208 781 -189 b 910 0 781 -87 838 -31 l 458 1021 l 7 0 l 139 0 l 263 292 l 654 292 l 778 0 l 793 0 b 669 -167 722 -46 669 -103 b 840 -306 669 -249 724 -306 b 963 -250 900 -306 942 -278 z m 458 753 l 607 403 l 310 403 z "},"B":{"ha":775,"x_min":0,"x_max":0,"o":"m 706 285 b 489 531 706 425 617 504 b 650 729 589 561 650 629 b 361 972 650 894 535 972 l 111 972 l 111 0 l 375 0 b 706 285 563 0 706 92 z m 361 868 b 532 722 458 868 532 814 b 361 579 532 631 458 579 l 229 579 l 229 868 z m 229 104 l 229 476 l 375 476 b 588 292 500 476 588 411 b 375 104 588 172 500 104 z "},"C":{"ha":951,"x_min":0,"x_max":0,"o":"m 181 486 b 542 868 181 713 350 868 b 854 724 679 868 786 810 l 854 879 b 542 986 772 951 683 986 b 56 486 272 986 56 776 b 542 -14 56 196 272 -14 b 854 93 683 -14 772 21 l 854 249 b 542 104 786 163 679 104 b 181 486 350 104 181 260 z "},"Ç":{"ha":951,"x_min":0,"x_max":0,"o":"m 181 486 b 542 868 181 713 350 868 b 854 724 679 868 786 810 l 854 879 b 542 986 772 951 683 986 b 56 486 272 986 56 776 b 481 -10 56 218 240 19 l 408 -151 b 489 -126 438 -132 475 -126 b 558 -176 536 -126 558 -143 b 489 -232 558 -210 536 -232 b 411 -199 453 -232 438 -221 l 364 -254 b 489 -307 403 -293 438 -307 b 636 -176 565 -307 636 -261 b 536 -74 636 -108 582 -74 l 524 -74 l 557 -14 b 854 93 690 -11 775 24 l 854 249 b 542 104 786 163 679 104 b 181 486 350 104 181 260 z "},"Ć":{"ha":951,"x_min":0,"x_max":0,"o":"m 722 1278 l 618 1333 l 410 1111 l 472 1069 z m 181 486 b 542 868 181 713 350 868 b 854 724 679 868 786 810 l 854 879 b 542 986 772 951 683 986 b 56 486 272 986 56 776 b 542 -14 56 196 272 -14 b 854 93 683 -14 772 21 l 854 249 b 542 104 786 163 679 104 b 181 486 350 104 181 260 z "},"Ĉ":{"ha":951,"x_min":0,"x_max":0,"o":"m 542 1201 l 694 1069 l 764 1125 l 542 1319 l 319 1125 l 389 1069 z m 181 486 b 542 868 181 713 350 868 b 854 724 679 868 786 810 l 854 879 b 542 986 772 951 683 986 b 56 486 272 986 56 776 b 542 -14 56 196 272 -14 b 854 93 683 -14 772 21 l 854 249 b 542 104 786 163 679 104 b 181 486 350 104 181 260 z "},"Ċ":{"ha":951,"x_min":0,"x_max":0,"o":"m 465 1146 b 542 1069 465 1104 500 1069 b 618 1146 583 1069 618 1104 b 542 1222 618 1188 583 1222 b 465 1146 500 1222 465 1188 z m 181 486 b 542 868 181 713 350 868 b 854 724 679 868 786 810 l 854 879 b 542 986 772 951 683 986 b 56 486 272 986 56 776 b 542 -14 56 196 272 -14 b 854 93 683 -14 772 21 l 854 249 b 542 104 786 163 679 104 b 181 486 350 104 181 260 z "},"Č":{"ha":951,"x_min":0,"x_max":0,"o":"m 542 1188 l 389 1319 l 319 1264 l 542 1069 l 764 1264 l 694 1319 z m 181 486 b 542 868 181 713 350 868 b 854 724 679 868 786 810 l 854 879 b 542 986 772 951 683 986 b 56 486 272 986 56 776 b 542 -14 56 196 272 -14 b 854 93 683 -14 772 21 l 854 249 b 542 104 786 163 679 104 b 181 486 350 104 181 260 z "},"D":{"ha":944,"x_min":0,"x_max":0,"o":"m 403 0 b 889 486 686 0 889 196 b 403 972 889 776 686 972 l 111 972 l 111 0 z m 403 854 b 771 486 622 854 771 713 b 403 118 771 260 622 118 l 229 118 l 229 854 z "},"Ď":{"ha":944,"x_min":0,"x_max":0,"o":"m 458 1188 l 306 1319 l 236 1264 l 458 1069 l 681 1264 l 611 1319 z m 403 0 b 889 486 686 0 889 196 b 403 972 889 776 686 972 l 111 972 l 111 0 z m 403 854 b 771 486 622 854 771 713 b 403 118 771 260 622 118 l 229 118 l 229 854 z "},"E":{"ha":764,"x_min":0,"x_max":0,"o":"m 111 972 l 111 0 l 667 0 l 667 111 l 229 111 l 229 472 l 639 472 l 639 583 l 229 583 l 229 861 l 667 861 l 667 972 z "},"È":{"ha":764,"x_min":0,"x_max":0,"o":"m 208 1278 l 458 1069 l 521 1111 l 313 1333 z m 111 972 l 111 0 l 667 0 l 667 111 l 229 111 l 229 472 l 639 472 l 639 583 l 229 583 l 229 861 l 667 861 l 667 972 z "},"É":{"ha":764,"x_min":0,"x_max":0,"o":"m 569 1278 l 465 1333 l 257 1111 l 319 1069 z m 111 972 l 111 0 l 667 0 l 667 111 l 229 111 l 229 472 l 639 472 l 639 583 l 229 583 l 229 861 l 667 861 l 667 972 z "},"Ê":{"ha":764,"x_min":0,"x_max":0,"o":"m 403 1201 l 556 1069 l 625 1125 l 403 1319 l 181 1125 l 250 1069 z m 111 972 l 111 0 l 667 0 l 667 111 l 229 111 l 229 472 l 639 472 l 639 583 l 229 583 l 229 861 l 667 861 l 667 972 z "},"Ë":{"ha":764,"x_min":0,"x_max":0,"o":"m 465 1174 b 542 1097 465 1132 500 1097 b 618 1174 583 1097 618 1132 b 542 1250 618 1215 583 1250 b 465 1174 500 1250 465 1215 z m 188 1174 b 264 1097 188 1132 222 1097 b 340 1174 306 1097 340 1132 b 264 1250 340 1215 306 1250 b 188 1174 222 1250 188 1215 z m 111 972 l 111 0 l 667 0 l 667 111 l 229 111 l 229 472 l 639 472 l 639 583 l 229 583 l 229 861 l 667 861 l 667 972 z "},"Ē":{"ha":764,"x_min":0,"x_max":0,"o":"m 146 1069 l 632 1069 l 632 1174 l 146 1174 z m 111 972 l 111 0 l 667 0 l 667 111 l 229 111 l 229 472 l 639 472 l 639 583 l 229 583 l 229 861 l 667 861 l 667 972 z "},"Ĕ":{"ha":764,"x_min":0,"x_max":0,"o":"m 169 1264 b 389 1069 169 1168 243 1069 b 608 1264 535 1069 608 1168 l 510 1264 b 389 1160 510 1228 486 1160 b 268 1264 292 1160 268 1228 z m 111 972 l 111 0 l 667 0 l 667 111 l 229 111 l 229 472 l 639 472 l 639 583 l 229 583 l 229 861 l 667 861 l 667 972 z "},"Ė":{"ha":764,"x_min":0,"x_max":0,"o":"m 313 1146 b 389 1069 313 1104 347 1069 b 465 1146 431 1069 465 1104 b 389 1222 465 1188 431 1222 b 313 1146 347 1222 313 1188 z m 111 972 l 111 0 l 667 0 l 667 111 l 229 111 l 229 472 l 639 472 l 639 583 l 229 583 l 229 861 l 667 861 l 667 972 z "},"Ę":{"ha":764,"x_min":0,"x_max":0,"o":"m 507 -181 b 438 -208 488 -199 474 -208 b 371 -139 396 -208 371 -189 b 500 0 371 -87 428 -31 l 667 0 l 667 111 l 229 111 l 229 472 l 639 472 l 639 583 l 229 583 l 229 861 l 667 861 l 667 972 l 111 972 l 111 0 l 383 0 b 260 -167 313 -46 260 -103 b 431 -306 260 -249 314 -306 b 553 -250 490 -306 532 -278 z "},"Ě":{"ha":764,"x_min":0,"x_max":0,"o":"m 389 1188 l 236 1319 l 167 1264 l 389 1069 l 611 1264 l 542 1319 z m 111 972 l 111 0 l 667 0 l 667 111 l 229 111 l 229 472 l 639 472 l 639 583 l 229 583 l 229 861 l 667 861 l 667 972 z "},"F":{"ha":694,"x_min":0,"x_max":0,"o":"m 111 972 l 111 0 l 229 0 l 229 472 l 597 472 l 597 583 l 229 583 l 229 861 l 611 861 l 611 972 z "},"G":{"ha":1076,"x_min":0,"x_max":0,"o":"m 563 382 l 886 382 b 549 104 854 231 742 104 b 181 486 343 104 181 260 b 549 868 181 713 343 868 b 869 703 697 868 808 806 l 953 779 b 549 986 869 914 728 986 b 56 486 265 986 56 776 b 549 -14 56 196 265 -14 b 1014 493 846 -14 1014 224 l 563 493 z "},"Ĝ":{"ha":1076,"x_min":0,"x_max":0,"o":"m 549 1201 l 701 1069 l 771 1125 l 549 1319 l 326 1125 l 396 1069 z m 563 382 l 886 382 b 549 104 854 231 742 104 b 181 486 343 104 181 260 b 549 868 181 713 343 868 b 869 703 697 868 808 806 l 953 779 b 549 986 869 914 728 986 b 56 486 265 986 56 776 b 549 -14 56 196 265 -14 b 1014 493 846 -14 1014 224 l 563 493 z "},"Ğ":{"ha":1076,"x_min":0,"x_max":0,"o":"m 329 1264 b 549 1069 329 1168 403 1069 b 768 1264 694 1069 768 1168 l 669 1264 b 549 1160 669 1228 646 1160 b 428 1264 451 1160 428 1228 z m 563 382 l 886 382 b 549 104 854 231 742 104 b 181 486 343 104 181 260 b 549 868 181 713 343 868 b 869 703 697 868 808 806 l 953 779 b 549 986 869 914 728 986 b 56 486 265 986 56 776 b 549 -14 56 196 265 -14 b 1014 493 846 -14 1014 224 l 563 493 z "},"Ġ":{"ha":1076,"x_min":0,"x_max":0,"o":"m 472 1146 b 549 1069 472 1104 507 1069 b 625 1146 590 1069 625 1104 b 549 1222 625 1188 590 1222 b 472 1146 507 1222 472 1188 z m 563 382 l 886 382 b 549 104 854 231 742 104 b 181 486 343 104 181 260 b 549 868 181 713 343 868 b 869 703 697 868 808 806 l 953 779 b 549 986 869 914 728 986 b 56 486 265 986 56 776 b 549 -14 56 196 265 -14 b 1014 493 846 -14 1014 224 l 563 493 z "},"Ģ":{"ha":1076,"x_min":0,"x_max":0,"o":"m 563 382 l 886 382 b 549 104 854 231 742 104 b 181 486 343 104 181 260 b 549 868 181 713 343 868 b 869 703 697 868 808 806 l 953 779 b 549 986 869 914 728 986 b 56 486 265 986 56 776 b 549 -14 56 196 265 -14 b 1014 493 846 -14 1014 224 l 563 493 z m 554 -97 l 432 -457 l 513 -486 l 665 -139 z "},"H":{"ha":993,"x_min":0,"x_max":0,"o":"m 111 972 l 111 0 l 229 0 l 229 472 l 764 472 l 764 0 l 882 0 l 882 972 l 764 972 l 764 583 l 229 583 l 229 972 z "},"Ĥ":{"ha":993,"x_min":0,"x_max":0,"o":"m 497 1201 l 650 1069 l 719 1125 l 497 1319 l 275 1125 l 344 1069 z m 111 972 l 111 0 l 229 0 l 229 472 l 764 472 l 764 0 l 882 0 l 882 972 l 764 972 l 764 583 l 229 583 l 229 972 z "},"I":{"ha":340,"x_min":0,"x_max":0,"o":"m 111 972 l 111 0 l 229 0 l 229 972 z "},"Ì":{"ha":340,"x_min":0,"x_max":0,"o":"m -11 1278 l 239 1069 l 303 1111 l 94 1333 z m 111 972 l 111 0 l 229 0 l 229 972 z "},"Í":{"ha":340,"x_min":0,"x_max":0,"o":"m 350 1278 l 247 1333 l 39 1111 l 100 1069 z m 111 972 l 111 0 l 229 0 l 229 972 z "},"Î":{"ha":340,"x_min":0,"x_max":0,"o":"m 169 1201 l 322 1069 l 392 1125 l 169 1319 l -53 1125 l 17 1069 z m 111 972 l 111 0 l 229 0 l 229 972 z "},"Ï":{"ha":340,"x_min":0,"x_max":0,"o":"m 233 1146 b 308 1069 233 1104 267 1069 b 386 1146 350 1069 386 1104 b 308 1222 386 1188 350 1222 b 233 1146 267 1222 233 1188 z m -44 1146 b 31 1069 -44 1104 -11 1069 b 108 1146 72 1069 108 1104 b 31 1222 108 1188 72 1222 b -44 1146 -11 1222 -44 1188 z m 111 972 l 111 0 l 229 0 l 229 972 z "},"Ĩ":{"ha":340,"x_min":0,"x_max":0,"o":"m -58 1121 l 15 1069 b 85 1140 15 1090 28 1140 b 253 1075 147 1140 176 1075 b 400 1176 322 1075 378 1125 l 336 1236 b 258 1169 308 1192 285 1169 b 86 1235 183 1169 176 1235 b -58 1121 24 1235 -44 1189 z m 111 972 l 111 0 l 229 0 l 229 972 z "},"Ī":{"ha":340,"x_min":0,"x_max":0,"o":"m -72 1069 l 414 1069 l 414 1174 l -72 1174 z m 111 972 l 111 0 l 229 0 l 229 972 z "},"Ĭ":{"ha":340,"x_min":0,"x_max":0,"o":"m -49 1264 b 171 1069 -49 1168 25 1069 b 390 1264 317 1069 390 1168 l 292 1264 b 171 1160 292 1228 268 1160 b 50 1264 74 1160 50 1228 z m 111 972 l 111 0 l 229 0 l 229 972 z "},"Į":{"ha":340,"x_min":0,"x_max":0,"o":"m 236 -181 b 167 -208 217 -199 203 -208 b 100 -139 125 -208 100 -189 b 229 0 100 -87 157 -31 l 229 972 l 111 972 l 111 0 l 113 0 b -11 -167 42 -46 -11 -103 b 160 -306 -11 -249 43 -306 b 282 -250 219 -306 261 -278 z "},"İ":{"ha":340,"x_min":0,"x_max":0,"o":"m 93 1146 b 169 1069 93 1104 128 1069 b 246 1146 211 1069 246 1104 b 169 1222 246 1188 211 1222 b 93 1146 128 1222 93 1188 z m 111 972 l 111 0 l 229 0 l 229 972 z "},"J":{"ha":333,"x_min":0,"x_max":0,"o":"m -93 -144 l -154 -236 b 10 -306 -133 -264 -64 -306 b 222 -83 140 -306 222 -235 l 222 972 l 111 972 l 111 -69 b 17 -194 111 -161 58 -194 b -93 -144 -33 -194 -74 -176 z "},"Ĵ":{"ha":333,"x_min":0,"x_max":0,"o":"m 167 1201 l 319 1069 l 389 1125 l 167 1319 l -56 1125 l 14 1069 z m -93 -144 l -154 -236 b 10 -306 -133 -264 -64 -306 b 222 -83 140 -306 222 -235 l 222 972 l 111 972 l 111 -69 b 17 -194 111 -161 58 -194 b -93 -144 -33 -194 -74 -176 z "},"K":{"ha":785,"x_min":0,"x_max":0,"o":"m 111 972 l 111 0 l 229 0 l 229 472 l 632 0 l 778 0 l 336 517 l 757 972 l 611 972 l 229 554 l 229 972 z "},"Ķ":{"ha":785,"x_min":0,"x_max":0,"o":"m 111 972 l 111 0 l 229 0 l 229 472 l 632 0 l 778 0 l 336 517 l 757 972 l 611 972 l 229 554 l 229 972 z m 450 -83 l 328 -443 l 408 -472 l 561 -125 z "},"L":{"ha":625,"x_min":0,"x_max":0,"o":"m 111 972 l 111 0 l 611 0 l 611 111 l 229 111 l 229 972 z "},"Ĺ":{"ha":625,"x_min":0,"x_max":0,"o":"m 542 1278 l 438 1333 l 229 1111 l 292 1069 z m 111 972 l 111 0 l 611 0 l 611 111 l 229 111 l 229 972 z "},"Ļ":{"ha":625,"x_min":0,"x_max":0,"o":"m 111 972 l 111 0 l 611 0 l 611 111 l 229 111 l 229 972 z m 367 -83 l 244 -443 l 325 -472 l 478 -125 z "},"Ľ":{"ha":625,"x_min":0,"x_max":0,"o":"m 456 986 l 333 626 l 414 597 l 567 944 z m 111 972 l 111 0 l 611 0 l 611 111 l 229 111 l 229 972 z "},"M":{"ha":1125,"x_min":0,"x_max":0,"o":"m 246 657 l 563 90 l 879 657 l 951 0 l 1069 0 l 951 1021 l 563 317 l 174 1021 l 56 0 l 174 0 z "},"N":{"ha":1076,"x_min":0,"x_max":0,"o":"m 847 972 l 847 249 l 111 1021 l 111 0 l 229 0 l 229 724 l 965 -49 l 965 972 z "},"Ñ":{"ha":1076,"x_min":0,"x_max":0,"o":"m 299 1100 l 372 1049 b 442 1119 372 1069 385 1119 b 610 1054 504 1119 533 1054 b 757 1156 679 1054 735 1104 l 693 1215 b 615 1149 665 1171 642 1149 b 443 1214 540 1149 533 1214 b 299 1100 381 1214 313 1168 z m 847 972 l 847 249 l 111 1021 l 111 0 l 229 0 l 229 724 l 965 -49 l 965 972 z "},"Ń":{"ha":1076,"x_min":0,"x_max":0,"o":"m 778 1257 l 674 1313 l 465 1090 l 528 1049 z m 847 972 l 847 249 l 111 1021 l 111 0 l 229 0 l 229 724 l 965 -49 l 965 972 z "},"Ņ":{"ha":1076,"x_min":0,"x_max":0,"o":"m 847 972 l 847 249 l 111 1021 l 111 0 l 229 0 l 229 724 l 965 -49 l 965 972 z m 554 -49 l 432 -408 l 513 -437 l 665 -90 z "},"Ň":{"ha":1076,"x_min":0,"x_max":0,"o":"m 556 1222 l 403 1354 l 333 1299 l 556 1104 l 778 1299 l 708 1354 z m 847 972 l 847 249 l 111 1021 l 111 0 l 229 0 l 229 724 l 965 -49 l 965 972 z "},"O":{"ha":1097,"x_min":0,"x_max":0,"o":"m 56 486 b 549 -14 56 203 265 -14 b 1042 486 832 -14 1042 203 b 549 986 1042 769 832 986 b 56 486 265 986 56 769 z m 181 486 b 549 868 181 706 336 868 b 917 486 761 868 917 706 b 549 104 917 267 761 104 b 181 486 336 104 181 267 z "},"Ò":{"ha":1097,"x_min":0,"x_max":0,"o":"m 382 1278 l 632 1069 l 694 1111 l 486 1333 z m 56 486 b 549 -14 56 203 265 -14 b 1042 486 832 -14 1042 203 b 549 986 1042 769 832 986 b 56 486 265 986 56 769 z m 181 486 b 549 868 181 706 336 868 b 917 486 761 868 917 706 b 549 104 917 267 761 104 b 181 486 336 104 181 267 z "},"Ó":{"ha":1097,"x_min":0,"x_max":0,"o":"m 715 1278 l 611 1333 l 403 1111 l 465 1069 z m 56 486 b 549 -14 56 203 265 -14 b 1042 486 832 -14 1042 203 b 549 986 1042 769 832 986 b 56 486 265 986 56 769 z m 181 486 b 549 868 181 706 336 868 b 917 486 761 868 917 706 b 549 104 917 267 761 104 b 181 486 336 104 181 267 z "},"Ô":{"ha":1097,"x_min":0,"x_max":0,"o":"m 549 1201 l 701 1069 l 771 1125 l 549 1319 l 326 1125 l 396 1069 z m 56 486 b 549 -14 56 203 265 -14 b 1042 486 832 -14 1042 203 b 549 986 1042 769 832 986 b 56 486 265 986 56 769 z m 181 486 b 549 868 181 706 336 868 b 917 486 761 868 917 706 b 549 104 917 267 761 104 b 181 486 336 104 181 267 z "},"Õ":{"ha":1097,"x_min":0,"x_max":0,"o":"m 319 1121 l 393 1069 b 463 1140 393 1090 406 1140 b 631 1075 525 1140 554 1075 b 778 1176 700 1075 756 1125 l 714 1236 b 636 1169 686 1192 663 1169 b 464 1235 561 1169 554 1235 b 319 1121 401 1235 333 1189 z m 56 486 b 549 -14 56 203 265 -14 b 1042 486 832 -14 1042 203 b 549 986 1042 769 832 986 b 56 486 265 986 56 769 z m 181 486 b 549 868 181 706 336 868 b 917 486 761 868 917 706 b 549 104 917 267 761 104 b 181 486 336 104 181 267 z "},"Ö":{"ha":1097,"x_min":0,"x_max":0,"o":"m 611 1146 b 688 1069 611 1104 646 1069 b 764 1146 729 1069 764 1104 b 688 1222 764 1188 729 1222 b 611 1146 646 1222 611 1188 z m 333 1146 b 410 1069 333 1104 368 1069 b 486 1146 451 1069 486 1104 b 410 1222 486 1188 451 1222 b 333 1146 368 1222 333 1188 z m 56 486 b 549 -14 56 203 265 -14 b 1042 486 832 -14 1042 203 b 549 986 1042 769 832 986 b 56 486 265 986 56 769 z m 181 486 b 549 868 181 706 336 868 b 917 486 761 868 917 706 b 549 104 917 267 761 104 b 181 486 336 104 181 267 z "},"Ō":{"ha":1097,"x_min":0,"x_max":0,"o":"m 306 1069 l 792 1069 l 792 1174 l 306 1174 z m 56 486 b 549 -14 56 203 265 -14 b 1042 486 832 -14 1042 203 b 549 986 1042 769 832 986 b 56 486 265 986 56 769 z m 181 486 b 549 868 181 706 336 868 b 917 486 761 868 917 706 b 549 104 917 267 761 104 b 181 486 336 104 181 267 z "},"Ŏ":{"ha":1097,"x_min":0,"x_max":0,"o":"m 329 1264 b 549 1069 329 1168 403 1069 b 768 1264 694 1069 768 1168 l 669 1264 b 549 1160 669 1228 646 1160 b 428 1264 451 1160 428 1228 z m 56 486 b 549 -14 56 203 265 -14 b 1042 486 832 -14 1042 203 b 549 986 1042 769 832 986 b 56 486 265 986 56 769 z m 181 486 b 549 868 181 706 336 868 b 917 486 761 868 917 706 b 549 104 917 267 761 104 b 181 486 336 104 181 267 z "},"Ő":{"ha":1097,"x_min":0,"x_max":0,"o":"m 435 1069 l 621 1335 l 507 1363 l 363 1093 z m 663 1069 l 851 1335 l 735 1363 l 592 1093 z m 56 486 b 549 -14 56 203 265 -14 b 1042 486 832 -14 1042 203 b 549 986 1042 769 832 986 b 56 486 265 986 56 769 z m 181 486 b 549 868 181 706 336 868 b 917 486 761 868 917 706 b 549 104 917 267 761 104 b 181 486 336 104 181 267 z "},"P":{"ha":761,"x_min":0,"x_max":0,"o":"m 111 972 l 111 0 l 229 0 l 229 389 l 375 389 b 706 681 563 389 706 501 b 375 972 706 860 563 972 z m 375 861 b 588 681 500 861 588 800 b 375 500 588 561 500 500 l 229 500 l 229 861 z "},"Q":{"ha":1097,"x_min":0,"x_max":0,"o":"m 56 486 b 549 -14 56 203 265 -14 b 854 89 667 -14 772 24 l 943 0 l 1096 0 l 932 164 b 1042 486 1001 250 1042 361 b 549 986 1042 769 832 986 b 56 486 265 986 56 769 z m 181 486 b 549 868 181 706 336 868 b 917 486 761 868 917 706 b 844 251 917 396 890 315 l 679 417 l 526 417 l 768 175 b 549 104 708 129 633 104 b 181 486 336 104 181 267 z "},"R":{"ha":778,"x_min":0,"x_max":0,"o":"m 111 972 l 111 0 l 229 0 l 229 389 l 347 389 l 618 0 l 764 0 l 474 400 b 706 681 611 433 706 535 b 375 972 706 860 563 972 z m 375 868 b 588 681 500 868 588 800 b 375 493 588 561 500 493 l 229 493 l 229 868 z "},"Ŕ":{"ha":778,"x_min":0,"x_max":0,"o":"m 563 1278 l 458 1333 l 250 1111 l 313 1069 z m 111 972 l 111 0 l 229 0 l 229 389 l 347 389 l 618 0 l 764 0 l 474 400 b 706 681 611 433 706 535 b 375 972 706 860 563 972 z m 375 868 b 588 681 500 868 588 800 b 375 493 588 561 500 493 l 229 493 l 229 868 z "},"Ŗ":{"ha":778,"x_min":0,"x_max":0,"o":"m 111 972 l 111 0 l 229 0 l 229 389 l 347 389 l 618 0 l 764 0 l 474 400 b 706 681 611 433 706 535 b 375 972 706 860 563 972 z m 375 868 b 588 681 500 868 588 800 b 375 493 588 561 500 493 l 229 493 l 229 868 z m 443 -83 l 321 -443 l 401 -472 l 554 -125 z "},"Ř":{"ha":778,"x_min":0,"x_max":0,"o":"m 354 1188 l 201 1319 l 132 1264 l 354 1069 l 576 1264 l 507 1319 z m 111 972 l 111 0 l 229 0 l 229 389 l 347 389 l 618 0 l 764 0 l 474 400 b 706 681 611 433 706 535 b 375 972 706 860 563 972 z m 375 868 b 588 681 500 868 588 800 b 375 493 588 561 500 493 l 229 493 l 229 868 z "},"Ȓ":{"ha":778,"x_min":0,"x_max":0,"o":"m 163 1069 l 261 1069 b 382 1174 261 1106 285 1174 b 503 1069 479 1174 503 1106 l 601 1069 b 382 1264 601 1165 528 1264 b 163 1069 236 1264 163 1165 z m 111 972 l 111 0 l 229 0 l 229 389 l 347 389 l 618 0 l 764 0 l 474 400 b 706 681 611 433 706 535 b 375 972 706 860 563 972 z m 375 868 b 588 681 500 868 588 800 b 375 493 588 561 500 493 l 229 493 l 229 868 z "},"S":{"ha":761,"x_min":0,"x_max":0,"o":"m 147 294 l 53 231 b 400 -14 115 101 242 -14 b 699 264 554 -14 699 94 b 453 553 699 440 557 517 b 228 750 282 611 228 668 b 379 874 228 813 274 874 b 589 724 493 874 551 796 l 690 782 b 386 986 642 883 543 986 b 104 735 221 986 104 879 b 361 461 104 558 264 496 b 576 250 472 421 576 381 b 404 97 576 161 508 97 b 147 294 288 97 213 176 z "},"Ś":{"ha":761,"x_min":0,"x_max":0,"o":"m 636 1278 l 532 1333 l 324 1111 l 386 1069 z m 156 314 l 56 254 b 403 -14 117 94 243 -14 b 699 264 596 -14 699 99 b 453 550 699 440 554 513 b 228 735 335 594 228 640 b 388 874 228 819 290 874 b 590 714 494 874 549 794 l 686 778 b 386 986 647 876 543 986 b 104 743 228 986 104 890 b 349 469 104 578 251 504 b 576 254 460 429 576 379 b 410 97 576 157 521 97 b 156 314 289 97 214 181 z "},"Ŝ":{"ha":761,"x_min":0,"x_max":0,"o":"m 386 1201 l 539 1069 l 608 1125 l 386 1319 l 164 1125 l 233 1069 z m 156 314 l 56 254 b 403 -14 117 94 243 -14 b 699 264 596 -14 699 99 b 453 550 699 440 554 513 b 228 735 335 594 228 640 b 388 874 228 819 290 874 b 590 714 494 874 549 794 l 686 778 b 386 986 647 876 543 986 b 104 743 228 986 104 890 b 349 469 104 578 251 504 b 576 254 460 429 576 379 b 410 97 576 157 521 97 b 156 314 289 97 214 181 z "},"Ş":{"ha":761,"x_min":0,"x_max":0,"o":"m 156 314 l 56 254 b 368 -12 113 106 225 3 l 297 -151 b 378 -126 326 -132 364 -126 b 447 -176 425 -126 447 -143 b 378 -232 447 -210 425 -232 b 300 -199 342 -232 326 -221 l 253 -254 b 378 -307 292 -293 326 -307 b 525 -176 454 -307 525 -261 b 425 -74 525 -108 471 -74 l 413 -74 l 447 -11 b 699 264 601 6 699 113 b 453 550 699 440 554 513 b 228 735 335 594 228 640 b 374 874 228 819 276 874 b 590 714 481 874 549 794 l 686 778 b 386 986 635 890 543 986 b 104 736 214 986 104 883 b 349 469 104 557 251 504 b 576 254 460 429 576 379 b 410 97 576 157 521 97 b 156 314 289 97 214 181 z "},"Š":{"ha":761,"x_min":0,"x_max":0,"o":"m 386 1188 l 233 1319 l 164 1264 l 386 1069 l 608 1264 l 539 1319 z m 156 314 l 56 254 b 403 -14 117 94 243 -14 b 699 264 596 -14 699 99 b 453 550 699 440 554 513 b 228 735 335 594 228 640 b 388 874 228 819 290 874 b 590 714 494 874 549 794 l 686 778 b 386 986 647 876 543 986 b 104 743 228 986 104 890 b 349 469 104 578 251 504 b 576 254 460 429 576 379 b 410 97 576 157 521 97 b 156 314 289 97 214 181 z "},"Ș":{"ha":761,"x_min":0,"x_max":0,"o":"m 156 314 l 56 254 b 403 -14 117 94 243 -14 b 699 264 596 -14 699 99 b 453 550 699 440 554 513 b 228 735 335 594 228 640 b 388 874 228 819 290 874 b 590 714 494 874 549 794 l 686 778 b 386 986 647 876 543 986 b 104 743 228 986 104 890 b 349 469 104 578 251 504 b 576 254 460 429 576 379 b 410 97 576 157 521 97 b 156 314 289 97 214 181 z m 408 -97 l 286 -457 l 367 -486 l 519 -139 z "},"T":{"ha":646,"x_min":0,"x_max":0,"o":"m 14 861 l 264 861 l 264 0 l 382 0 l 382 861 l 632 861 l 632 972 l 14 972 z "},"Ţ":{"ha":646,"x_min":0,"x_max":0,"o":"m 14 861 l 264 861 l 264 0 l 274 0 l 163 -221 b 242 -196 192 -201 228 -196 b 311 -246 289 -196 311 -212 b 242 -301 311 -279 289 -301 b 164 -268 206 -301 190 -290 l 118 -324 b 242 -376 157 -362 190 -376 b 390 -246 318 -376 390 -331 b 289 -143 390 -178 335 -143 l 276 -143 l 358 0 l 382 0 l 382 861 l 632 861 l 632 972 l 14 972 z "},"Ť":{"ha":646,"x_min":0,"x_max":0,"o":"m 324 1188 l 171 1319 l 101 1264 l 324 1069 l 546 1264 l 476 1319 z m 14 861 l 264 861 l 264 0 l 382 0 l 382 861 l 632 861 l 632 972 l 14 972 z "},"Ț":{"ha":646,"x_min":0,"x_max":0,"o":"m 14 861 l 264 861 l 264 0 l 382 0 l 382 861 l 632 861 l 632 972 l 14 972 z m 329 -83 l 207 -443 l 288 -472 l 440 -125 z "},"U":{"ha":869,"x_min":0,"x_max":0,"o":"m 104 972 l 104 319 b 435 -14 104 126 233 -14 b 765 319 636 -14 765 126 l 765 972 l 647 972 l 647 319 b 435 97 647 186 574 97 b 222 319 296 97 222 186 l 222 972 z "},"Ù":{"ha":869,"x_min":0,"x_max":0,"o":"m 254 1278 l 504 1069 l 567 1111 l 358 1333 z m 104 972 l 104 319 b 435 -14 104 126 233 -14 b 765 319 636 -14 765 126 l 765 972 l 647 972 l 647 319 b 435 97 647 186 574 97 b 222 319 296 97 222 186 l 222 972 z "},"Ú":{"ha":869,"x_min":0,"x_max":0,"o":"m 615 1278 l 511 1333 l 303 1111 l 365 1069 z m 104 972 l 104 319 b 435 -14 104 126 233 -14 b 765 319 636 -14 765 126 l 765 972 l 647 972 l 647 319 b 435 97 647 186 574 97 b 222 319 296 97 222 186 l 222 972 z "},"Û":{"ha":869,"x_min":0,"x_max":0,"o":"m 435 1201 l 588 1069 l 657 1125 l 435 1319 l 213 1125 l 282 1069 z m 104 972 l 104 319 b 435 -14 104 126 233 -14 b 765 319 636 -14 765 126 l 765 972 l 647 972 l 647 319 b 435 97 647 186 574 97 b 222 319 296 97 222 186 l 222 972 z "},"Ü":{"ha":869,"x_min":0,"x_max":0,"o":"m 497 1146 b 574 1069 497 1104 532 1069 b 650 1146 615 1069 650 1104 b 574 1222 650 1188 615 1222 b 497 1146 532 1222 497 1188 z m 219 1146 b 296 1069 219 1104 254 1069 b 372 1146 338 1069 372 1104 b 296 1222 372 1188 338 1222 b 219 1146 254 1222 219 1188 z m 104 972 l 104 319 b 435 -14 104 126 233 -14 b 765 319 636 -14 765 126 l 765 972 l 647 972 l 647 319 b 435 97 647 186 574 97 b 222 319 296 97 222 186 l 222 972 z "},"Ũ":{"ha":869,"x_min":0,"x_max":0,"o":"m 206 1121 l 279 1069 b 349 1140 279 1090 292 1140 b 517 1075 411 1140 440 1075 b 664 1176 586 1075 642 1125 l 600 1236 b 522 1169 572 1192 549 1169 b 350 1235 447 1169 440 1235 b 206 1121 288 1235 219 1189 z m 104 972 l 104 319 b 435 -14 104 126 233 -14 b 765 319 636 -14 765 126 l 765 972 l 647 972 l 647 319 b 435 97 647 186 574 97 b 222 319 296 97 222 186 l 222 972 z "},"Ū":{"ha":869,"x_min":0,"x_max":0,"o":"m 192 1069 l 678 1069 l 678 1174 l 192 1174 z m 104 972 l 104 319 b 435 -14 104 126 233 -14 b 765 319 636 -14 765 126 l 765 972 l 647 972 l 647 319 b 435 97 647 186 574 97 b 222 319 296 97 222 186 l 222 972 z "},"Ŭ":{"ha":869,"x_min":0,"x_max":0,"o":"m 215 1264 b 435 1069 215 1168 289 1069 b 654 1264 581 1069 654 1168 l 556 1264 b 435 1160 556 1228 532 1160 b 314 1264 338 1160 314 1228 z m 104 972 l 104 319 b 435 -14 104 126 233 -14 b 765 319 636 -14 765 126 l 765 972 l 647 972 l 647 319 b 435 97 647 186 574 97 b 222 319 296 97 222 186 l 222 972 z "},"Ů":{"ha":869,"x_min":0,"x_max":0,"o":"m 293 1208 b 435 1069 293 1125 363 1069 b 576 1208 507 1069 576 1125 b 435 1347 576 1292 507 1347 b 293 1208 363 1347 293 1292 z m 364 1208 b 435 1282 364 1254 400 1282 b 506 1208 469 1282 506 1254 b 435 1135 506 1163 469 1135 b 364 1208 400 1135 364 1163 z m 104 972 l 104 319 b 435 -14 104 126 233 -14 b 765 319 636 -14 765 126 l 765 972 l 647 972 l 647 319 b 435 97 647 186 574 97 b 222 319 296 97 222 186 l 222 972 z "},"Ű":{"ha":869,"x_min":0,"x_max":0,"o":"m 321 1069 l 507 1335 l 393 1363 l 249 1093 z m 549 1069 l 738 1335 l 621 1363 l 478 1093 z m 104 972 l 104 319 b 435 -14 104 126 233 -14 b 765 319 636 -14 765 126 l 765 972 l 647 972 l 647 319 b 435 97 647 186 574 97 b 222 319 296 97 222 186 l 222 972 z "},"Ų":{"ha":869,"x_min":0,"x_max":0,"o":"m 496 -186 b 426 -214 476 -204 463 -214 b 360 -144 385 -214 360 -194 b 475 -12 360 -96 410 -43 b 765 319 653 6 765 140 l 765 972 l 647 972 l 647 319 b 435 97 647 186 574 97 b 222 319 296 97 222 186 l 222 972 l 104 972 l 104 319 b 368 -8 104 149 206 19 b 249 -172 300 -53 249 -110 b 419 -311 249 -254 303 -311 b 542 -256 479 -311 521 -283 z "},"V":{"ha":917,"x_min":0,"x_max":0,"o":"m 458 219 l 139 972 l 7 972 l 458 -49 l 910 972 l 778 972 z "},"W":{"ha":1375,"x_min":0,"x_max":0,"o":"m 976 257 l 688 1021 l 404 257 l 146 972 l 14 972 l 396 -49 l 688 707 l 979 -49 l 1361 972 l 1229 972 z "},"Ŵ":{"ha":1375,"x_min":0,"x_max":0,"o":"m 688 1236 l 840 1104 l 910 1160 l 688 1354 l 465 1160 l 535 1104 z m 972 243 l 688 1021 l 403 243 l 146 972 l 14 972 l 396 -49 l 688 707 l 979 -49 l 1361 972 l 1229 972 z "},"Ẁ":{"ha":1375,"x_min":0,"x_max":0,"o":"m 688 1104 l 750 1146 l 542 1368 l 438 1313 z m 976 257 l 688 1021 l 404 257 l 146 972 l 14 972 l 396 -49 l 688 707 l 979 -49 l 1361 972 l 1229 972 z "},"Ẃ":{"ha":1375,"x_min":0,"x_max":0,"o":"m 688 1104 l 938 1313 l 833 1368 l 625 1146 z m 976 257 l 688 1021 l 404 257 l 146 972 l 14 972 l 396 -49 l 688 707 l 979 -49 l 1361 972 l 1229 972 z "},"Ẅ":{"ha":1375,"x_min":0,"x_max":0,"o":"m 750 1181 b 826 1104 750 1139 785 1104 b 903 1181 868 1104 903 1139 b 826 1257 903 1222 868 1257 b 750 1181 785 1257 750 1222 z m 472 1181 b 549 1104 472 1139 507 1104 b 625 1181 590 1104 625 1139 b 549 1257 625 1222 590 1257 b 472 1181 507 1257 472 1222 z m 976 257 l 688 1021 l 404 257 l 146 972 l 14 972 l 396 -49 l 688 707 l 979 -49 l 1361 972 l 1229 972 z "},"Ẇ":{"ha":1375,"x_min":0,"x_max":0,"o":"m 611 1181 b 688 1104 611 1139 646 1104 b 764 1181 729 1104 764 1139 b 688 1257 764 1222 729 1257 b 611 1181 646 1257 611 1222 z m 976 257 l 688 1021 l 404 257 l 146 972 l 14 972 l 396 -49 l 688 707 l 979 -49 l 1361 972 l 1229 972 z "},"Ẉ":{"ha":1375,"x_min":0,"x_max":0,"o":"m 976 257 l 688 1021 l 404 257 l 146 972 l 14 972 l 396 -49 l 688 707 l 979 -49 l 1361 972 l 1229 972 z m 611 -208 b 688 -285 611 -250 646 -285 b 764 -208 729 -285 764 -250 b 688 -132 764 -167 729 -132 b 611 -208 646 -132 611 -167 z "},"X":{"ha":771,"x_min":0,"x_max":0,"o":"m 597 972 l 390 613 l 188 972 l 49 972 l 331 510 l 14 0 l 153 0 l 389 407 l 618 0 l 757 0 l 449 510 l 736 972 z "},"Y":{"ha":779,"x_min":0,"x_max":0,"o":"m 640 972 l 389 522 l 139 972 l 7 972 l 331 418 l 331 0 l 449 0 l 449 419 l 772 972 z "},"Ý":{"ha":779,"x_min":0,"x_max":0,"o":"m 569 1278 l 467 1333 l 258 1111 l 319 1069 z m 640 972 l 389 522 l 139 972 l 7 972 l 331 418 l 331 0 l 449 0 l 449 419 l 772 972 z "},"Ŷ":{"ha":779,"x_min":0,"x_max":0,"o":"m 390 1201 l 543 1069 l 613 1125 l 390 1319 l 168 1125 l 238 1069 z m 640 972 l 389 522 l 139 972 l 7 972 l 331 418 l 331 0 l 449 0 l 449 419 l 772 972 z "},"Ÿ":{"ha":779,"x_min":0,"x_max":0,"o":"m 175 1146 b 250 1069 175 1104 208 1069 b 328 1146 292 1069 328 1104 b 250 1222 328 1188 292 1222 b 175 1146 208 1222 175 1188 z m 453 1146 b 528 1069 453 1104 486 1069 b 606 1146 569 1069 606 1104 b 528 1222 606 1188 569 1222 b 453 1146 486 1222 453 1188 z m 640 972 l 389 522 l 139 972 l 7 972 l 331 418 l 331 0 l 449 0 l 449 419 l 772 972 z "},"Ỳ":{"ha":779,"x_min":0,"x_max":0,"o":"m 390 1069 l 453 1111 l 244 1333 l 140 1278 z m 640 972 l 389 522 l 139 972 l 7 972 l 331 418 l 331 0 l 449 0 l 449 419 l 772 972 z "},"Z":{"ha":757,"x_min":0,"x_max":0,"o":"m 49 861 l 532 861 l 21 0 l 701 0 l 701 111 l 218 111 l 729 972 l 49 972 z "},"Ź":{"ha":757,"x_min":0,"x_max":0,"o":"m 611 1278 l 507 1333 l 299 1111 l 361 1069 z m 49 861 l 532 861 l 21 0 l 701 0 l 701 111 l 218 111 l 729 972 l 49 972 z "},"Ż":{"ha":757,"x_min":0,"x_max":0,"o":"m 313 1146 b 389 1069 313 1104 347 1069 b 465 1146 431 1069 465 1104 b 389 1222 465 1188 431 1222 b 313 1146 347 1222 313 1188 z m 49 861 l 532 861 l 21 0 l 701 0 l 701 111 l 218 111 l 729 972 l 49 972 z "},"Ž":{"ha":757,"x_min":0,"x_max":0,"o":"m 389 1188 l 236 1319 l 167 1264 l 389 1069 l 611 1264 l 542 1319 z m 49 861 l 532 861 l 21 0 l 701 0 l 701 111 l 218 111 l 729 972 l 49 972 z "},"Æ":{"ha":1333,"x_min":0,"x_max":0,"o":"m 1236 111 l 799 111 l 799 472 l 1208 472 l 1208 583 l 799 583 l 799 861 l 1236 861 l 1236 972 l 604 972 l 7 0 l 139 0 l 318 292 l 681 292 l 681 0 l 1236 0 z m 386 403 l 681 885 l 681 403 z "},"Ð":{"ha":944,"x_min":0,"x_max":0,"o":"m 403 0 b 889 486 686 0 889 196 b 403 972 889 776 686 972 l 111 972 l 111 535 l 7 535 l 7 431 l 111 431 l 111 0 z m 424 431 l 424 535 l 229 535 l 229 854 l 403 854 b 771 486 622 854 771 713 b 403 118 771 260 622 118 l 229 118 l 229 431 z "},"Ø":{"ha":1097,"x_min":0,"x_max":0,"o":"m 56 486 b 186 140 56 350 104 228 l 56 -14 l 136 -69 l 260 75 b 549 -14 340 19 439 -14 b 1042 486 832 -14 1042 203 b 908 835 1042 624 992 746 l 1038 986 l 956 1042 l 835 899 b 549 986 754 954 657 986 b 56 486 265 986 56 769 z m 181 486 b 549 868 181 706 336 868 b 756 807 626 868 697 846 l 267 233 b 181 486 213 300 181 388 z m 917 486 b 549 104 917 267 761 104 b 339 168 469 104 397 128 l 829 742 b 917 486 885 675 917 586 z "},"Þ":{"ha":764,"x_min":0,"x_max":0,"o":"m 111 972 l 111 0 l 229 0 l 229 194 l 375 194 b 706 486 563 194 706 307 b 375 778 706 665 563 778 l 229 778 l 229 972 z m 375 667 b 588 486 500 667 588 606 b 375 306 588 367 500 306 l 229 306 l 229 667 z "},"Đ":{"ha":944,"x_min":0,"x_max":0,"o":"m 403 0 b 889 486 686 0 889 196 b 403 972 889 776 686 972 l 111 972 l 111 535 l 7 535 l 7 431 l 111 431 l 111 0 z m 424 431 l 424 535 l 229 535 l 229 854 l 403 854 b 771 486 622 854 771 713 b 403 118 771 260 622 118 l 229 118 l 229 431 z "},"Ħ":{"ha":993,"x_min":0,"x_max":0,"o":"m 7 750 l 111 750 l 111 0 l 229 0 l 229 472 l 764 472 l 764 0 l 882 0 l 882 750 l 986 750 l 986 854 l 882 854 l 882 972 l 764 972 l 764 854 l 229 854 l 229 972 l 111 972 l 111 854 l 7 854 z m 229 583 l 229 750 l 764 750 l 764 583 z "},"Ĳ":{"ha":681,"x_min":0,"x_max":0,"o":"m 254 -144 l 193 -236 b 357 -306 214 -264 283 -306 b 569 -83 488 -306 569 -235 l 569 972 l 458 972 l 458 -69 b 364 -194 458 -161 406 -194 b 254 -144 314 -194 274 -176 z m 111 972 l 111 0 l 229 0 l 229 972 z "},"Ŀ":{"ha":625,"x_min":0,"x_max":0,"o":"m 111 972 l 111 0 l 611 0 l 611 111 l 229 111 l 229 972 z m 354 576 b 431 500 354 535 389 500 b 507 576 472 500 507 535 b 431 653 507 618 472 653 b 354 576 389 653 354 618 z "},"Ł":{"ha":625,"x_min":0,"x_max":0,"o":"m 7 472 l 111 538 l 111 0 l 611 0 l 611 111 l 229 111 l 229 613 l 382 708 l 354 785 l 229 706 l 229 972 l 111 972 l 111 632 l -21 549 z "},"Ŋ":{"ha":1076,"x_min":0,"x_max":0,"o":"m 781 -306 b 965 -83 897 -306 965 -224 l 965 972 l 847 972 l 847 249 l 111 1021 l 111 0 l 229 0 l 229 724 l 854 68 l 854 -69 b 788 -194 854 -158 835 -194 b 719 -158 758 -194 733 -181 l 658 -250 b 781 -306 686 -287 725 -306 z "},"Œ":{"ha":1368,"x_min":0,"x_max":0,"o":"m 1272 111 l 833 111 l 833 472 l 1243 472 l 1243 583 l 833 583 l 833 861 l 1271 861 l 1271 972 l 542 972 b 56 486 258 972 56 776 b 542 0 56 196 260 0 l 1272 0 z m 542 111 b 174 486 324 111 174 260 b 542 861 174 713 322 861 l 715 861 l 715 111 z "},"Ŧ":{"ha":646,"x_min":0,"x_max":0,"o":"m 104 528 l 264 528 l 264 0 l 382 0 l 382 528 l 542 528 l 542 632 l 382 632 l 382 861 l 632 861 l 632 972 l 14 972 l 14 861 l 264 861 l 264 632 l 104 632 z "},"ẞ":{"ha":994,"x_min":0,"x_max":0,"o":"m 586 -17 b 942 253 794 -17 942 94 b 689 508 942 463 689 431 b 864 767 689 572 864 592 b 564 985 864 900 747 985 b 111 540 331 985 111 850 l 111 -3 l 231 -3 l 228 531 b 546 867 228 769 372 867 b 739 742 690 867 739 800 b 553 500 739 626 553 633 b 817 244 553 342 817 406 b 594 103 817 142 707 103 b 375 175 497 103 439 132 l 319 75 b 586 -17 388 21 467 -17 z "},"Δ":{"ha":833,"x_min":0,"x_max":0,"o":"m 25 0 l 807 0 l 417 1111 z m 192 106 l 417 806 l 642 106 z "},"Ω":{"ha":833,"x_min":0,"x_max":0,"o":"m 92 0 l 360 0 l 360 108 b 219 432 281 171 219 311 b 417 647 219 574 289 647 b 611 432 544 647 611 574 b 472 108 611 310 551 171 l 472 0 l 740 0 l 740 94 l 619 94 b 736 440 692 194 736 326 b 417 776 736 632 600 776 b 96 440 233 776 96 632 b 213 94 96 326 140 194 l 92 94 z "},"А":{"ha":917,"x_min":0,"x_max":0,"o":"m 778 0 l 910 0 l 458 1021 l 7 0 l 139 0 l 263 292 l 654 292 z m 458 753 l 607 403 l 310 403 z "},"Б":{"ha":761,"x_min":0,"x_max":0,"o":"m 111 972 l 111 0 l 375 0 b 706 292 563 0 706 113 b 375 583 706 471 563 583 l 229 583 l 229 861 l 632 861 l 632 972 z m 375 472 b 588 292 500 472 588 411 b 375 111 588 172 500 111 l 229 111 l 229 472 z "},"В":{"ha":775,"x_min":0,"x_max":0,"o":"m 706 285 b 489 531 706 425 617 504 b 650 729 589 561 650 629 b 361 972 650 894 535 972 l 111 972 l 111 0 l 375 0 b 706 285 563 0 706 92 z m 361 868 b 532 722 458 868 532 814 b 361 579 532 631 458 579 l 229 579 l 229 868 z m 229 104 l 229 476 l 375 476 b 588 292 500 476 588 411 b 375 104 588 172 500 104 z "},"Г":{"ha":604,"x_min":0,"x_max":0,"o":"m 111 972 l 111 0 l 229 0 l 229 861 l 590 861 l 590 972 z "},"Ѓ":{"ha":604,"x_min":0,"x_max":0,"o":"m 601 1278 l 497 1333 l 289 1111 l 351 1069 z m 111 972 l 111 0 l 229 0 l 229 861 l 590 861 l 590 972 z "},"Д":{"ha":1104,"x_min":0,"x_max":0,"o":"m 938 0 l 938 -153 l 1042 -153 l 1042 111 l 917 111 l 549 1021 l 181 111 l 56 111 l 56 -153 l 160 -153 l 160 0 z m 549 753 l 793 111 l 304 111 z "},"Е":{"ha":764,"x_min":0,"x_max":0,"o":"m 111 972 l 111 0 l 667 0 l 667 111 l 229 111 l 229 472 l 639 472 l 639 583 l 229 583 l 229 861 l 667 861 l 667 972 z "},"Ѐ":{"ha":764,"x_min":0,"x_max":0,"o":"m 139 1278 l 389 1069 l 451 1111 l 243 1333 z m 111 972 l 111 0 l 667 0 l 667 111 l 229 111 l 229 472 l 639 472 l 639 583 l 229 583 l 229 861 l 667 861 l 667 972 z "},"Ё":{"ha":764,"x_min":0,"x_max":0,"o":"m 451 1146 b 528 1069 451 1104 486 1069 b 604 1146 569 1069 604 1104 b 528 1222 604 1188 569 1222 b 451 1146 486 1222 451 1188 z m 174 1146 b 250 1069 174 1104 208 1069 b 326 1146 292 1069 326 1104 b 250 1222 326 1188 292 1222 b 174 1146 208 1222 174 1188 z m 111 972 l 111 0 l 667 0 l 667 111 l 229 111 l 229 472 l 639 472 l 639 583 l 229 583 l 229 861 l 667 861 l 667 972 z "},"Ж":{"ha":1243,"x_min":0,"x_max":0,"o":"m 174 972 l 28 972 l 449 517 l 7 0 l 153 0 l 569 488 l 569 0 l 688 0 l 688 488 l 1090 0 l 1236 0 l 794 517 l 1215 972 l 1069 972 l 688 539 l 688 972 l 569 972 l 569 539 z "},"З":{"ha":842,"x_min":0,"x_max":0,"o":"m 435 -14 b 779 257 650 -14 779 92 b 567 507 779 394 693 472 b 751 728 682 549 751 632 b 440 986 751 865 635 986 b 125 731 253 986 125 882 l 238 731 b 442 879 238 815 324 879 b 631 724 567 879 631 815 b 393 556 631 632 546 556 l 393 451 b 658 271 546 451 658 390 b 435 97 658 165 588 97 b 203 257 282 97 213 165 l 83 257 b 435 -14 83 106 206 -14 z "},"И":{"ha":1076,"x_min":0,"x_max":0,"o":"m 229 972 l 111 972 l 111 -49 l 847 724 l 847 0 l 965 0 l 965 1021 l 229 249 z "},"Ѝ":{"ha":1076,"x_min":0,"x_max":0,"o":"m 354 1243 l 604 1035 l 667 1076 l 458 1299 z m 229 972 l 111 972 l 111 -49 l 847 724 l 847 0 l 965 0 l 965 1021 l 229 249 z "},"Й":{"ha":1076,"x_min":0,"x_max":0,"o":"m 357 1257 b 576 1063 357 1161 431 1063 b 796 1257 722 1063 796 1161 l 697 1257 b 576 1153 697 1221 674 1153 b 456 1257 479 1153 456 1221 z m 229 972 l 111 972 l 111 -49 l 847 724 l 847 0 l 965 0 l 965 1021 l 229 249 z "},"К":{"ha":785,"x_min":0,"x_max":0,"o":"m 111 972 l 111 0 l 229 0 l 229 472 l 632 0 l 778 0 l 336 517 l 757 972 l 611 972 l 229 554 l 229 972 z "},"Ќ":{"ha":785,"x_min":0,"x_max":0,"o":"m 685 1278 l 581 1333 l 372 1111 l 435 1069 z m 111 972 l 111 0 l 229 0 l 229 472 l 632 0 l 778 0 l 336 517 l 757 972 l 611 972 l 229 554 l 229 972 z "},"Л":{"ha":914,"x_min":0,"x_max":0,"o":"m 803 972 l 143 972 l 143 361 b 14 101 143 214 97 101 l 14 0 b 254 333 172 0 254 154 l 254 861 l 685 861 l 685 0 l 803 0 z "},"М":{"ha":1125,"x_min":0,"x_max":0,"o":"m 246 657 l 563 90 l 879 657 l 951 0 l 1069 0 l 951 1021 l 563 317 l 174 1021 l 56 0 l 174 0 z "},"Н":{"ha":993,"x_min":0,"x_max":0,"o":"m 111 972 l 111 0 l 229 0 l 229 472 l 764 472 l 764 0 l 882 0 l 882 972 l 764 972 l 764 583 l 229 583 l 229 972 z "},"О":{"ha":1097,"x_min":0,"x_max":0,"o":"m 56 486 b 549 -14 56 203 265 -14 b 1042 486 832 -14 1042 203 b 549 986 1042 769 832 986 b 56 486 265 986 56 769 z m 181 486 b 549 868 181 706 336 868 b 917 486 761 868 917 706 b 549 104 917 267 761 104 b 181 486 336 104 181 267 z "},"П":{"ha":993,"x_min":0,"x_max":0,"o":"m 764 861 l 764 0 l 882 0 l 882 972 l 111 972 l 111 0 l 229 0 l 229 861 z "},"Р":{"ha":761,"x_min":0,"x_max":0,"o":"m 111 972 l 111 0 l 229 0 l 229 389 l 375 389 b 706 681 563 389 706 501 b 375 972 706 860 563 972 z m 375 861 b 588 681 500 861 588 800 b 375 500 588 561 500 500 l 229 500 l 229 861 z "},"С":{"ha":951,"x_min":0,"x_max":0,"o":"m 181 486 b 542 868 181 713 350 868 b 854 724 679 868 786 810 l 854 879 b 542 986 772 951 683 986 b 56 486 272 986 56 776 b 542 -14 56 196 272 -14 b 854 93 683 -14 772 21 l 854 249 b 542 104 786 163 679 104 b 181 486 350 104 181 260 z "},"Т":{"ha":646,"x_min":0,"x_max":0,"o":"m 14 861 l 264 861 l 264 0 l 382 0 l 382 861 l 632 861 l 632 972 l 14 972 z "},"У":{"ha":785,"x_min":0,"x_max":0,"o":"m 785 972 l 653 972 l 394 404 l 146 972 l 0 972 l 321 288 l 196 0 l 328 0 z "},"Ў":{"ha":785,"x_min":0,"x_max":0,"o":"m 176 1264 b 396 1069 176 1168 250 1069 b 615 1264 542 1069 615 1168 l 517 1264 b 396 1160 517 1228 493 1160 b 275 1264 299 1160 275 1228 z m 785 972 l 653 972 l 394 404 l 146 972 l 0 972 l 321 288 l 196 0 l 328 0 z "},"Ф":{"ha":1088,"x_min":0,"x_max":0,"o":"m 485 972 l 485 861 b 56 486 238 856 56 717 b 485 111 56 256 238 117 l 485 0 l 603 0 l 603 111 b 1032 486 850 117 1032 256 b 603 861 1032 717 850 856 l 603 972 z m 914 486 b 603 229 914 319 786 233 l 603 743 b 914 486 786 739 914 653 z m 174 486 b 485 743 174 653 301 739 l 485 229 b 174 486 301 233 174 319 z "},"Х":{"ha":771,"x_min":0,"x_max":0,"o":"m 597 972 l 390 613 l 188 972 l 49 972 l 331 510 l 14 0 l 153 0 l 389 407 l 618 0 l 757 0 l 449 510 l 736 972 z "},"Ц":{"ha":1056,"x_min":0,"x_max":0,"o":"m 229 111 l 229 972 l 111 972 l 111 0 l 896 0 l 896 -153 l 1000 -153 l 1000 111 l 882 111 l 882 972 l 764 972 l 764 111 z "},"Ч":{"ha":854,"x_min":0,"x_max":0,"o":"m 222 972 l 111 972 l 111 719 b 403 389 111 532 210 389 l 625 389 l 625 0 l 743 0 l 743 972 l 625 972 l 625 493 l 403 493 b 222 719 283 493 222 594 z "},"Ш":{"ha":1368,"x_min":0,"x_max":0,"o":"m 1139 111 l 743 111 l 743 972 l 625 972 l 625 111 l 229 111 l 229 972 l 111 972 l 111 0 l 1257 0 l 1257 972 l 1139 972 z "},"Щ":{"ha":1431,"x_min":0,"x_max":0,"o":"m 1139 111 l 743 111 l 743 972 l 625 972 l 625 111 l 229 111 l 229 972 l 111 972 l 111 0 l 1271 0 l 1271 -153 l 1375 -153 l 1375 111 l 1257 111 l 1257 972 l 1139 972 z "},"Ъ":{"ha":914,"x_min":0,"x_max":0,"o":"m 264 861 l 264 0 l 528 0 b 858 292 715 0 858 113 b 528 583 858 471 715 583 l 382 583 l 382 972 l 14 972 l 14 861 z m 528 472 b 740 292 653 472 740 411 b 528 111 740 172 653 111 l 382 111 l 382 472 z "},"Ы":{"ha":1063,"x_min":0,"x_max":0,"o":"m 833 972 l 833 0 l 951 0 l 951 972 z m 111 972 l 111 0 l 375 0 b 706 292 563 0 706 113 b 375 583 706 471 563 583 l 229 583 l 229 972 z m 375 472 b 588 292 500 472 588 411 b 375 111 588 172 500 111 l 229 111 l 229 472 z "},"Ь":{"ha":761,"x_min":0,"x_max":0,"o":"m 111 972 l 111 0 l 375 0 b 706 292 563 0 706 113 b 375 583 706 471 563 583 l 229 583 l 229 972 z m 375 472 b 588 292 500 472 588 411 b 375 111 588 172 500 111 l 229 111 l 229 472 z "},"Э":{"ha":951,"x_min":0,"x_max":0,"o":"m 183 431 l 767 431 b 410 104 742 235 585 104 b 97 249 272 104 165 163 l 97 93 b 410 -14 179 21 268 -14 b 896 486 679 -14 896 196 b 410 986 896 776 679 986 b 97 879 268 986 179 951 l 97 724 b 410 868 165 810 272 868 b 767 542 585 868 742 738 l 183 542 z "},"Ю":{"ha":1431,"x_min":0,"x_max":0,"o":"m 111 972 l 111 0 l 229 0 l 229 472 l 389 472 b 882 -14 396 196 603 -14 b 1375 486 1165 -14 1375 203 b 882 986 1375 769 1165 986 b 397 583 632 986 439 818 l 229 583 l 229 972 z m 514 486 b 882 868 514 706 669 868 b 1250 486 1094 868 1250 706 b 882 104 1250 267 1094 104 b 514 486 669 104 514 267 z "},"Я":{"ha":778,"x_min":0,"x_max":0,"o":"m 667 972 l 403 972 b 72 681 215 972 72 860 b 304 400 72 535 167 433 l 14 0 l 160 0 l 431 389 l 549 389 l 549 0 l 667 0 z m 403 493 b 190 681 278 493 190 561 b 403 868 190 800 278 868 l 549 868 l 549 493 z "},"a":{"ha":668,"x_min":0,"x_max":0,"o":"m 138 492 b 329 556 167 514 233 556 b 474 443 408 556 474 531 l 474 350 b 292 397 436 374 376 397 b 42 192 135 397 42 315 b 263 -14 42 61 144 -14 b 474 86 340 -14 432 18 l 474 0 l 585 0 l 585 458 b 335 653 585 582 483 653 b 83 574 217 653 132 608 z m 154 197 b 310 310 154 267 201 310 b 474 274 369 310 422 299 l 474 250 b 292 82 474 149 393 82 b 154 197 210 82 154 124 z "},"à":{"ha":674,"x_min":0,"x_max":0,"o":"m 122 944 l 372 736 l 435 778 l 226 1000 z m 154 489 b 344 556 185 511 253 556 b 479 458 414 556 479 522 l 479 351 b 314 397 443 375 389 397 b 42 174 160 397 42 322 b 261 -14 42 57 129 -14 b 479 92 357 -14 440 24 l 479 0 l 590 0 l 590 458 b 344 653 590 582 490 653 b 100 574 229 653 147 608 z m 154 188 b 319 313 154 265 207 313 b 479 275 381 313 431 300 l 479 250 b 289 85 479 131 400 85 b 154 188 200 85 154 119 z "},"á":{"ha":674,"x_min":0,"x_max":0,"o":"m 567 944 l 463 1000 l 254 778 l 317 736 z m 154 489 b 344 556 185 511 253 556 b 479 458 414 556 479 522 l 479 351 b 314 397 443 375 389 397 b 42 174 160 397 42 322 b 261 -14 42 57 129 -14 b 479 92 357 -14 440 24 l 479 0 l 590 0 l 590 458 b 344 653 590 582 490 653 b 100 574 229 653 147 608 z m 154 188 b 319 313 154 265 207 313 b 479 275 381 313 431 300 l 479 250 b 289 85 479 131 400 85 b 154 188 200 85 154 119 z "},"â":{"ha":674,"x_min":0,"x_max":0,"o":"m 344 868 l 497 736 l 567 792 l 344 986 l 122 792 l 192 736 z m 154 489 b 344 556 185 511 253 556 b 479 458 414 556 479 522 l 479 351 b 314 397 443 375 389 397 b 42 174 160 397 42 322 b 261 -14 42 57 129 -14 b 479 92 357 -14 440 24 l 479 0 l 590 0 l 590 458 b 344 653 590 582 490 653 b 100 574 229 653 147 608 z m 154 188 b 319 313 154 265 207 313 b 479 275 381 313 431 300 l 479 250 b 289 85 479 131 400 85 b 154 188 200 85 154 119 z "},"ã":{"ha":674,"x_min":0,"x_max":0,"o":"m 115 788 l 189 736 b 258 807 189 757 201 807 b 426 742 321 807 350 742 b 574 843 496 742 551 792 l 510 903 b 432 836 482 858 458 836 b 260 901 357 836 350 901 b 115 788 197 901 129 856 z m 154 489 b 344 556 185 511 253 556 b 479 458 414 556 479 522 l 479 351 b 314 397 443 375 389 397 b 42 174 160 397 42 322 b 261 -14 42 57 129 -14 b 479 92 357 -14 440 24 l 479 0 l 590 0 l 590 458 b 344 653 590 582 490 653 b 100 574 229 653 147 608 z m 154 188 b 319 313 154 265 207 313 b 479 275 381 313 431 300 l 479 250 b 289 85 479 131 400 85 b 154 188 200 85 154 119 z "},"ä":{"ha":674,"x_min":0,"x_max":0,"o":"m 407 813 b 483 736 407 771 442 736 b 560 813 525 736 560 771 b 483 889 560 854 525 889 b 407 813 442 889 407 854 z m 129 813 b 206 736 129 771 164 736 b 282 813 247 736 282 771 b 206 889 282 854 247 889 b 129 813 164 889 129 854 z m 154 489 b 344 556 185 511 253 556 b 479 458 414 556 479 522 l 479 351 b 314 397 443 375 389 397 b 42 174 160 397 42 322 b 261 -14 42 57 129 -14 b 479 92 357 -14 440 24 l 479 0 l 590 0 l 590 458 b 344 653 590 582 490 653 b 100 574 229 653 147 608 z m 154 188 b 319 313 154 265 207 313 b 479 275 381 313 431 300 l 479 250 b 289 85 479 131 400 85 b 154 188 200 85 154 119 z "},"å":{"ha":674,"x_min":0,"x_max":0,"o":"m 203 875 b 344 736 203 792 272 736 b 486 875 417 736 486 792 b 344 1014 486 958 417 1014 b 203 875 272 1014 203 958 z m 274 875 b 344 949 274 921 310 949 b 415 875 379 949 415 921 b 344 801 415 829 379 801 b 274 875 310 801 274 829 z m 154 489 b 344 556 185 511 253 556 b 479 458 414 556 479 522 l 479 351 b 314 397 443 375 389 397 b 42 174 160 397 42 322 b 261 -14 42 57 129 -14 b 479 92 357 -14 440 24 l 479 0 l 590 0 l 590 458 b 344 653 590 582 490 653 b 100 574 229 653 147 608 z m 154 188 b 319 313 154 265 207 313 b 479 275 381 313 431 300 l 479 250 b 289 85 479 131 400 85 b 154 188 200 85 154 119 z "},"ā":{"ha":674,"x_min":0,"x_max":0,"o":"m 101 764 l 588 764 l 588 868 l 101 868 z m 154 489 b 344 556 185 511 253 556 b 479 458 414 556 479 522 l 479 351 b 314 397 443 375 389 397 b 42 174 160 397 42 322 b 261 -14 42 57 129 -14 b 479 92 357 -14 440 24 l 479 0 l 590 0 l 590 458 b 344 653 590 582 490 653 b 100 574 229 653 147 608 z m 154 188 b 319 313 154 265 207 313 b 479 275 381 313 431 300 l 479 250 b 289 85 479 131 400 85 b 154 188 200 85 154 119 z "},"ă":{"ha":674,"x_min":0,"x_max":0,"o":"m 125 931 b 344 736 125 835 199 736 b 564 931 490 736 564 835 l 465 931 b 344 826 465 894 442 826 b 224 931 247 826 224 894 z m 154 489 b 344 556 185 511 253 556 b 479 458 414 556 479 522 l 479 351 b 314 397 443 375 389 397 b 42 174 160 397 42 322 b 261 -14 42 57 129 -14 b 479 92 357 -14 440 24 l 479 0 l 590 0 l 590 458 b 344 653 590 582 490 653 b 100 574 229 653 147 608 z m 154 188 b 319 313 154 265 207 313 b 479 275 381 313 431 300 l 479 250 b 289 85 479 131 400 85 b 154 188 200 85 154 119 z "},"ą":{"ha":674,"x_min":0,"x_max":0,"o":"m 154 489 b 344 556 185 511 253 556 b 479 458 414 556 479 522 l 479 351 b 314 397 443 375 389 397 b 42 183 146 397 42 318 b 261 -14 42 53 140 -14 b 479 92 357 -14 440 24 l 479 4 b 350 -167 407 -43 350 -100 b 521 -306 350 -249 404 -306 b 643 -250 581 -306 622 -278 l 597 -181 b 528 -208 578 -199 564 -208 b 461 -139 486 -208 461 -189 b 590 0 461 -87 518 -31 l 590 458 b 344 653 590 582 490 653 b 100 574 229 653 147 608 z m 154 188 b 319 313 154 265 207 313 b 479 275 381 313 431 300 l 479 250 b 289 85 479 131 400 85 b 154 188 214 85 154 119 z "},"b":{"ha":792,"x_min":0,"x_max":0,"o":"m 743 319 b 426 653 743 526 600 653 b 208 529 332 653 256 608 l 208 1083 l 97 1083 l 97 0 l 208 0 l 208 110 b 426 -14 256 31 332 -14 b 743 319 600 -14 743 113 z m 631 319 b 413 90 631 172 531 90 b 208 319 315 90 208 172 b 413 549 208 467 315 549 b 631 319 531 549 631 467 z "},"c":{"ha":664,"x_min":0,"x_max":0,"o":"m 154 319 b 372 549 154 453 247 549 b 594 432 475 549 565 494 l 594 571 b 372 653 550 622 460 653 b 42 319 185 653 42 513 b 372 -14 42 126 185 -14 b 594 68 460 -14 550 15 l 594 207 b 372 90 565 144 475 90 b 154 319 247 90 154 186 z "},"ç":{"ha":664,"x_min":0,"x_max":0,"o":"m 154 319 b 372 549 154 453 247 549 b 594 432 475 549 565 494 l 594 571 b 372 653 550 622 460 653 b 42 319 185 653 42 513 b 313 -8 42 147 156 18 l 239 -151 b 319 -126 268 -132 306 -126 b 389 -176 367 -126 389 -143 b 319 -232 389 -210 367 -232 b 242 -199 283 -232 268 -221 l 194 -254 b 319 -307 233 -293 268 -307 b 467 -176 396 -307 467 -261 b 367 -74 467 -108 413 -74 l 354 -74 l 388 -14 b 594 68 471 -10 553 18 l 594 207 b 372 90 565 144 475 90 b 154 319 247 90 154 186 z "},"ć":{"ha":664,"x_min":0,"x_max":0,"o":"m 553 944 l 449 1000 l 240 778 l 303 736 z m 154 319 b 372 549 154 453 247 549 b 594 432 475 549 565 494 l 594 571 b 372 653 550 622 460 653 b 42 319 185 653 42 513 b 372 -14 42 126 185 -14 b 594 68 460 -14 550 15 l 594 207 b 372 90 565 144 475 90 b 154 319 247 90 154 186 z "},"ĉ":{"ha":664,"x_min":0,"x_max":0,"o":"m 372 868 l 525 736 l 594 792 l 372 986 l 150 792 l 219 736 z m 154 319 b 372 549 154 453 247 549 b 594 432 475 549 565 494 l 594 571 b 372 653 550 622 460 653 b 42 319 185 653 42 513 b 372 -14 42 126 185 -14 b 594 68 460 -14 550 15 l 594 207 b 372 90 565 144 475 90 b 154 319 247 90 154 186 z "},"ċ":{"ha":664,"x_min":0,"x_max":0,"o":"m 296 813 b 372 736 296 771 331 736 b 449 813 414 736 449 771 b 372 889 449 854 414 889 b 296 813 331 889 296 854 z m 154 319 b 372 549 154 453 247 549 b 594 432 475 549 565 494 l 594 571 b 372 653 550 622 460 653 b 42 319 185 653 42 513 b 372 -14 42 126 185 -14 b 594 68 460 -14 550 15 l 594 207 b 372 90 565 144 475 90 b 154 319 247 90 154 186 z "},"č":{"ha":664,"x_min":0,"x_max":0,"o":"m 372 854 l 219 986 l 150 931 l 372 736 l 594 931 l 525 986 z m 154 319 b 372 549 154 453 247 549 b 594 432 475 549 565 494 l 594 571 b 372 653 550 622 460 653 b 42 319 185 653 42 513 b 372 -14 42 126 185 -14 b 594 68 460 -14 550 15 l 594 207 b 372 90 565 144 475 90 b 154 319 247 90 154 186 z "},"d":{"ha":792,"x_min":0,"x_max":0,"o":"m 49 319 b 365 -14 49 113 192 -14 b 583 110 460 -14 536 31 l 583 0 l 694 0 l 694 1083 l 583 1083 l 583 529 b 365 653 536 608 460 653 b 49 319 192 653 49 526 z m 161 319 b 379 549 161 467 261 549 b 583 319 476 549 583 467 b 379 90 583 172 476 90 b 161 319 261 90 161 172 z "},"ď":{"ha":792,"x_min":0,"x_max":0,"o":"m 49 319 b 365 -14 49 113 192 -14 b 583 110 460 -14 536 31 l 583 0 l 694 0 l 694 1083 l 583 1083 l 583 529 b 365 653 536 608 460 653 b 49 319 192 653 49 526 z m 858 1083 l 736 724 l 817 694 l 969 1042 z m 161 319 b 379 549 161 467 261 549 b 583 319 476 549 583 467 b 379 90 583 172 476 90 b 161 319 261 90 161 172 z "},"e":{"ha":715,"x_min":0,"x_max":0,"o":"m 351 -14 b 656 149 488 -14 589 40 l 565 206 b 365 90 518 128 451 90 b 163 292 246 90 172 163 l 665 292 b 667 325 665 294 667 311 b 365 653 667 528 553 653 b 49 319 176 653 49 518 b 351 -14 49 122 172 -14 z m 365 556 b 546 386 468 556 538 489 l 167 386 b 365 556 186 494 256 556 z "},"è":{"ha":715,"x_min":0,"x_max":0,"o":"m 171 958 l 421 750 l 483 792 l 275 1014 z m 656 149 l 565 206 b 365 90 522 136 458 90 b 163 292 249 90 172 163 l 665 292 b 667 325 667 303 667 314 b 365 653 667 526 546 653 b 54 388 200 653 81 544 b 49 319 50 365 49 343 b 351 -14 49 126 178 -14 b 656 149 517 -14 592 51 z m 365 556 b 546 386 476 556 535 486 l 165 386 b 365 556 178 492 263 556 z "},"é":{"ha":715,"x_min":0,"x_max":0,"o":"m 588 958 l 483 1014 l 275 792 l 338 750 z m 656 149 l 565 206 b 365 90 522 136 458 90 b 163 292 249 90 172 163 l 665 292 b 667 325 667 303 667 314 b 365 653 667 526 546 653 b 54 388 200 653 81 544 b 49 319 50 365 49 343 b 351 -14 49 126 178 -14 b 656 149 517 -14 592 51 z m 365 556 b 546 386 476 556 535 486 l 165 386 b 365 556 178 492 263 556 z "},"ê":{"ha":715,"x_min":0,"x_max":0,"o":"m 365 868 l 518 736 l 588 792 l 365 986 l 143 792 l 213 736 z m 656 149 l 565 206 b 365 90 522 136 458 90 b 163 292 249 90 172 163 l 665 292 b 667 325 667 303 667 314 b 365 653 667 526 546 653 b 54 388 200 653 81 544 b 49 319 50 365 49 343 b 351 -14 49 126 178 -14 b 656 149 517 -14 592 51 z m 365 556 b 546 386 476 556 535 486 l 165 386 b 365 556 178 492 263 556 z "},"ë":{"ha":715,"x_min":0,"x_max":0,"o":"m 428 813 b 504 736 428 771 463 736 b 581 813 546 736 581 771 b 504 889 581 854 546 889 b 428 813 463 889 428 854 z m 150 813 b 226 736 150 771 185 736 b 303 813 268 736 303 771 b 226 889 303 854 268 889 b 150 813 185 889 150 854 z m 656 149 l 565 206 b 365 90 522 136 458 90 b 163 292 249 90 172 163 l 665 292 b 667 325 667 303 667 314 b 365 653 667 526 546 653 b 54 388 200 653 81 544 b 49 319 50 365 49 343 b 351 -14 49 126 178 -14 b 656 149 517 -14 592 51 z m 365 556 b 546 386 476 556 535 486 l 165 386 b 365 556 178 492 263 556 z "},"ē":{"ha":715,"x_min":0,"x_max":0,"o":"m 122 736 l 608 736 l 608 840 l 122 840 z m 656 149 l 565 206 b 365 90 522 136 458 90 b 163 292 249 90 172 163 l 665 292 b 667 325 667 303 667 314 b 365 653 667 526 546 653 b 54 388 200 653 81 544 b 49 319 50 365 49 343 b 351 -14 49 126 178 -14 b 656 149 517 -14 592 51 z m 365 556 b 546 386 476 556 535 486 l 165 386 b 365 556 178 492 263 556 z "},"ĕ":{"ha":715,"x_min":0,"x_max":0,"o":"m 146 931 b 365 736 146 835 219 736 b 585 931 511 736 585 835 l 486 931 b 365 826 486 894 463 826 b 244 931 268 826 244 894 z m 656 149 l 565 206 b 365 90 522 136 458 90 b 163 292 249 90 172 163 l 665 292 b 667 325 667 303 667 314 b 365 653 667 526 546 653 b 54 388 200 653 81 544 b 49 319 50 365 49 343 b 351 -14 49 126 178 -14 b 656 149 517 -14 592 51 z m 365 556 b 546 386 476 556 535 486 l 165 386 b 365 556 178 492 263 556 z "},"ė":{"ha":715,"x_min":0,"x_max":0,"o":"m 289 813 b 365 736 289 771 324 736 b 442 813 407 736 442 771 b 365 889 442 854 407 889 b 289 813 324 889 289 854 z m 656 149 l 565 206 b 365 90 522 136 458 90 b 163 292 249 90 172 163 l 665 292 b 667 325 667 303 667 314 b 365 653 667 526 546 653 b 54 388 200 653 81 544 b 49 319 50 365 49 343 b 351 -14 49 126 178 -14 b 656 149 517 -14 592 51 z m 365 556 b 546 386 476 556 535 486 l 165 386 b 365 556 178 492 263 556 z "},"ę":{"ha":715,"x_min":0,"x_max":0,"o":"m 415 -182 b 346 -210 396 -200 382 -210 b 279 -140 304 -210 279 -190 b 383 -12 279 -94 324 -44 b 656 149 526 -4 596 58 l 565 206 b 365 90 522 136 458 90 b 163 292 249 90 172 163 l 665 292 b 667 325 667 303 667 314 b 365 653 667 526 546 653 b 54 388 200 653 81 544 b 49 319 50 365 49 343 b 283 -7 49 153 146 25 b 168 -168 218 -51 168 -106 b 339 -307 168 -250 222 -307 b 461 -251 399 -307 440 -279 z m 365 556 b 546 386 476 556 535 486 l 165 386 b 365 556 178 492 263 556 z "},"ě":{"ha":715,"x_min":0,"x_max":0,"o":"m 365 854 l 213 986 l 143 931 l 365 736 l 588 931 l 518 986 z m 656 149 l 565 206 b 365 90 522 136 458 90 b 163 292 249 90 172 163 l 665 292 b 667 325 667 303 667 314 b 365 653 667 526 546 653 b 54 388 200 653 81 544 b 49 319 50 365 49 343 b 351 -14 49 126 178 -14 b 656 149 517 -14 592 51 z m 365 556 b 546 386 476 556 535 486 l 165 386 b 365 556 178 492 263 556 z "},"f":{"ha":397,"x_min":0,"x_max":0,"o":"m 56 639 l 56 535 l 118 535 l 118 0 l 229 0 l 229 535 l 375 535 l 375 639 l 229 639 l 229 861 b 296 986 229 953 254 986 b 364 950 318 986 344 982 l 425 1042 b 303 1097 404 1069 363 1097 b 118 875 186 1097 118 1026 l 118 639 z "},"g":{"ha":792,"x_min":0,"x_max":0,"o":"m 61 -42 b 378 -319 61 -207 190 -319 b 694 14 538 -319 694 -207 l 694 639 l 583 639 l 583 529 b 365 653 536 608 460 653 b 49 319 192 653 49 526 b 365 -14 49 113 192 -14 b 583 110 460 -14 536 31 l 583 14 b 378 -215 583 -147 475 -215 b 174 -42 253 -215 174 -133 z m 161 319 b 379 549 161 467 261 549 b 583 319 476 549 583 467 b 379 90 583 172 476 90 b 161 319 261 90 161 172 z "},"ĝ":{"ha":792,"x_min":0,"x_max":0,"o":"m 365 868 l 518 736 l 588 792 l 365 986 l 143 792 l 213 736 z m 61 -42 b 378 -319 61 -207 190 -319 b 694 14 538 -319 694 -207 l 694 639 l 583 639 l 583 529 b 365 653 536 608 460 653 b 49 319 192 653 49 526 b 365 -14 49 113 192 -14 b 583 110 460 -14 536 31 l 583 14 b 378 -215 583 -147 475 -215 b 174 -42 253 -215 174 -133 z m 161 319 b 379 549 161 467 261 549 b 583 319 476 549 583 467 b 379 90 583 172 476 90 b 161 319 261 90 161 172 z "},"ğ":{"ha":792,"x_min":0,"x_max":0,"o":"m 146 931 b 365 736 146 835 219 736 b 585 931 511 736 585 835 l 486 931 b 365 826 486 894 463 826 b 244 931 268 826 244 894 z m 61 -42 b 378 -319 61 -207 190 -319 b 694 14 538 -319 694 -207 l 694 639 l 583 639 l 583 529 b 365 653 536 608 460 653 b 49 319 192 653 49 526 b 365 -14 49 113 192 -14 b 583 110 460 -14 536 31 l 583 14 b 378 -215 583 -147 475 -215 b 174 -42 253 -215 174 -133 z m 161 319 b 379 549 161 467 261 549 b 583 319 476 549 583 467 b 379 90 583 172 476 90 b 161 319 261 90 161 172 z "},"ġ":{"ha":792,"x_min":0,"x_max":0,"o":"m 317 868 b 393 792 317 826 351 792 b 469 868 435 792 469 826 b 393 944 469 910 435 944 b 317 868 351 944 317 910 z m 61 -42 b 378 -319 61 -207 190 -319 b 694 14 538 -319 694 -207 l 694 639 l 583 639 l 583 529 b 365 653 536 608 460 653 b 49 319 192 653 49 526 b 365 -14 49 113 192 -14 b 583 110 460 -14 536 31 l 583 14 b 378 -215 583 -147 475 -215 b 174 -42 253 -215 174 -133 z m 161 319 b 379 549 161 467 261 549 b 583 319 476 549 583 467 b 379 90 583 172 476 90 b 161 319 261 90 161 172 z "},"ģ":{"ha":792,"x_min":0,"x_max":0,"o":"m 392 758 l 568 1094 l 493 1136 l 289 817 z m 61 -42 b 378 -319 61 -207 190 -319 b 694 14 538 -319 694 -207 l 694 639 l 583 639 l 583 529 b 365 653 536 608 460 653 b 49 319 192 653 49 526 b 365 -14 49 113 192 -14 b 583 110 460 -14 536 31 l 583 14 b 378 -215 583 -147 475 -215 b 174 -42 253 -215 174 -133 z m 161 319 b 379 549 161 467 261 549 b 583 319 476 549 583 467 b 379 90 583 172 476 90 b 161 319 261 90 161 172 z "},"h":{"ha":729,"x_min":0,"x_max":0,"o":"m 514 389 l 514 0 l 625 0 l 625 403 b 406 653 625 568 538 653 b 215 538 322 653 254 608 l 215 1083 l 104 1083 l 104 0 l 215 0 l 215 389 b 378 549 215 481 281 549 b 514 389 468 549 514 494 z "},"ĥ":{"ha":729,"x_min":0,"x_max":0,"o":"m 169 1299 l 322 1167 l 392 1222 l 169 1417 l -53 1222 l 17 1167 z m 514 389 l 514 0 l 625 0 l 625 403 b 406 653 625 568 538 653 b 215 553 328 653 260 614 l 215 1083 l 104 1083 l 104 0 l 215 0 l 215 389 b 378 549 215 481 281 549 b 514 389 468 549 514 494 z "},"i":{"ha":361,"x_min":0,"x_max":0,"o":"m 104 903 b 181 826 104 861 139 826 b 257 903 222 826 257 861 b 181 979 257 944 222 979 b 104 903 139 979 104 944 z m 125 639 l 125 0 l 236 0 l 236 639 z "},"ì":{"ha":361,"x_min":0,"x_max":0,"o":"m -42 972 l 208 764 l 271 806 l 63 1028 z m 125 639 l 125 0 l 236 0 l 236 639 z "},"í":{"ha":361,"x_min":0,"x_max":0,"o":"m 403 972 l 299 1028 l 90 806 l 153 764 z m 125 639 l 125 0 l 236 0 l 236 639 z "},"î":{"ha":361,"x_min":0,"x_max":0,"o":"m 181 882 l 333 750 l 403 806 l 181 1000 l -42 806 l 28 750 z m 125 639 l 125 0 l 236 0 l 236 639 z "},"ï":{"ha":361,"x_min":0,"x_max":0,"o":"m 243 854 b 319 778 243 813 278 778 b 396 854 361 778 396 813 b 319 931 396 896 361 931 b 243 854 278 931 243 896 z m -35 854 b 42 778 -35 813 0 778 b 118 854 83 778 118 813 b 42 931 118 896 83 931 b -35 854 0 931 -35 896 z m 125 639 l 125 0 l 236 0 l 236 639 z "},"ĩ":{"ha":361,"x_min":0,"x_max":0,"o":"m -49 788 l 25 736 b 94 807 25 757 38 807 b 263 742 157 807 186 742 b 410 843 332 742 388 792 l 346 903 b 268 836 318 858 294 836 b 96 901 193 836 186 901 b -49 788 33 901 -35 856 z m 125 639 l 125 0 l 236 0 l 236 639 z "},"ī":{"ha":361,"x_min":0,"x_max":0,"o":"m -62 736 l 424 736 l 424 840 l -62 840 z m 125 639 l 125 0 l 236 0 l 236 639 z "},"ĭ":{"ha":361,"x_min":0,"x_max":0,"o":"m -39 931 b 181 736 -39 835 35 736 b 400 931 326 736 400 835 l 301 931 b 181 826 301 894 278 826 b 60 931 83 826 60 894 z m 125 639 l 125 0 l 236 0 l 236 639 z "},"į":{"ha":361,"x_min":0,"x_max":0,"o":"m 104 903 b 181 826 104 861 139 826 b 257 903 222 826 257 861 b 181 979 257 944 222 979 b 104 903 139 979 104 944 z m 243 -181 b 174 -208 224 -199 210 -208 b 107 -139 132 -208 107 -189 b 236 0 107 -87 164 -31 l 236 639 l 125 639 l 125 4 b -4 -167 53 -43 -4 -100 b 167 -306 -4 -249 50 -306 b 289 -250 226 -306 268 -278 z "},"j":{"ha":347,"x_min":0,"x_max":0,"o":"m 86 903 b 161 828 86 861 119 828 b 236 903 203 828 236 861 b 161 978 236 944 203 978 b 86 903 119 978 86 944 z m -24 -158 l -85 -250 b 38 -306 -57 -287 -18 -306 b 222 -83 154 -306 222 -224 l 222 639 l 111 639 l 111 -69 b 44 -194 111 -158 92 -194 b -24 -158 15 -194 -10 -181 z "},"ĵ":{"ha":347,"x_min":0,"x_max":0,"o":"m 167 868 l 319 736 l 389 792 l 167 986 l -56 792 l 14 736 z m -24 -158 l -85 -250 b 38 -306 -64 -278 -22 -306 b 222 -83 154 -306 222 -235 l 222 639 l 111 639 l 111 -69 b 44 -194 111 -161 86 -194 b -24 -158 22 -194 -4 -190 z "},"k":{"ha":611,"x_min":0,"x_max":0,"o":"m 444 639 l 208 415 l 208 1083 l 97 1083 l 97 0 l 208 0 l 208 324 l 472 0 l 611 0 l 306 375 l 583 639 z "},"ķ":{"ha":611,"x_min":0,"x_max":0,"o":"m 444 639 l 208 415 l 208 1083 l 97 1083 l 97 0 l 208 0 l 208 324 l 472 0 l 611 0 l 306 375 l 583 639 z m 360 -83 l 238 -443 l 318 -472 l 471 -125 z "},"l":{"ha":319,"x_min":0,"x_max":0,"o":"m 104 1083 l 104 0 l 215 0 l 215 1083 z "},"ĺ":{"ha":319,"x_min":0,"x_max":0,"o":"m 340 1375 l 236 1431 l 28 1208 l 90 1167 z m 104 1083 l 104 0 l 215 0 l 215 1083 z "},"ļ":{"ha":319,"x_min":0,"x_max":0,"o":"m 104 1083 l 104 0 l 215 0 l 215 1083 z m 165 -83 l 43 -443 l 124 -472 l 276 -125 z "},"ľ":{"ha":319,"x_min":0,"x_max":0,"o":"m 104 1083 l 104 0 l 215 0 l 215 1083 z m 407 1083 l 285 724 l 365 694 l 518 1042 z "},"m":{"ha":1083,"x_min":0,"x_max":0,"o":"m 979 403 b 774 653 979 561 904 653 b 576 533 688 653 621 613 b 392 653 547 610 481 653 b 215 546 313 653 254 618 l 215 639 l 104 639 l 104 0 l 215 0 l 215 389 b 364 549 215 489 272 549 b 486 389 447 549 486 499 l 486 0 l 597 0 l 597 389 b 746 549 597 489 654 549 b 868 389 829 549 868 499 l 868 0 l 979 0 z "},"n":{"ha":729,"x_min":0,"x_max":0,"o":"m 514 389 l 514 0 l 625 0 l 625 403 b 406 653 625 557 540 653 b 215 539 322 653 258 617 l 215 639 l 104 639 l 104 0 l 215 0 l 215 389 b 378 549 215 483 281 549 b 514 389 467 549 514 494 z "},"ñ":{"ha":729,"x_min":0,"x_max":0,"o":"m 136 788 l 210 736 b 279 807 210 757 222 807 b 447 742 342 807 371 742 b 594 843 517 742 572 792 l 531 903 b 453 836 503 858 479 836 b 281 901 378 836 371 901 b 136 788 218 901 150 856 z m 514 389 l 514 0 l 625 0 l 625 403 b 406 653 625 568 538 653 b 215 553 328 653 260 614 l 215 639 l 104 639 l 104 0 l 215 0 l 215 389 b 378 549 215 481 281 549 b 514 389 468 549 514 494 z "},"ń":{"ha":729,"x_min":0,"x_max":0,"o":"m 558 944 l 456 1000 l 247 778 l 308 736 z m 514 389 l 514 0 l 625 0 l 625 403 b 406 653 625 568 538 653 b 215 538 322 653 254 608 l 215 639 l 104 639 l 104 0 l 215 0 l 215 389 b 378 549 215 481 281 549 b 514 389 468 549 514 494 z "},"ņ":{"ha":729,"x_min":0,"x_max":0,"o":"m 514 389 l 514 0 l 625 0 l 625 403 b 406 653 625 568 538 653 b 215 553 328 653 260 614 l 215 639 l 104 639 l 104 0 l 215 0 l 215 389 b 378 549 215 481 281 549 b 514 389 468 549 514 494 z m 369 -83 l 247 -443 l 328 -472 l 481 -125 z "},"ň":{"ha":729,"x_min":0,"x_max":0,"o":"m 364 854 l 211 986 l 142 931 l 364 736 l 586 931 l 517 986 z m 514 389 l 514 0 l 625 0 l 625 403 b 406 653 625 568 538 653 b 215 553 328 653 260 614 l 215 639 l 104 639 l 104 0 l 215 0 l 215 389 b 378 549 215 481 281 549 b 514 389 468 549 514 494 z "},"o":{"ha":758,"x_min":0,"x_max":0,"o":"m 49 319 b 379 -14 49 126 192 -14 b 710 319 567 -14 710 126 b 379 653 710 513 567 653 b 49 319 192 653 49 513 z m 161 319 b 379 549 161 453 254 549 b 597 319 504 549 597 453 b 379 90 597 186 504 90 b 161 319 254 90 161 186 z "},"ò":{"ha":758,"x_min":0,"x_max":0,"o":"m 157 972 l 407 764 l 469 806 l 261 1028 z m 49 319 b 379 -14 49 126 192 -14 b 710 319 567 -14 710 126 b 379 653 710 513 567 653 b 49 319 192 653 49 513 z m 161 319 b 379 549 161 453 254 549 b 597 319 504 549 597 453 b 379 90 597 186 504 90 b 161 319 254 90 161 186 z "},"ó":{"ha":758,"x_min":0,"x_max":0,"o":"m 601 972 l 497 1028 l 289 806 l 351 764 z m 49 319 b 379 -14 49 126 192 -14 b 710 319 567 -14 710 126 b 379 653 710 513 567 653 b 49 319 192 653 49 513 z m 161 319 b 379 549 161 453 254 549 b 597 319 504 549 597 453 b 379 90 597 186 504 90 b 161 319 254 90 161 186 z "},"ô":{"ha":758,"x_min":0,"x_max":0,"o":"m 379 896 l 532 764 l 601 819 l 379 1014 l 157 819 l 226 764 z m 49 319 b 379 -14 49 126 192 -14 b 710 319 567 -14 710 126 b 379 653 710 513 567 653 b 49 319 192 653 49 513 z m 161 319 b 379 549 161 453 254 549 b 597 319 504 549 597 453 b 379 90 597 186 504 90 b 161 319 254 90 161 186 z "},"õ":{"ha":758,"x_min":0,"x_max":0,"o":"m 150 788 l 224 736 b 293 807 224 757 236 807 b 461 742 356 807 385 742 b 608 843 531 742 586 792 l 544 903 b 467 836 517 858 493 836 b 294 901 392 836 385 901 b 150 788 232 901 164 856 z m 49 319 b 379 -14 49 126 192 -14 b 710 319 567 -14 710 126 b 379 653 710 513 567 653 b 49 319 192 653 49 513 z m 161 319 b 379 549 161 453 254 549 b 597 319 504 549 597 453 b 379 90 597 186 504 90 b 161 319 254 90 161 186 z "},"ö":{"ha":758,"x_min":0,"x_max":0,"o":"m 442 854 b 518 778 442 813 476 778 b 594 854 560 778 594 813 b 518 931 594 896 560 931 b 442 854 476 931 442 896 z m 164 854 b 240 778 164 813 199 778 b 317 854 282 778 317 813 b 240 931 317 896 282 931 b 164 854 199 931 164 896 z m 49 319 b 379 -14 49 126 192 -14 b 710 319 567 -14 710 126 b 379 653 710 513 567 653 b 49 319 192 653 49 513 z m 161 319 b 379 549 161 453 254 549 b 597 319 504 549 597 453 b 379 90 597 186 504 90 b 161 319 254 90 161 186 z "},"ō":{"ha":758,"x_min":0,"x_max":0,"o":"m 136 736 l 622 736 l 622 840 l 136 840 z m 49 319 b 379 -14 49 126 192 -14 b 710 319 567 -14 710 126 b 379 653 710 513 567 653 b 49 319 192 653 49 513 z m 161 319 b 379 549 161 453 254 549 b 597 319 504 549 597 453 b 379 90 597 186 504 90 b 161 319 254 90 161 186 z "},"ŏ":{"ha":758,"x_min":0,"x_max":0,"o":"m 160 931 b 379 736 160 835 233 736 b 599 931 525 736 599 835 l 500 931 b 379 826 500 894 476 826 b 258 931 282 826 258 894 z m 49 319 b 379 -14 49 126 192 -14 b 710 319 567 -14 710 126 b 379 653 710 513 567 653 b 49 319 192 653 49 513 z m 161 319 b 379 549 161 453 254 549 b 597 319 504 549 597 453 b 379 90 597 186 504 90 b 161 319 254 90 161 186 z "},"ő":{"ha":758,"x_min":0,"x_max":0,"o":"m 265 736 l 451 1001 l 338 1029 l 193 760 z m 493 736 l 682 1001 l 565 1029 l 422 760 z m 49 319 b 379 -14 49 126 192 -14 b 710 319 567 -14 710 126 b 379 653 710 513 567 653 b 49 319 192 653 49 513 z m 161 319 b 379 549 161 453 254 549 b 597 319 504 549 597 453 b 379 90 597 186 504 90 b 161 319 254 90 161 186 z "},"p":{"ha":792,"x_min":0,"x_max":0,"o":"m 208 -306 l 208 110 b 426 -14 256 31 332 -14 b 743 319 600 -14 743 113 b 426 653 743 526 600 653 b 208 529 332 653 256 608 l 208 639 l 97 639 l 97 -306 z m 631 319 b 413 90 631 172 531 90 b 208 319 315 90 208 172 b 413 549 208 467 315 549 b 631 319 531 549 631 467 z "},"q":{"ha":792,"x_min":0,"x_max":0,"o":"m 49 319 b 365 -14 49 113 192 -14 b 583 110 460 -14 536 31 l 583 -306 l 694 -306 l 694 639 l 583 639 l 583 529 b 365 653 536 608 460 653 b 49 319 192 653 49 526 z m 161 319 b 379 549 161 467 261 549 b 583 319 476 549 583 467 b 379 90 583 172 476 90 b 161 319 261 90 161 172 z "},"r":{"ha":476,"x_min":0,"x_max":0,"o":"m 408 517 l 469 608 b 350 653 436 643 396 653 b 215 565 301 653 251 619 l 215 639 l 104 639 l 104 0 l 215 0 l 215 389 b 322 549 215 481 239 549 b 408 517 358 549 378 539 z "},"ŕ":{"ha":476,"x_min":0,"x_max":0,"o":"m 467 944 l 364 1000 l 156 778 l 217 736 z m 408 517 l 469 608 b 350 653 436 643 396 653 b 215 565 301 653 251 619 l 215 639 l 104 639 l 104 0 l 215 0 l 215 389 b 322 549 215 481 239 549 b 408 517 358 549 378 539 z "},"ŗ":{"ha":476,"x_min":0,"x_max":0,"o":"m 408 517 l 469 608 b 350 653 436 643 396 653 b 215 565 301 653 251 619 l 215 639 l 104 639 l 104 0 l 215 0 l 215 389 b 322 549 215 481 239 549 b 408 517 358 549 378 539 z m 165 -83 l 43 -443 l 124 -472 l 276 -125 z "},"ř":{"ha":476,"x_min":0,"x_max":0,"o":"m 286 854 l 133 986 l 64 931 l 286 736 l 508 931 l 439 986 z m 408 517 l 469 608 b 350 653 436 643 396 653 b 215 565 301 653 251 619 l 215 639 l 104 639 l 104 0 l 215 0 l 215 389 b 322 549 215 481 239 549 b 408 517 358 549 378 539 z "},"ȓ":{"ha":476,"x_min":0,"x_max":0,"o":"m 68 736 l 167 736 b 288 840 167 772 190 840 b 408 736 385 840 408 772 l 507 736 b 288 931 507 832 433 931 b 68 736 142 931 68 832 z m 408 517 l 469 608 b 350 653 436 643 396 653 b 215 565 301 653 251 619 l 215 639 l 104 639 l 104 0 l 215 0 l 215 389 b 322 549 215 481 239 549 b 408 517 358 549 378 539 z "},"s":{"ha":560,"x_min":0,"x_max":0,"o":"m 131 196 l 43 142 b 299 -14 78 65 171 -14 b 518 181 429 -14 518 69 b 317 383 518 294 428 338 b 183 492 249 411 183 440 b 268 554 183 535 222 554 b 424 471 335 554 389 518 l 513 528 b 282 653 474 599 383 653 b 75 485 178 653 75 599 b 258 293 75 372 174 325 b 406 168 332 265 406 235 b 304 88 406 118 367 88 b 131 196 225 88 169 136 z "},"ś":{"ha":560,"x_min":0,"x_max":0,"o":"m 532 944 l 428 1000 l 219 778 l 282 736 z m 126 224 l 35 171 b 285 -14 54 67 167 -14 b 518 181 422 -14 518 43 b 342 369 518 274 432 332 b 186 478 271 399 186 428 b 283 547 186 528 228 547 b 424 471 335 547 393 514 l 513 528 b 282 653 488 599 383 653 b 75 485 179 653 75 590 b 258 299 75 378 171 333 b 403 171 332 269 403 240 b 292 90 403 115 361 90 b 126 224 213 90 143 146 z "},"ŝ":{"ha":560,"x_min":0,"x_max":0,"o":"m 282 868 l 435 736 l 504 792 l 282 986 l 60 792 l 129 736 z m 126 224 l 35 171 b 285 -14 54 67 167 -14 b 518 181 422 -14 518 43 b 342 369 518 274 432 332 b 186 478 271 399 186 428 b 283 547 186 528 228 547 b 424 471 335 547 393 514 l 513 528 b 282 653 488 599 383 653 b 75 485 179 653 75 590 b 258 299 75 378 171 333 b 403 171 332 269 403 240 b 292 90 403 115 361 90 b 126 224 213 90 143 146 z "},"ş":{"ha":560,"x_min":0,"x_max":0,"o":"m 122 226 l 35 172 b 264 -10 78 78 161 4 l 194 -150 b 272 -125 224 -131 258 -125 b 342 -175 319 -125 342 -142 b 272 -231 342 -208 319 -231 b 194 -197 236 -231 221 -219 l 150 -253 b 272 -306 189 -292 221 -306 b 422 -175 349 -306 422 -260 b 319 -72 422 -107 365 -72 l 308 -72 l 344 -10 b 518 182 444 3 518 63 b 342 376 518 289 432 339 b 183 486 271 406 183 425 b 283 553 183 536 228 553 b 424 472 335 553 393 515 l 513 529 b 282 654 474 600 383 654 b 75 482 179 654 75 601 b 258 294 75 361 171 329 b 403 169 332 265 403 236 b 299 92 403 115 358 92 b 122 226 238 92 167 149 z "},"š":{"ha":560,"x_min":0,"x_max":0,"o":"m 282 854 l 129 986 l 60 931 l 282 736 l 504 931 l 435 986 z m 126 224 l 35 171 b 285 -14 54 67 167 -14 b 518 181 422 -14 518 43 b 342 369 518 274 432 332 b 186 478 271 399 186 428 b 283 547 186 528 228 547 b 424 471 335 547 393 514 l 513 528 b 282 653 488 599 383 653 b 75 485 179 653 75 590 b 258 299 75 378 171 333 b 403 171 332 269 403 240 b 292 90 403 115 361 90 b 126 224 213 90 143 146 z "},"ș":{"ha":560,"x_min":0,"x_max":0,"o":"m 126 224 l 35 171 b 285 -14 54 67 167 -14 b 518 181 422 -14 518 43 b 342 369 518 274 432 332 b 186 478 271 399 186 428 b 283 547 186 528 228 547 b 424 471 335 547 393 514 l 513 528 b 282 653 488 599 383 653 b 75 485 179 653 75 590 b 258 299 75 378 171 333 b 403 171 332 269 403 240 b 292 90 403 115 361 90 b 126 224 213 90 143 146 z m 290 -97 l 168 -457 l 249 -486 l 401 -139 z "},"t":{"ha":333,"x_min":0,"x_max":0,"o":"m 7 639 l 7 535 l 111 535 l 111 0 l 222 0 l 222 535 l 326 535 l 326 639 l 222 639 l 222 861 l 111 861 l 111 639 z "},"ţ":{"ha":333,"x_min":0,"x_max":0,"o":"m 7 639 l 7 535 l 111 535 l 111 0 l 118 0 l 7 -221 b 86 -196 36 -201 72 -196 b 156 -246 133 -196 156 -212 b 86 -301 156 -279 133 -301 b 8 -268 50 -301 35 -290 l -37 -324 b 86 -376 1 -362 35 -376 b 235 -246 163 -376 235 -331 b 133 -143 235 -178 179 -143 l 121 -143 l 201 0 l 222 0 l 222 535 l 326 535 l 326 639 l 222 639 l 222 861 l 111 861 l 111 639 z "},"ť":{"ha":486,"x_min":0,"x_max":0,"o":"m 410 1125 l 288 765 l 368 736 l 521 1083 z m 7 639 l 7 535 l 111 535 l 111 0 l 222 0 l 222 535 l 326 535 l 326 639 l 222 639 l 222 861 l 111 861 l 111 639 z "},"ț":{"ha":333,"x_min":0,"x_max":0,"o":"m 7 639 l 7 535 l 111 535 l 111 0 l 222 0 l 222 535 l 326 535 l 326 639 l 222 639 l 222 861 l 111 861 l 111 639 z m 172 -83 l 50 -443 l 131 -472 l 283 -125 z "},"u":{"ha":729,"x_min":0,"x_max":0,"o":"m 215 250 l 215 639 l 104 639 l 104 236 b 324 -14 104 83 190 -14 b 514 100 408 -14 471 24 l 514 0 l 625 0 l 625 639 l 514 639 l 514 250 b 351 90 514 156 449 90 b 215 250 263 90 215 147 z "},"ù":{"ha":729,"x_min":0,"x_max":0,"o":"m 197 972 l 447 764 l 511 806 l 303 1028 z m 215 250 l 215 639 l 104 639 l 104 236 b 324 -14 104 71 192 -14 b 514 86 401 -14 469 25 l 514 0 l 625 0 l 625 639 l 514 639 l 514 250 b 351 90 514 158 449 90 b 215 250 261 90 215 144 z "},"ú":{"ha":729,"x_min":0,"x_max":0,"o":"m 531 972 l 428 1028 l 219 806 l 281 764 z m 215 250 l 215 639 l 104 639 l 104 236 b 324 -14 104 71 192 -14 b 514 86 401 -14 469 25 l 514 0 l 625 0 l 625 639 l 514 639 l 514 250 b 351 90 514 158 449 90 b 215 250 261 90 215 144 z "},"û":{"ha":729,"x_min":0,"x_max":0,"o":"m 364 896 l 517 764 l 586 819 l 364 1014 l 142 819 l 211 764 z m 215 250 l 215 639 l 104 639 l 104 236 b 324 -14 104 71 192 -14 b 514 86 401 -14 469 25 l 514 0 l 625 0 l 625 639 l 514 639 l 514 250 b 351 90 514 158 449 90 b 215 250 261 90 215 144 z "},"ü":{"ha":729,"x_min":0,"x_max":0,"o":"m 428 840 b 503 764 428 799 461 764 b 581 840 544 764 581 799 b 503 917 581 882 544 917 b 428 840 461 917 428 882 z m 150 840 b 225 764 150 799 183 764 b 303 840 267 764 303 799 b 225 917 303 882 267 917 b 150 840 183 917 150 882 z m 215 250 l 215 639 l 104 639 l 104 236 b 324 -14 104 71 192 -14 b 514 86 401 -14 469 25 l 514 0 l 625 0 l 625 639 l 514 639 l 514 250 b 351 90 514 158 449 90 b 215 250 261 90 215 144 z "},"ũ":{"ha":729,"x_min":0,"x_max":0,"o":"m 136 788 l 210 736 b 279 807 210 757 222 807 b 447 742 342 807 371 742 b 594 843 517 742 572 792 l 531 903 b 453 836 503 858 479 836 b 281 901 378 836 371 901 b 136 788 218 901 150 856 z m 215 250 l 215 639 l 104 639 l 104 236 b 324 -14 104 71 192 -14 b 514 101 407 -14 475 31 l 514 0 l 625 0 l 625 639 l 514 639 l 514 250 b 351 90 514 158 449 90 b 215 250 261 90 215 144 z "},"ū":{"ha":729,"x_min":0,"x_max":0,"o":"m 122 736 l 608 736 l 608 840 l 122 840 z m 215 250 l 215 639 l 104 639 l 104 236 b 324 -14 104 71 192 -14 b 514 101 407 -14 475 31 l 514 0 l 625 0 l 625 639 l 514 639 l 514 250 b 351 90 514 158 449 90 b 215 250 261 90 215 144 z "},"ŭ":{"ha":729,"x_min":0,"x_max":0,"o":"m 146 931 b 365 736 146 835 219 736 b 585 931 511 736 585 835 l 486 931 b 365 826 486 894 463 826 b 244 931 268 826 244 894 z m 215 250 l 215 639 l 104 639 l 104 236 b 324 -14 104 71 192 -14 b 514 101 407 -14 475 31 l 514 0 l 625 0 l 625 639 l 514 639 l 514 250 b 351 90 514 158 449 90 b 215 250 261 90 215 144 z "},"ů":{"ha":729,"x_min":0,"x_max":0,"o":"m 224 875 b 365 736 224 792 293 736 b 507 875 438 736 507 792 b 365 1014 507 958 438 1014 b 224 875 293 1014 224 958 z m 294 875 b 365 949 294 921 331 949 b 436 875 400 949 436 921 b 365 801 436 829 400 801 b 294 875 331 801 294 829 z m 215 250 l 215 639 l 104 639 l 104 236 b 324 -14 104 71 192 -14 b 514 101 407 -14 475 31 l 514 0 l 625 0 l 625 639 l 514 639 l 514 250 b 351 90 514 158 449 90 b 215 250 261 90 215 144 z "},"ű":{"ha":729,"x_min":0,"x_max":0,"o":"m 251 736 l 438 1001 l 324 1029 l 179 760 z m 479 736 l 668 1001 l 551 1029 l 408 760 z m 215 250 l 215 639 l 104 639 l 104 236 b 324 -14 104 83 190 -14 b 514 100 408 -14 471 24 l 514 0 l 625 0 l 625 639 l 514 639 l 514 250 b 351 90 514 156 449 90 b 215 250 263 90 215 147 z "},"ų":{"ha":729,"x_min":0,"x_max":0,"o":"m 215 250 l 215 639 l 104 639 l 104 236 b 251 -3 104 113 160 26 b 140 -162 188 -47 140 -101 b 311 -301 140 -244 194 -301 b 433 -246 371 -301 413 -274 l 388 -176 b 318 -204 368 -194 354 -204 b 251 -135 276 -204 251 -185 b 346 -12 251 -92 290 -44 b 514 100 419 -7 475 31 l 514 0 l 625 0 l 625 639 l 514 639 l 514 250 b 351 90 514 156 449 90 b 215 250 263 90 215 147 z "},"v":{"ha":611,"x_min":0,"x_max":0,"o":"m 0 639 l 306 -49 l 611 639 l 486 639 l 306 188 l 125 639 z "},"w":{"ha":944,"x_min":0,"x_max":0,"o":"m 7 639 l 285 -49 l 467 417 l 660 -49 l 938 639 l 813 639 l 651 221 l 465 688 l 292 224 l 132 639 z "},"ŵ":{"ha":944,"x_min":0,"x_max":0,"o":"m 465 903 l 618 771 l 688 826 l 465 1021 l 243 826 l 313 771 z m 7 639 l 285 -49 l 467 417 l 660 -49 l 938 639 l 813 639 l 651 221 l 465 688 l 292 224 l 132 639 z "},"ẁ":{"ha":944,"x_min":0,"x_max":0,"o":"m 465 771 l 528 813 l 319 1035 l 215 979 z m 7 639 l 285 -49 l 467 417 l 660 -49 l 938 639 l 813 639 l 651 221 l 465 688 l 292 224 l 132 639 z "},"ẃ":{"ha":944,"x_min":0,"x_max":0,"o":"m 465 771 l 715 979 l 611 1035 l 403 813 z m 7 639 l 285 -49 l 467 417 l 660 -49 l 938 639 l 813 639 l 651 221 l 465 688 l 292 224 l 132 639 z "},"ẅ":{"ha":944,"x_min":0,"x_max":0,"o":"m 528 847 b 604 771 528 806 563 771 b 681 847 646 771 681 806 b 604 924 681 889 646 924 b 528 847 563 924 528 889 z m 250 847 b 326 771 250 806 285 771 b 403 847 368 771 403 806 b 326 924 403 889 368 924 b 250 847 285 924 250 889 z m 7 639 l 285 -49 l 467 417 l 660 -49 l 938 639 l 813 639 l 651 221 l 465 688 l 292 224 l 132 639 z "},"ẇ":{"ha":944,"x_min":0,"x_max":0,"o":"m 389 847 b 465 771 389 806 424 771 b 542 847 507 771 542 806 b 465 924 542 889 507 924 b 389 847 424 924 389 889 z m 7 639 l 285 -49 l 467 417 l 660 -49 l 938 639 l 813 639 l 651 221 l 465 688 l 292 224 l 132 639 z "},"ẉ":{"ha":944,"x_min":0,"x_max":0,"o":"m 7 639 l 285 -49 l 467 417 l 660 -49 l 938 639 l 813 639 l 651 221 l 465 688 l 292 224 l 132 639 z m 396 -208 b 472 -285 396 -250 431 -285 b 549 -208 514 -285 549 -250 b 472 -132 549 -167 514 -132 b 396 -208 431 -132 396 -167 z "},"x":{"ha":583,"x_min":0,"x_max":0,"o":"m 444 639 l 292 417 l 139 639 l 14 639 l 232 329 l 0 0 l 125 0 l 292 242 l 458 0 l 583 0 l 351 329 l 569 639 z "},"y":{"ha":611,"x_min":0,"x_max":0,"o":"m 611 639 l 486 639 l 311 199 l 132 639 l 0 639 l 244 90 l 69 -306 l 194 -306 z "},"ý":{"ha":611,"x_min":0,"x_max":0,"o":"m 486 972 l 382 1028 l 174 806 l 236 764 z m 611 639 l 486 639 l 311 199 l 132 639 l 0 639 l 244 90 l 69 -306 l 194 -306 z "},"ÿ":{"ha":611,"x_min":0,"x_max":0,"o":"m 368 813 b 444 736 368 771 403 736 b 521 813 486 736 521 771 b 444 889 521 854 486 889 b 368 813 403 889 368 854 z m 90 813 b 167 736 90 771 125 736 b 243 813 208 736 243 771 b 167 889 243 854 208 889 b 90 813 125 889 90 854 z m 611 639 l 486 639 l 311 199 l 132 639 l 0 639 l 244 90 l 69 -306 l 194 -306 z "},"ŷ":{"ha":611,"x_min":0,"x_max":0,"o":"m 306 868 l 458 736 l 528 792 l 306 986 l 83 792 l 153 736 z m 611 639 l 486 639 l 311 199 l 132 639 l 0 639 l 244 90 l 69 -306 l 194 -306 z "},"ỳ":{"ha":611,"x_min":0,"x_max":0,"o":"m 306 736 l 368 778 l 160 1000 l 56 944 z m 611 639 l 486 639 l 311 199 l 132 639 l 0 639 l 244 90 l 69 -306 l 194 -306 z "},"z":{"ha":639,"x_min":0,"x_max":0,"o":"m 417 535 l 21 0 l 590 0 l 590 104 l 222 104 l 618 639 l 63 639 l 63 535 z "},"ź":{"ha":639,"x_min":0,"x_max":0,"o":"m 563 972 l 458 1028 l 250 806 l 313 764 z m 417 535 l 21 0 l 590 0 l 590 104 l 222 104 l 618 639 l 63 639 l 63 535 z "},"ż":{"ha":639,"x_min":0,"x_max":0,"o":"m 264 854 b 340 778 264 813 299 778 b 417 854 382 778 417 813 b 340 931 417 896 382 931 b 264 854 299 931 264 896 z m 417 535 l 21 0 l 590 0 l 590 104 l 222 104 l 618 639 l 63 639 l 63 535 z "},"ž":{"ha":639,"x_min":0,"x_max":0,"o":"m 340 854 l 188 986 l 118 931 l 340 736 l 563 931 l 493 986 z m 417 535 l 21 0 l 590 0 l 590 104 l 222 104 l 618 639 l 63 639 l 63 535 z "},"ß":{"ha":785,"x_min":0,"x_max":0,"o":"m 475 -17 b 744 253 626 -17 744 103 b 514 558 744 453 514 461 b 667 892 514 675 667 703 b 411 1103 667 1039 561 1103 b 100 844 222 1103 100 994 l 100 -3 l 213 -3 l 211 817 b 393 1001 211 947 288 1001 b 550 882 475 1001 550 972 b 392 558 550 738 392 689 b 628 238 392 400 628 393 b 483 89 628 157 567 89 b 339 161 429 89 381 118 l 271 78 b 475 -17 321 22 389 -17 z "},"æ":{"ha":1146,"x_min":0,"x_max":0,"o":"m 289 -14 b 538 133 418 -14 513 42 b 782 -14 590 31 664 -14 b 1086 149 913 -14 1017 42 l 996 206 b 796 90 949 128 882 90 b 593 292 676 90 601 165 l 1094 292 b 1097 325 1096 297 1097 310 b 810 653 1097 518 979 653 b 558 514 703 653 611 601 b 344 653 539 604 463 653 b 100 574 256 653 169 625 l 154 489 b 344 556 210 531 282 556 b 479 417 431 556 479 506 l 479 354 b 314 397 418 386 372 397 b 42 174 153 397 42 307 b 289 -14 42 60 138 -14 z m 793 556 b 978 386 900 556 971 490 l 596 386 b 793 556 615 490 688 556 z m 289 85 b 154 188 196 85 154 117 b 319 313 154 269 211 313 b 481 275 379 313 433 299 l 483 225 b 289 85 460 129 399 85 z "},"ð":{"ha":800,"x_min":0,"x_max":0,"o":"m 400 -14 b 731 319 593 -14 731 125 b 504 793 731 457 661 606 l 644 847 l 619 913 l 456 850 b 307 1007 413 900 363 951 l 240 929 b 360 814 285 889 325 851 l 231 764 l 256 699 l 411 758 b 531 590 460 701 500 646 b 357 635 471 619 413 635 b 69 319 190 635 69 501 b 400 -14 69 125 207 -14 z m 400 93 b 182 319 272 93 182 189 b 400 549 182 451 275 549 b 618 319 525 549 618 451 b 400 93 618 189 528 93 z "},"ø":{"ha":758,"x_min":0,"x_max":0,"o":"m 49 319 b 150 75 49 219 88 133 l 69 -33 l 132 -61 l 203 33 b 379 -14 253 3 314 -14 b 710 319 567 -14 710 126 b 601 571 710 422 669 511 l 674 667 l 611 694 l 547 610 b 379 653 499 638 442 653 b 49 319 192 653 49 513 z m 161 319 b 379 549 161 453 254 549 b 483 524 418 549 453 539 l 215 164 b 161 319 182 203 161 257 z m 597 319 b 379 90 597 186 504 90 b 267 121 338 90 299 101 l 536 482 b 597 319 575 442 597 385 z "},"þ":{"ha":792,"x_min":0,"x_max":0,"o":"m 208 -306 l 208 110 b 426 -14 256 31 332 -14 b 743 319 600 -14 743 113 b 426 653 743 526 600 653 b 208 529 332 653 256 608 l 208 1083 l 97 1083 l 97 -306 z m 631 319 b 413 90 631 172 531 90 b 208 319 315 90 208 172 b 413 549 208 467 315 549 b 631 319 531 549 631 467 z "},"đ":{"ha":792,"x_min":0,"x_max":0,"o":"m 49 319 b 365 -14 49 113 192 -14 b 583 110 460 -14 536 31 l 583 0 l 694 0 l 694 819 l 826 819 l 826 924 l 694 924 l 694 1083 l 583 1083 l 583 924 l 410 924 l 410 819 l 583 819 l 583 529 b 365 653 536 608 460 653 b 49 319 192 653 49 526 z m 161 319 b 379 549 161 467 261 549 b 583 319 476 549 583 467 b 379 90 583 172 476 90 b 161 319 261 90 161 172 z "},"ħ":{"ha":729,"x_min":0,"x_max":0,"o":"m 514 389 l 514 0 l 625 0 l 625 403 b 406 653 625 568 538 653 b 215 538 322 653 254 608 l 215 868 l 440 868 l 440 972 l 215 972 l 215 1083 l 104 1083 l 104 972 l 7 972 l 7 868 l 104 868 l 104 0 l 215 0 l 215 389 b 378 549 215 481 281 549 b 514 389 468 549 514 494 z "},"ı":{"ha":361,"x_min":0,"x_max":0,"o":"m 125 639 l 125 0 l 236 0 l 236 639 z "},"ĳ":{"ha":708,"x_min":0,"x_max":0,"o":"m 451 903 b 528 826 451 861 486 826 b 604 903 569 826 604 861 b 528 979 604 944 569 979 b 451 903 486 979 451 944 z m 104 903 b 181 826 104 861 139 826 b 257 903 222 826 257 861 b 181 979 257 944 222 979 b 104 903 139 979 104 944 z m 338 -158 l 276 -250 b 399 -306 297 -278 339 -306 b 583 -83 515 -306 583 -235 l 583 639 l 472 639 l 472 -69 b 406 -194 472 -161 447 -194 b 338 -158 383 -194 357 -190 z m 125 639 l 125 0 l 236 0 l 236 639 z "},"ĸ":{"ha":611,"x_min":0,"x_max":0,"o":"m 97 639 l 97 0 l 208 0 l 208 324 l 472 0 l 611 0 l 306 375 l 583 639 l 444 639 l 208 415 l 208 639 z "},"ŀ":{"ha":514,"x_min":0,"x_max":0,"o":"m 104 1083 l 104 0 l 215 0 l 215 1083 z m 299 576 b 375 500 299 535 333 500 b 451 576 417 500 451 535 b 375 653 451 618 417 653 b 299 576 333 653 299 618 z "},"ł":{"ha":319,"x_min":0,"x_max":0,"o":"m 7 472 l 104 531 l 104 0 l 215 0 l 215 597 l 354 681 l 326 757 l 215 690 l 215 1083 l 104 1083 l 104 624 l -21 549 z "},"ŉ":{"ha":882,"x_min":0,"x_max":0,"o":"m 181 972 l 97 653 l 174 653 l 313 972 z m 368 639 l 257 639 l 257 0 l 368 0 l 368 389 b 531 549 368 481 433 549 b 667 389 621 549 667 494 l 667 0 l 778 0 l 778 403 b 558 653 778 568 690 653 b 368 553 481 653 413 614 z "},"ŋ":{"ha":729,"x_min":0,"x_max":0,"o":"m 440 -306 b 625 -83 563 -306 625 -229 l 625 403 b 406 653 625 561 544 653 b 215 539 325 653 257 611 l 215 639 l 104 639 l 104 0 l 215 0 l 215 389 b 378 549 215 483 283 549 b 514 389 468 549 514 494 l 514 -69 b 447 -194 514 -154 492 -194 b 379 -158 417 -194 394 -183 l 318 -250 b 440 -306 343 -285 390 -306 z "},"œ":{"ha":1250,"x_min":0,"x_max":0,"o":"m 49 319 b 365 -14 49 113 192 -14 b 625 172 493 -14 585 54 b 900 -14 672 60 775 -14 b 1190 149 1038 -14 1126 51 l 1100 206 b 900 90 1057 136 993 90 b 697 292 783 90 707 163 l 1200 292 b 1201 325 1201 303 1201 314 b 914 653 1201 526 1067 653 b 625 465 778 653 672 579 b 365 653 585 585 493 653 b 49 319 192 653 49 526 z m 900 556 b 1081 386 1011 556 1069 486 l 700 386 b 900 556 713 492 797 556 z m 161 319 b 379 549 161 467 261 549 b 569 319 476 549 569 467 b 379 90 569 172 476 90 b 161 319 261 90 161 172 z "},"ŧ":{"ha":333,"x_min":0,"x_max":0,"o":"m 28 285 l 111 285 l 111 0 l 222 0 l 222 285 l 306 285 l 306 389 l 222 389 l 222 535 l 326 535 l 326 639 l 222 639 l 222 861 l 111 861 l 111 639 l 7 639 l 7 535 l 111 535 l 111 389 l 28 389 z "},"ȷ":{"ha":347,"x_min":0,"x_max":0,"o":"m -24 -158 l -85 -250 b 38 -306 -64 -278 -22 -306 b 222 -83 154 -306 222 -235 l 222 639 l 111 639 l 111 -69 b 44 -194 111 -161 86 -194 b -24 -158 22 -194 -4 -190 z "},"μ":{"ha":729,"x_min":0,"x_max":0,"o":"m 215 639 l 104 639 l 104 -444 l 215 -444 l 215 11 b 324 -14 246 -6 282 -14 b 514 86 401 -14 469 24 l 514 0 l 625 0 l 625 639 l 514 639 l 514 250 b 351 90 514 158 449 90 b 215 250 261 90 215 144 z "},"π":{"ha":750,"x_min":0,"x_max":0,"o":"m 42 639 l 42 535 l 125 535 l 125 0 l 236 0 l 236 535 l 472 535 l 472 168 b 657 -12 472 17 540 -12 l 657 99 b 583 196 615 99 583 104 l 583 535 l 694 535 l 694 639 z "},"а":{"ha":674,"x_min":0,"x_max":0,"o":"m 154 489 b 344 556 185 511 253 556 b 479 458 414 556 479 522 l 479 351 b 314 397 443 375 389 397 b 42 183 146 397 42 318 b 261 -14 42 53 140 -14 b 479 92 357 -14 440 24 l 479 0 l 590 0 l 590 458 b 344 653 590 582 490 653 b 100 574 229 653 147 608 z m 154 188 b 319 313 154 265 207 313 b 479 275 381 313 431 300 l 479 250 b 289 85 479 131 400 85 b 154 188 214 85 154 119 z "},"б":{"ha":758,"x_min":0,"x_max":0,"o":"m 49 403 b 379 -14 49 126 192 -14 b 710 319 567 -14 710 126 b 379 653 710 513 567 653 b 147 503 275 653 192 599 b 364 821 153 633 203 769 b 643 1083 515 869 629 960 l 533 1083 b 336 911 519 1017 463 954 b 49 403 113 835 49 663 z m 160 319 b 379 549 160 467 282 549 b 597 319 504 549 597 453 b 379 90 597 186 504 90 b 160 319 254 90 160 186 z "},"в":{"ha":629,"x_min":0,"x_max":0,"o":"m 104 639 l 104 0 l 382 0 b 588 174 528 0 588 78 b 454 324 588 264 533 307 b 560 465 517 347 560 394 b 340 639 560 589 458 639 z m 340 542 b 449 458 407 542 449 508 b 340 371 449 408 407 371 l 215 371 l 215 542 z m 354 275 b 476 188 438 275 476 238 b 354 97 476 138 438 97 l 215 97 l 215 275 z "},"г":{"ha":458,"x_min":0,"x_max":0,"o":"m 111 639 l 111 0 l 222 0 l 222 535 l 451 535 l 451 639 z "},"ѓ":{"ha":458,"x_min":0,"x_max":0,"o":"m 532 944 l 428 1000 l 219 778 l 282 736 z m 111 639 l 111 0 l 222 0 l 222 535 l 451 535 l 451 639 z "},"д":{"ha":910,"x_min":0,"x_max":0,"o":"m 736 0 l 736 -125 l 847 -125 l 847 104 l 733 104 l 451 688 l 169 104 l 56 104 l 56 -125 l 174 -125 l 174 0 z m 451 447 l 610 104 l 293 104 z "},"е":{"ha":715,"x_min":0,"x_max":0,"o":"m 656 149 l 565 206 b 365 90 522 136 458 90 b 163 292 249 90 172 163 l 665 292 b 667 325 667 303 667 314 b 365 653 667 526 546 653 b 54 388 200 653 81 544 b 49 319 50 365 49 343 b 351 -14 49 126 178 -14 b 656 149 517 -14 592 51 z m 365 556 b 546 386 476 556 535 486 l 165 386 b 365 556 178 492 263 556 z "},"ѐ":{"ha":715,"x_min":0,"x_max":0,"o":"m 157 944 l 407 736 l 469 778 l 261 1000 z m 656 149 l 565 206 b 365 90 522 136 458 90 b 163 292 249 90 172 163 l 665 292 b 667 325 667 303 667 314 b 365 653 667 526 546 653 b 54 388 200 653 81 544 b 49 319 50 365 49 343 b 351 -14 49 126 178 -14 b 656 149 517 -14 592 51 z m 365 556 b 546 386 476 556 535 486 l 165 386 b 365 556 178 492 263 556 z "},"ё":{"ha":715,"x_min":0,"x_max":0,"o":"m 428 813 b 504 736 428 771 463 736 b 581 813 546 736 581 771 b 504 889 581 854 546 889 b 428 813 463 889 428 854 z m 150 813 b 226 736 150 771 185 736 b 303 813 268 736 303 771 b 226 889 303 854 268 889 b 150 813 185 889 150 854 z m 656 149 l 565 206 b 365 90 522 136 458 90 b 163 292 249 90 172 163 l 665 292 b 667 325 667 303 667 314 b 365 653 667 526 546 653 b 54 388 200 653 81 544 b 49 319 50 365 49 343 b 351 -14 49 126 178 -14 b 656 149 517 -14 592 51 z m 365 556 b 546 386 476 556 535 486 l 165 386 b 365 556 178 492 263 556 z "},"ж":{"ha":938,"x_min":0,"x_max":0,"o":"m 167 639 l 28 639 l 319 361 l 0 0 l 139 0 l 417 340 l 417 0 l 521 0 l 521 340 l 799 0 l 938 0 l 618 361 l 910 639 l 771 639 l 521 401 l 521 639 l 417 639 l 417 401 z "},"з":{"ha":654,"x_min":0,"x_max":0,"o":"m 342 -14 b 592 188 478 -14 592 63 b 464 344 592 268 544 319 b 564 481 528 372 564 421 b 344 653 564 575 469 653 b 111 453 210 653 111 561 l 224 453 b 344 553 224 496 260 553 b 450 472 411 553 450 522 b 331 389 450 425 415 389 l 331 292 b 482 186 428 292 482 251 b 342 83 482 124 429 83 b 196 201 244 83 208 140 l 83 201 b 342 -14 97 78 192 -14 z "},"и":{"ha":757,"x_min":0,"x_max":0,"o":"m 222 639 l 111 639 l 111 -49 l 535 414 l 535 0 l 646 0 l 646 688 l 222 225 z "},"й":{"ha":757,"x_min":0,"x_max":0,"o":"m 163 965 b 382 771 163 869 236 771 b 601 965 528 771 601 869 l 503 965 b 382 861 503 929 479 861 b 261 965 285 861 261 929 z m 222 639 l 111 639 l 111 -49 l 535 414 l 535 0 l 646 0 l 646 688 l 222 225 z "},"ѝ":{"ha":757,"x_min":0,"x_max":0,"o":"m 160 979 l 410 771 l 472 813 l 264 1035 z m 222 639 l 111 639 l 111 -49 l 535 414 l 535 0 l 646 0 l 646 688 l 222 225 z "},"к":{"ha":611,"x_min":0,"x_max":0,"o":"m 97 639 l 97 0 l 208 0 l 208 324 l 472 0 l 611 0 l 306 375 l 583 639 l 444 639 l 208 415 l 208 639 z "},"ќ":{"ha":611,"x_min":0,"x_max":0,"o":"m 590 944 l 486 1000 l 278 778 l 340 736 z m 97 639 l 97 0 l 208 0 l 208 324 l 472 0 l 611 0 l 306 375 l 583 639 l 444 639 l 208 415 l 208 639 z "},"л":{"ha":775,"x_min":0,"x_max":0,"o":"m 664 639 l 115 639 l 115 222 b 14 101 115 131 69 101 l 14 0 b 226 222 158 0 226 71 l 226 535 l 553 535 l 553 0 l 664 0 z "},"м":{"ha":843,"x_min":0,"x_max":0,"o":"m 7 0 l 132 0 l 208 371 l 419 -43 l 635 372 l 711 0 l 836 0 l 669 688 l 419 181 l 174 688 z "},"н":{"ha":785,"x_min":0,"x_max":0,"o":"m 104 639 l 104 0 l 215 0 l 215 285 l 569 285 l 569 0 l 681 0 l 681 639 l 569 639 l 569 389 l 215 389 l 215 639 z "},"о":{"ha":758,"x_min":0,"x_max":0,"o":"m 49 319 b 379 -14 49 126 192 -14 b 710 319 567 -14 710 126 b 379 653 710 513 567 653 b 49 319 192 653 49 513 z m 161 319 b 379 549 161 453 254 549 b 597 319 504 549 597 453 b 379 90 597 186 504 90 b 161 319 254 90 161 186 z "},"п":{"ha":729,"x_min":0,"x_max":0,"o":"m 625 639 l 104 639 l 104 0 l 215 0 l 215 535 l 514 535 l 514 0 l 625 0 z "},"р":{"ha":792,"x_min":0,"x_max":0,"o":"m 208 -306 l 208 110 b 426 -14 256 31 332 -14 b 743 319 600 -14 743 113 b 426 653 743 526 600 653 b 208 529 332 653 256 608 l 208 639 l 97 639 l 97 -306 z m 631 319 b 413 90 631 172 531 90 b 208 319 315 90 208 172 b 413 549 208 467 315 549 b 631 319 531 549 631 467 z "},"с":{"ha":664,"x_min":0,"x_max":0,"o":"m 154 319 b 372 549 154 453 247 549 b 594 432 475 549 565 494 l 594 571 b 372 653 550 622 460 653 b 42 319 185 653 42 513 b 372 -14 42 126 185 -14 b 594 68 460 -14 550 15 l 594 207 b 372 90 565 144 475 90 b 154 319 247 90 154 186 z "},"т":{"ha":389,"x_min":0,"x_max":0,"o":"m 7 639 l 7 535 l 139 535 l 139 0 l 250 0 l 250 535 l 382 535 l 382 639 z "},"у":{"ha":611,"x_min":0,"x_max":0,"o":"m 611 639 l 486 639 l 311 199 l 132 639 l 0 639 l 244 90 l 69 -306 l 194 -306 z "},"ў":{"ha":611,"x_min":0,"x_max":0,"o":"m 86 931 b 306 736 86 835 160 736 b 525 931 451 736 525 835 l 426 931 b 306 826 426 894 403 826 b 185 931 208 826 185 894 z m 611 639 l 486 639 l 311 199 l 132 639 l 0 639 l 244 90 l 69 -306 l 194 -306 z "},"ф":{"ha":814,"x_min":0,"x_max":0,"o":"m 49 319 b 351 -11 49 143 168 11 l 351 -139 l 463 -139 l 463 -11 b 765 319 646 11 765 143 b 463 650 765 496 646 628 l 463 778 l 351 778 l 351 650 b 49 319 168 628 49 496 z m 653 319 b 463 94 653 203 582 115 l 463 544 b 653 319 582 524 653 436 z m 161 319 b 351 544 161 436 232 524 l 351 94 b 161 319 232 115 161 203 z "},"х":{"ha":583,"x_min":0,"x_max":0,"o":"m 444 639 l 292 417 l 139 639 l 14 639 l 232 329 l 0 0 l 125 0 l 292 242 l 458 0 l 583 0 l 351 329 l 569 639 z "},"ц":{"ha":785,"x_min":0,"x_max":0,"o":"m 625 104 l 625 639 l 514 639 l 514 104 l 215 104 l 215 639 l 104 639 l 104 0 l 639 0 l 639 -125 l 736 -125 l 736 104 z "},"ч":{"ha":674,"x_min":0,"x_max":0,"o":"m 181 639 l 69 639 l 69 456 b 319 194 69 268 126 194 l 458 194 l 458 0 l 569 0 l 569 639 l 458 639 l 458 299 l 319 299 b 181 456 214 299 181 344 z "},"ш":{"ha":1083,"x_min":0,"x_max":0,"o":"m 597 104 l 597 639 l 486 639 l 486 104 l 215 104 l 215 639 l 104 639 l 104 0 l 979 0 l 979 639 l 868 639 l 868 104 z "},"щ":{"ha":1139,"x_min":0,"x_max":0,"o":"m 597 104 l 597 639 l 486 639 l 486 104 l 215 104 l 215 639 l 104 639 l 104 0 l 993 0 l 993 -125 l 1090 -125 l 1090 104 l 979 104 l 979 639 l 868 639 l 868 104 z "},"ъ":{"ha":803,"x_min":0,"x_max":0,"o":"m 236 535 l 236 0 l 500 0 b 733 199 632 0 733 61 b 500 397 733 336 632 397 l 347 397 l 347 639 l 7 639 l 7 535 z m 500 300 b 622 199 581 300 622 263 b 500 97 622 135 581 97 l 347 97 l 347 300 z "},"ы":{"ha":896,"x_min":0,"x_max":0,"o":"m 681 639 l 681 0 l 792 0 l 792 639 z m 104 639 l 104 0 l 368 0 b 601 199 500 0 601 61 b 368 397 601 336 500 397 l 215 397 l 215 639 z m 368 300 b 490 199 449 300 490 263 b 368 97 490 135 449 97 l 215 97 l 215 300 z "},"ь":{"ha":671,"x_min":0,"x_max":0,"o":"m 104 639 l 104 0 l 368 0 b 601 199 500 0 601 61 b 368 397 601 336 500 397 l 215 397 l 215 639 z m 368 300 b 490 199 449 300 490 263 b 368 97 490 135 449 97 l 215 97 l 215 300 z "},"э":{"ha":664,"x_min":0,"x_max":0,"o":"m 190 371 l 190 268 l 504 268 b 292 90 485 163 400 90 b 69 207 189 90 99 144 l 69 68 b 292 -14 114 15 204 -14 b 622 319 479 -14 622 126 b 292 653 622 513 479 653 b 69 571 204 653 114 622 l 69 432 b 292 549 99 494 189 549 b 504 371 400 549 485 476 z "},"ю":{"ha":1036,"x_min":0,"x_max":0,"o":"m 104 639 l 104 0 l 215 0 l 215 285 l 328 285 b 657 -14 344 110 481 -14 b 988 319 844 -14 988 126 b 657 653 988 513 844 653 b 333 389 493 653 363 546 l 215 389 l 215 639 z m 439 319 b 657 549 439 453 532 549 b 875 319 782 549 875 453 b 657 90 875 186 782 90 b 439 319 532 90 439 186 z "},"я":{"ha":671,"x_min":0,"x_max":0,"o":"m 196 0 l 376 256 l 490 256 l 490 0 l 601 0 l 601 639 l 338 639 b 104 447 206 639 104 585 b 260 263 104 339 168 282 l 74 0 z m 338 353 b 215 447 257 353 215 383 b 338 542 215 511 257 542 l 490 542 l 490 353 z "},"ª":{"ha":331,"x_min":0,"x_max":0,"o":"m 85 897 b 181 931 100 908 135 931 b 247 882 215 931 247 914 l 247 828 b 164 851 229 840 201 851 b 28 739 94 851 28 806 b 139 632 28 671 81 632 b 247 685 188 632 228 651 l 247 639 l 303 639 l 303 882 b 181 979 303 943 253 979 b 58 940 122 979 82 957 z m 85 739 b 167 810 85 778 117 810 b 247 790 197 810 224 803 l 247 764 b 153 682 247 704 201 682 b 85 739 101 682 85 708 z "},"º":{"ha":386,"x_min":0,"x_max":0,"o":"m 28 806 b 193 639 28 708 99 639 b 358 806 288 639 358 708 b 193 972 358 903 288 972 b 28 806 99 972 28 903 z m 83 806 b 193 919 83 872 131 919 b 303 806 256 919 303 872 b 193 692 303 739 256 692 b 83 806 131 692 83 739 z "},"̀":{"ha":0,"x_min":0,"x_max":0,"o":"m 250 757 l 313 799 l 104 1021 l 0 965 z "},"́":{"ha":0,"x_min":0,"x_max":0,"o":"m 83 757 l 333 965 l 229 1021 l 21 799 z "},"̂":{"ha":0,"x_min":0,"x_max":0,"o":"m 57 760 l 210 890 l 363 760 l 419 828 l 210 1008 l 0 828 z "},"̃":{"ha":0,"x_min":0,"x_max":0,"o":"m 74 817 b 143 888 74 838 86 888 b 311 822 206 888 235 822 b 458 924 381 822 436 872 l 394 983 b 317 917 367 939 343 917 b 144 982 242 917 235 982 b 0 868 82 982 14 936 z "},"̄":{"ha":0,"x_min":0,"x_max":0,"o":"m 0 833 l 486 833 l 486 938 l 0 938 z "},"̆":{"ha":0,"x_min":0,"x_max":0,"o":"m 219 750 b 439 944 347 750 439 832 l 340 944 b 219 840 340 885 289 840 b 99 944 150 840 99 885 l 0 944 b 219 750 0 832 92 750 z "},"̇":{"ha":0,"x_min":0,"x_max":0,"o":"m 76 792 b 153 868 118 792 153 826 b 76 944 153 910 118 944 b 0 868 35 944 0 910 b 76 792 0 826 35 792 z "},"̈":{"ha":0,"x_min":0,"x_max":0,"o":"m 76 840 b 153 917 122 840 153 871 b 76 993 153 963 122 993 b 0 917 31 993 0 963 b 76 840 0 871 31 840 z m 354 840 b 431 917 400 840 431 871 b 354 993 431 963 400 993 b 278 917 308 993 278 963 b 354 840 278 871 308 840 z "},"̊":{"ha":0,"x_min":0,"x_max":0,"o":"m 156 722 b 313 875 242 722 313 790 b 156 1028 313 960 242 1028 b 0 875 69 1028 0 960 b 156 722 0 790 69 722 z m 156 794 b 78 875 113 794 78 831 b 156 956 78 919 113 956 b 233 875 199 956 233 919 b 156 794 233 831 199 794 z "},"̋":{"ha":0,"x_min":0,"x_max":0,"o":"m 72 710 l 258 975 l 144 1003 l 0 733 z m 300 710 l 489 975 l 372 1003 l 229 733 z "},"̌":{"ha":0,"x_min":0,"x_max":0,"o":"m 210 760 l 419 942 l 363 1008 l 210 878 l 57 1008 l 0 942 z "},"̒":{"ha":0,"x_min":0,"x_max":0,"o":"m 111 694 l 233 1054 l 153 1083 l 0 736 z "},"̦":{"ha":0,"x_min":0,"x_max":0,"o":"m 56 -306 l 214 -69 l 136 -24 l 0 -274 z "},"̧":{"ha":0,"x_min":0,"x_max":0,"o":"m 124 -306 b 272 -175 210 -306 272 -250 b 171 -65 272 -119 231 -65 b 163 -65 168 -65 165 -65 l 247 83 l 163 83 l 51 -129 b 124 -125 69 -126 101 -125 b 193 -175 171 -125 193 -142 b 124 -231 193 -211 168 -231 b 32 -204 88 -231 71 -226 l 0 -267 b 124 -306 39 -294 72 -306 z "},"̨":{"ha":0,"x_min":0,"x_max":0,"o":"m 171 -306 b 293 -250 231 -306 272 -278 l 247 -181 b 178 -208 228 -199 214 -208 b 111 -139 136 -208 111 -189 b 240 0 111 -87 168 -31 l 183 35 b 0 -167 86 -15 0 -85 b 171 -306 0 -249 54 -306 z "},"０":{"ha":806,"x_min":0,"x_max":0,"o":"m 42 486 b 403 -14 42 196 189 -14 b 764 486 617 -14 764 196 b 403 986 764 776 617 986 b 42 486 189 986 42 776 z m 160 486 b 403 875 160 713 253 875 b 646 486 553 875 646 713 b 403 97 646 260 553 97 b 160 486 253 97 160 260 z "},"１":{"ha":806,"x_min":0,"x_max":0,"o":"m 160 781 l 375 844 l 375 0 l 493 0 l 493 986 l 160 903 z "},"２":{"ha":806,"x_min":0,"x_max":0,"o":"m 36 0 l 722 0 l 722 111 l 278 111 l 589 426 b 717 693 665 504 717 593 b 419 988 717 824 633 988 b 92 639 218 988 92 846 l 208 639 b 419 876 208 786 294 876 b 597 703 538 876 597 788 b 494 490 597 625 558 558 z "},"３":{"ha":806,"x_min":0,"x_max":0,"o":"m 417 -14 b 719 257 590 -14 719 92 b 526 507 719 394 640 474 b 692 728 629 549 692 632 b 422 986 692 865 589 986 b 149 731 263 986 149 882 l 261 731 b 424 879 261 815 333 879 b 571 724 521 879 571 815 b 375 556 571 632 500 556 l 375 451 b 599 271 500 451 599 390 b 417 97 599 165 528 97 b 226 257 306 97 226 165 l 107 257 b 417 -14 107 106 229 -14 z "},"４":{"ha":806,"x_min":0,"x_max":0,"o":"m 494 0 l 613 0 l 613 194 l 765 194 l 765 299 l 613 299 l 613 972 l 564 972 l 25 194 l 494 194 z m 494 710 l 494 299 l 219 299 z "},"５":{"ha":806,"x_min":0,"x_max":0,"o":"m 739 319 b 449 647 739 513 615 647 b 304 611 400 647 350 636 l 369 868 l 736 868 l 736 972 l 278 972 l 150 454 b 399 542 249 524 306 542 b 617 319 524 542 617 453 b 399 97 617 186 538 97 b 153 258 292 97 196 175 l 53 190 b 399 -14 117 79 219 -14 b 739 319 586 -14 739 99 z "},"６":{"ha":806,"x_min":0,"x_max":0,"o":"m 461 972 l 133 521 b 72 319 96 469 72 399 b 403 -14 72 119 215 -14 b 733 319 590 -14 733 119 b 446 635 733 499 604 635 b 336 611 403 635 367 629 l 610 972 z m 185 319 b 403 549 185 453 278 549 b 621 319 528 549 621 453 b 403 93 621 186 528 93 b 185 319 278 93 185 186 z "},"７":{"ha":806,"x_min":0,"x_max":0,"o":"m 81 861 l 583 861 l 172 0 l 294 0 l 761 972 l 81 972 z "},"８":{"ha":806,"x_min":0,"x_max":0,"o":"m 100 264 b 403 -14 100 113 229 -14 b 706 264 576 -14 706 113 b 533 518 706 392 632 479 b 671 738 618 556 671 632 b 403 986 671 875 556 986 b 135 738 250 986 135 875 b 272 518 135 632 188 556 b 100 264 174 479 100 392 z m 247 724 b 403 882 247 815 313 882 b 558 724 493 882 558 815 b 403 569 558 632 486 569 b 247 724 319 569 247 632 z m 213 278 b 403 465 213 383 306 465 b 593 278 500 465 593 383 b 403 90 593 158 500 90 b 213 278 306 90 213 158 z "},"９":{"ha":806,"x_min":0,"x_max":0,"o":"m 344 0 l 672 451 b 733 653 710 503 733 574 b 403 986 733 853 590 986 b 72 653 215 986 72 853 b 360 338 72 474 201 338 b 469 361 403 338 439 343 l 196 0 z m 621 653 b 403 424 621 519 528 424 b 185 653 278 424 185 519 b 403 879 185 786 278 879 b 621 653 528 879 621 786 z "},"¹":{"ha":653,"x_min":0,"x_max":0,"o":"m 211 849 l 340 888 l 340 381 l 411 381 l 411 972 l 211 922 z "},"²":{"ha":481,"x_min":0,"x_max":0,"o":"m 35 392 l 446 392 l 446 458 l 181 458 l 365 647 b 443 808 411 694 443 749 b 265 985 443 886 393 985 b 68 775 144 985 68 899 l 139 775 b 265 918 139 864 190 918 b 371 814 336 918 371 865 b 310 686 371 767 349 726 z "},"³":{"ha":433,"x_min":0,"x_max":0,"o":"m 221 381 b 403 543 325 381 403 444 b 288 693 403 625 356 672 b 386 825 349 718 386 768 b 225 981 386 907 325 981 b 60 828 129 981 60 918 l 128 828 b 225 917 128 879 171 917 b 314 824 283 917 314 879 b 196 722 314 768 271 722 l 196 660 b 331 551 271 660 331 624 b 221 447 331 488 288 447 b 107 543 154 447 107 488 l 35 543 b 221 381 35 453 108 381 z "},"¼":{"ha":1047,"x_min":0,"x_max":0,"o":"m 858 972 l 136 0 l 226 0 l 949 972 z m 42 849 l 171 888 l 171 381 l 242 381 l 242 972 l 42 922 z m 835 0 l 906 0 l 906 117 l 997 117 l 997 179 l 906 179 l 906 583 l 876 583 l 553 117 l 835 117 z m 835 426 l 835 179 l 669 179 z "},"½":{"ha":1138,"x_min":0,"x_max":0,"o":"m 858 972 l 136 0 l 226 0 l 949 972 z m 42 849 l 171 888 l 171 381 l 242 381 l 242 972 l 42 922 z m 685 3 l 1096 3 l 1096 69 l 831 69 l 1015 258 b 1093 419 1061 306 1093 360 b 915 596 1093 497 1043 596 b 718 386 794 596 718 510 l 789 386 b 915 529 789 475 840 529 b 1021 425 986 529 1021 476 b 960 297 1021 378 999 338 z "},"¾":{"ha":1139,"x_min":0,"x_max":0,"o":"m 228 381 b 410 543 332 381 410 444 b 294 693 410 625 363 672 b 393 825 356 718 393 768 b 232 981 393 907 332 981 b 67 828 136 981 67 918 l 135 828 b 232 917 135 879 178 917 b 321 824 290 917 321 879 b 203 722 321 768 278 722 l 203 660 b 338 551 278 660 338 624 b 228 447 338 488 294 447 b 114 543 161 447 114 488 l 42 543 b 228 381 42 453 115 381 z m 951 972 l 229 0 l 319 0 l 1042 972 z m 928 0 l 999 0 l 999 117 l 1090 117 l 1090 179 l 999 179 l 999 583 l 969 583 l 646 117 l 928 117 z m 928 426 l 928 179 l 763 179 z "},"⁰":{"ha":517,"x_min":0,"x_max":0,"o":"m 42 681 b 258 381 42 507 131 381 b 475 681 386 381 475 507 b 258 981 475 854 386 981 b 42 681 131 981 42 854 z m 113 681 b 258 914 113 817 168 914 b 404 681 349 914 404 817 b 258 447 404 544 349 447 b 113 681 168 447 113 544 z "},"⁴":{"ha":536,"x_min":0,"x_max":0,"o":"m 324 389 l 394 389 l 394 506 l 486 506 l 486 568 l 394 568 l 394 972 l 365 972 l 42 506 l 324 506 z m 324 815 l 324 568 l 158 568 z "},"⁵":{"ha":494,"x_min":0,"x_max":0,"o":"m 453 578 b 279 775 453 693 379 775 b 193 753 250 775 219 768 l 231 907 l 451 907 l 451 969 l 176 969 l 100 658 b 249 711 160 700 193 711 b 379 578 324 711 379 658 b 249 444 379 497 332 444 b 101 542 185 444 128 492 l 42 500 b 249 378 81 433 142 378 b 453 578 361 378 453 446 z "},"⁶":{"ha":481,"x_min":0,"x_max":0,"o":"m 283 969 l 88 699 b 50 578 65 668 50 625 b 249 378 50 458 136 378 b 447 578 361 378 447 458 b 275 767 447 685 369 767 b 208 753 249 767 226 764 l 374 969 z m 118 578 b 249 715 118 658 174 715 b 379 578 324 715 379 658 b 249 442 379 497 324 442 b 118 578 174 442 118 497 z "},"⁷":{"ha":492,"x_min":0,"x_max":0,"o":"m 42 906 l 344 906 l 97 389 l 171 389 l 450 972 l 42 972 z "},"⁸":{"ha":447,"x_min":0,"x_max":0,"o":"m 42 547 b 224 381 42 457 119 381 b 406 547 328 381 406 457 b 301 700 406 624 361 676 b 385 832 353 722 385 769 b 224 981 385 914 315 981 b 63 832 132 981 63 914 b 146 700 63 769 94 722 b 42 547 86 676 42 624 z m 131 824 b 224 918 131 879 169 918 b 317 824 278 918 317 879 b 224 731 317 768 274 731 b 131 824 174 731 131 768 z m 110 556 b 224 668 110 619 165 668 b 338 556 282 668 338 619 b 224 443 338 483 282 443 b 110 556 165 443 110 483 z "},"⁹":{"ha":481,"x_min":0,"x_max":0,"o":"m 222 392 l 418 663 b 456 783 440 693 456 736 b 257 983 456 903 369 983 b 58 783 144 983 58 903 b 231 594 58 676 136 594 b 297 608 257 594 279 597 l 132 392 z m 388 783 b 257 646 388 703 332 646 b 126 783 182 646 126 703 b 257 919 126 864 182 919 b 388 783 332 919 388 864 z "},"₀":{"ha":517,"x_min":0,"x_max":0,"o":"m 42 292 b 258 -8 42 118 131 -8 b 475 292 386 -8 475 118 b 258 592 475 465 386 592 b 42 292 131 592 42 465 z m 113 292 b 258 525 113 428 168 525 b 404 292 349 525 404 428 b 258 58 404 156 349 58 b 113 292 168 58 113 156 z "},"₁":{"ha":436,"x_min":0,"x_max":0,"o":"m 125 469 l 254 508 l 254 1 l 325 1 l 325 593 l 125 543 z "},"₂":{"ha":481,"x_min":0,"x_max":0,"o":"m 35 3 l 446 3 l 446 69 l 181 69 l 365 258 b 443 419 411 306 443 360 b 265 596 443 497 393 596 b 68 386 144 596 68 510 l 139 386 b 265 529 139 475 190 529 b 371 425 336 529 371 476 b 310 297 371 378 349 338 z "},"₃":{"ha":433,"x_min":0,"x_max":0,"o":"m 221 -8 b 403 154 325 -8 403 56 b 288 304 403 236 356 283 b 386 436 349 329 386 379 b 225 592 386 518 325 592 b 60 439 129 592 60 529 l 128 439 b 225 528 128 490 171 528 b 314 435 283 528 314 490 b 196 333 314 379 271 333 l 196 271 b 331 163 271 271 331 235 b 221 58 331 99 288 58 b 107 154 154 58 107 99 l 35 154 b 221 -8 35 64 108 -8 z "},"₄":{"ha":536,"x_min":0,"x_max":0,"o":"m 324 0 l 394 0 l 394 117 l 486 117 l 486 179 l 394 179 l 394 583 l 365 583 l 42 117 l 324 117 z m 324 426 l 324 179 l 158 179 z "},"₅":{"ha":494,"x_min":0,"x_max":0,"o":"m 453 189 b 279 386 453 304 379 386 b 193 364 250 386 219 379 l 231 518 l 451 518 l 451 581 l 176 581 l 100 269 b 249 322 160 311 193 322 b 379 189 324 322 379 269 b 249 56 379 108 332 56 b 101 153 185 56 128 103 l 42 111 b 249 -11 81 44 142 -11 b 453 189 361 -11 453 57 z "},"₆":{"ha":481,"x_min":0,"x_max":0,"o":"m 282 581 l 86 310 b 49 189 64 279 49 236 b 247 -11 49 69 135 -11 b 446 189 360 -11 446 69 b 274 378 446 296 368 378 b 207 364 247 378 225 375 l 372 581 z m 117 189 b 247 326 117 269 172 326 b 378 189 322 326 378 269 b 247 53 378 108 322 53 b 117 189 172 53 117 108 z "},"₇":{"ha":492,"x_min":0,"x_max":0,"o":"m 42 517 l 344 517 l 97 0 l 171 0 l 450 583 l 42 583 z "},"₈":{"ha":447,"x_min":0,"x_max":0,"o":"m 42 158 b 224 -8 42 68 119 -8 b 406 158 328 -8 406 68 b 301 311 406 235 361 288 b 385 443 353 333 385 381 b 224 592 385 525 315 592 b 63 443 132 592 63 525 b 146 311 63 381 94 333 b 42 158 86 288 42 235 z m 131 435 b 224 529 131 490 169 529 b 317 435 278 529 317 490 b 224 342 317 379 274 342 b 131 435 174 342 131 379 z m 110 167 b 224 279 110 231 165 279 b 338 167 282 279 338 231 b 224 54 338 94 282 54 b 110 167 165 54 110 94 z "},"₉":{"ha":481,"x_min":0,"x_max":0,"o":"m 199 3 l 394 274 b 432 394 417 304 432 347 b 233 594 432 514 346 594 b 35 394 121 594 35 514 b 207 206 35 288 113 206 b 274 219 233 206 256 208 l 108 3 z m 364 394 b 233 257 364 314 308 257 b 103 394 158 257 103 314 b 233 531 103 475 158 531 b 364 394 308 531 364 475 z "},"⅐":{"ha":1169,"x_min":0,"x_max":0,"o":"m 789 972 l 67 0 l 157 0 l 879 972 z m 42 849 l 171 888 l 171 381 l 242 381 l 242 972 l 42 922 z m 719 517 l 1022 517 l 775 0 l 849 0 l 1128 583 l 719 583 z "},"⅑":{"ha":1089,"x_min":0,"x_max":0,"o":"m 789 972 l 67 0 l 157 0 l 879 972 z m 42 849 l 171 888 l 171 381 l 242 381 l 242 972 l 42 922 z m 831 3 l 1026 274 b 1064 394 1049 304 1064 347 b 865 594 1064 514 978 594 b 667 394 753 594 667 514 b 839 206 667 288 744 206 b 906 219 865 206 888 208 l 740 3 z m 996 394 b 865 257 996 314 940 257 b 735 394 790 257 735 314 b 865 531 735 475 790 531 b 996 394 940 531 996 475 z "},"⅒":{"ha":1500,"x_min":0,"x_max":0,"o":"m 789 972 l 67 0 l 157 0 l 879 972 z m 42 849 l 171 888 l 171 381 l 242 381 l 242 972 l 42 922 z m 678 469 l 807 508 l 807 1 l 878 1 l 878 593 l 678 543 z m 1025 292 b 1242 -8 1025 118 1114 -8 b 1458 292 1369 -8 1458 118 b 1242 592 1458 465 1369 592 b 1025 292 1114 592 1025 465 z m 1096 292 b 1242 525 1096 428 1151 525 b 1388 292 1332 525 1388 428 b 1242 58 1388 156 1332 58 b 1096 292 1151 58 1096 156 z "},"⅓":{"ha":1049,"x_min":0,"x_max":0,"o":"m 789 972 l 67 0 l 157 0 l 879 972 z m 42 849 l 171 888 l 171 381 l 242 381 l 242 972 l 42 922 z m 829 -8 b 1011 154 933 -8 1011 56 b 896 304 1011 236 964 283 b 994 436 957 329 994 379 b 833 592 994 518 933 592 b 668 439 738 592 668 529 l 736 439 b 833 528 736 490 779 528 b 922 435 892 528 922 490 b 804 333 922 379 879 333 l 804 271 b 939 163 879 271 939 235 b 829 58 939 99 896 58 b 715 154 763 58 715 99 l 643 154 b 829 -8 643 64 717 -8 z "},"⅔":{"ha":1225,"x_min":0,"x_max":0,"o":"m 42 392 l 453 392 l 453 458 l 188 458 l 372 647 b 450 808 418 694 450 749 b 272 985 450 886 400 985 b 75 775 151 985 75 899 l 146 775 b 272 918 146 864 197 918 b 378 814 343 918 378 865 b 317 686 378 767 356 726 z m 965 972 l 243 0 l 333 0 l 1056 972 z m 1006 -8 b 1188 154 1110 -8 1188 56 b 1072 304 1188 236 1140 283 b 1171 436 1133 329 1171 379 b 1010 592 1171 518 1110 592 b 844 439 914 592 844 529 l 913 439 b 1010 528 913 490 956 528 b 1099 435 1068 528 1099 490 b 981 333 1099 379 1056 333 l 981 271 b 1115 163 1056 271 1115 235 b 1006 58 1115 99 1072 58 b 892 154 939 58 892 99 l 819 154 b 1006 -8 819 64 893 -8 z "},"⅕":{"ha":1033,"x_min":0,"x_max":0,"o":"m 789 972 l 67 0 l 157 0 l 879 972 z m 42 849 l 171 888 l 171 381 l 242 381 l 242 972 l 42 922 z m 769 518 l 990 518 l 990 581 l 715 581 l 639 269 b 788 322 699 311 732 322 b 918 189 863 322 918 269 b 788 56 918 108 871 56 b 640 153 724 56 667 103 l 581 111 b 788 -11 619 44 681 -11 b 992 189 900 -11 992 57 b 818 386 992 304 918 386 b 732 364 789 386 758 379 z "},"⅖":{"ha":1210,"x_min":0,"x_max":0,"o":"m 42 392 l 453 392 l 453 458 l 188 458 l 372 647 b 450 808 418 694 450 749 b 272 985 450 886 400 985 b 75 775 151 985 75 899 l 146 775 b 272 918 146 864 197 918 b 378 814 343 918 378 865 b 317 686 378 767 356 726 z m 965 972 l 243 0 l 333 0 l 1056 972 z m 946 518 l 1167 518 l 1167 581 l 892 581 l 815 269 b 964 322 875 311 908 322 b 1094 189 1039 322 1094 269 b 964 56 1094 108 1047 56 b 817 153 900 56 843 103 l 757 111 b 964 -11 796 44 857 -11 b 1168 189 1076 -11 1168 57 b 994 386 1168 304 1094 386 b 908 364 965 386 935 379 z "},"⅗":{"ha":1154,"x_min":0,"x_max":0,"o":"m 228 381 b 410 543 332 381 410 444 b 294 693 410 625 363 672 b 393 825 356 718 393 768 b 232 981 393 907 332 981 b 67 828 136 981 67 918 l 135 828 b 232 917 135 879 178 917 b 321 824 290 917 321 879 b 203 722 321 768 278 722 l 203 660 b 338 551 278 660 338 624 b 228 447 338 488 294 447 b 114 543 161 447 114 488 l 42 543 b 228 381 42 453 115 381 z m 910 972 l 188 0 l 278 0 l 1000 972 z m 890 518 l 1111 518 l 1111 581 l 836 581 l 760 269 b 908 322 819 311 853 322 b 1039 189 983 322 1039 269 b 908 56 1039 108 992 56 b 761 153 844 56 788 103 l 701 111 b 908 -11 740 44 801 -11 b 1113 189 1021 -11 1113 57 b 939 386 1113 304 1039 386 b 853 364 910 386 879 379 z "},"⅘":{"ha":1203,"x_min":0,"x_max":0,"o":"m 958 972 l 236 0 l 326 0 l 1049 972 z m 324 389 l 394 389 l 394 506 l 486 506 l 486 568 l 394 568 l 394 972 l 365 972 l 42 506 l 324 506 z m 324 815 l 324 568 l 158 568 z m 939 518 l 1160 518 l 1160 581 l 885 581 l 808 269 b 957 322 868 311 901 322 b 1088 189 1032 322 1088 269 b 957 56 1088 108 1040 56 b 810 153 893 56 836 103 l 750 111 b 957 -11 789 44 850 -11 b 1161 189 1069 -11 1161 57 b 988 386 1161 304 1088 386 b 901 364 958 386 928 379 z "},"⅙":{"ha":1019,"x_min":0,"x_max":0,"o":"m 789 972 l 67 0 l 157 0 l 879 972 z m 42 849 l 171 888 l 171 381 l 242 381 l 242 972 l 42 922 z m 822 581 l 626 310 b 589 189 604 279 589 236 b 788 -11 589 69 675 -11 b 986 189 900 -11 986 69 b 814 378 986 296 908 378 b 747 364 788 378 765 375 l 913 581 z m 657 189 b 788 326 657 269 713 326 b 918 189 863 326 918 269 b 788 53 918 108 863 53 b 657 189 713 53 657 108 z "},"⅚":{"ha":1189,"x_min":0,"x_max":0,"o":"m 958 972 l 236 0 l 326 0 l 1049 972 z m 453 578 b 279 775 453 693 379 775 b 193 753 250 775 219 768 l 231 907 l 451 907 l 451 969 l 176 969 l 100 658 b 249 711 160 700 193 711 b 379 578 324 711 379 658 b 249 444 379 497 332 444 b 101 542 185 444 128 492 l 42 500 b 249 378 81 433 142 378 b 453 578 361 378 453 446 z m 992 581 l 796 310 b 758 189 774 279 758 236 b 957 -11 758 69 844 -11 b 1156 189 1069 -11 1156 69 b 983 378 1156 296 1078 378 b 917 364 957 378 935 375 l 1082 581 z m 826 189 b 957 326 826 269 882 326 b 1088 189 1032 326 1088 269 b 957 53 1088 108 1032 53 b 826 189 882 53 826 108 z "},"⅛":{"ha":1056,"x_min":0,"x_max":0,"o":"m 789 972 l 67 0 l 157 0 l 879 972 z m 42 849 l 171 888 l 171 381 l 242 381 l 242 972 l 42 922 z m 650 158 b 832 -8 650 68 728 -8 b 1014 158 936 -8 1014 68 b 910 311 1014 235 969 288 b 993 443 961 333 993 381 b 832 592 993 525 924 592 b 671 443 740 592 671 525 b 754 311 671 381 703 333 b 650 158 694 288 650 235 z m 739 435 b 832 529 739 490 778 529 b 925 435 886 529 925 490 b 832 342 925 379 882 342 b 739 435 782 342 739 379 z m 718 167 b 832 279 718 231 774 279 b 946 167 890 279 946 231 b 832 54 946 94 890 54 b 718 167 774 54 718 94 z "},"⅜":{"ha":1176,"x_min":0,"x_max":0,"o":"m 228 381 b 410 543 332 381 410 444 b 294 693 410 625 363 672 b 393 825 356 718 393 768 b 232 981 393 907 332 981 b 67 828 136 981 67 918 l 135 828 b 232 917 135 879 178 917 b 321 824 290 917 321 879 b 203 722 321 768 278 722 l 203 660 b 338 551 278 660 338 624 b 228 447 338 488 294 447 b 114 543 161 447 114 488 l 42 543 b 228 381 42 453 115 381 z m 910 972 l 188 0 l 278 0 l 1000 972 z m 771 158 b 953 -8 771 68 849 -8 b 1135 158 1057 -8 1135 68 b 1031 311 1135 235 1090 288 b 1114 443 1082 333 1114 381 b 953 592 1114 525 1044 592 b 792 443 861 592 792 525 b 875 311 792 381 824 333 b 771 158 815 288 771 235 z m 860 435 b 953 529 860 490 899 529 b 1046 435 1007 529 1046 490 b 953 342 1046 379 1003 342 b 860 435 903 342 860 379 z m 839 167 b 953 279 839 231 894 279 b 1067 167 1011 279 1067 231 b 953 54 1067 94 1011 54 b 839 167 894 54 839 94 z "},"⅝":{"ha":1225,"x_min":0,"x_max":0,"o":"m 958 972 l 236 0 l 326 0 l 1049 972 z m 453 578 b 279 775 453 693 379 775 b 193 753 250 775 219 768 l 231 907 l 451 907 l 451 969 l 176 969 l 100 658 b 249 711 160 700 193 711 b 379 578 324 711 379 658 b 249 444 379 497 332 444 b 101 542 185 444 128 492 l 42 500 b 249 378 81 433 142 378 b 453 578 361 378 453 446 z m 819 158 b 1001 -8 819 68 897 -8 b 1183 158 1106 -8 1183 68 b 1079 311 1183 235 1139 288 b 1163 443 1131 333 1163 381 b 1001 592 1163 525 1093 592 b 840 443 910 592 840 525 b 924 311 840 381 872 333 b 819 158 864 288 819 235 z m 908 435 b 1001 529 908 490 947 529 b 1094 435 1056 529 1094 490 b 1001 342 1094 379 1051 342 b 908 435 951 342 908 379 z m 888 167 b 1001 279 888 231 943 279 b 1115 167 1060 279 1115 231 b 1001 54 1115 94 1060 54 b 888 167 943 54 888 94 z "},"⅞":{"ha":1072,"x_min":0,"x_max":0,"o":"m 806 972 l 83 0 l 174 0 l 896 972 z m 42 906 l 344 906 l 97 389 l 171 389 l 450 972 l 42 972 z m 667 158 b 849 -8 667 68 744 -8 b 1031 158 953 -8 1031 68 b 926 311 1031 235 986 288 b 1010 443 978 333 1010 381 b 849 592 1010 525 940 592 b 688 443 757 592 688 525 b 771 311 688 381 719 333 b 667 158 711 288 667 235 z m 756 435 b 849 529 756 490 794 529 b 942 435 903 529 942 490 b 849 342 942 379 899 342 b 756 435 799 342 756 379 z m 735 167 b 849 279 735 231 790 279 b 963 167 907 279 963 231 b 849 54 963 94 907 54 b 735 167 790 54 735 94 z "},"_":{"ha":694,"x_min":0,"x_max":0,"o":"m 0 -185 l 694 -185 l 694 -108 l 0 -108 z "},"-":{"ha":292,"x_min":0,"x_max":0,"o":"m 7 278 l 285 278 l 285 382 l 7 382 z "},"‐":{"ha":292,"x_min":0,"x_max":0,"o":"m 7 278 l 285 278 l 285 382 l 7 382 z "},"‒":{"ha":819,"x_min":0,"x_max":0,"o":"m 97 278 l 722 278 l 722 382 l 97 382 z "},"–":{"ha":1028,"x_min":0,"x_max":0,"o":"m 97 278 l 931 278 l 931 382 l 97 382 z "},"—":{"ha":1236,"x_min":0,"x_max":0,"o":"m 97 278 l 1139 278 l 1139 382 l 97 382 z "},"(":{"ha":431,"x_min":0,"x_max":0,"o":"m 285 1083 b 125 403 174 875 125 639 b 285 -278 125 167 174 -69 l 389 -278 b 250 403 292 -69 250 167 b 389 1083 250 639 292 875 z "},")":{"ha":431,"x_min":0,"x_max":0,"o":"m 146 -278 b 306 403 257 -69 306 167 b 146 1083 306 639 257 875 l 42 1083 b 181 403 139 875 181 639 b 42 -278 181 167 139 -69 z "},"[":{"ha":417,"x_min":0,"x_max":0,"o":"m 249 979 l 389 979 l 389 1083 l 139 1083 l 139 -306 l 389 -306 l 389 -201 l 249 -201 z "},"]":{"ha":417,"x_min":0,"x_max":0,"o":"m 168 -201 l 28 -201 l 28 -306 l 278 -306 l 278 1083 l 28 1083 l 28 979 l 168 979 z "},"{":{"ha":432,"x_min":0,"x_max":0,"o":"m 247 917 b 314 986 247 953 272 986 l 363 986 l 363 1083 l 279 1083 b 136 889 218 1083 136 1026 l 136 597 b 69 444 136 492 111 458 l 69 361 b 136 208 111 347 136 314 l 136 -83 b 279 -278 136 -221 218 -278 l 363 -278 l 363 -181 l 314 -181 b 247 -111 272 -181 247 -147 l 247 125 b 156 403 247 228 243 360 b 247 681 243 446 247 578 z "},"}":{"ha":432,"x_min":0,"x_max":0,"o":"m 197 -111 b 131 -181 197 -147 172 -181 l 82 -181 l 82 -278 l 165 -278 b 308 -83 226 -278 308 -221 l 308 208 b 375 361 308 314 333 347 l 375 444 b 308 597 333 458 308 492 l 308 889 b 165 1083 308 1026 226 1083 l 82 1083 l 82 986 l 131 986 b 197 917 172 986 197 953 l 197 681 b 289 403 197 578 201 446 b 197 125 201 360 197 228 z "},"#":{"ha":840,"x_min":0,"x_max":0,"o":"m 49 278 l 172 278 l 104 0 l 208 0 l 276 278 l 463 278 l 396 0 l 500 0 l 568 278 l 736 278 l 736 368 l 589 368 l 649 611 l 792 611 l 792 701 l 671 701 l 736 972 l 632 972 l 567 701 l 379 701 l 444 972 l 340 972 l 275 701 l 104 701 l 104 611 l 253 611 l 193 368 l 49 368 z m 297 368 l 357 611 l 544 611 l 486 368 z "},"%":{"ha":1043,"x_min":0,"x_max":0,"o":"m 49 764 b 268 542 49 640 136 542 b 488 764 400 542 488 640 b 268 986 488 888 400 986 b 49 764 136 986 49 888 z m 782 972 l 157 0 l 261 0 l 886 972 z m 147 764 b 268 896 147 835 192 896 b 389 764 344 896 389 835 b 268 632 389 693 344 632 b 147 764 192 632 147 693 z m 556 208 b 775 -14 556 85 643 -14 b 994 208 907 -14 994 85 b 775 431 994 332 907 431 b 556 208 643 431 556 332 z m 654 208 b 775 340 654 279 699 340 b 896 208 851 340 896 279 b 775 76 896 138 851 76 b 654 208 699 76 654 138 z "},"‰":{"ha":1571,"x_min":0,"x_max":0,"o":"m 49 764 b 268 542 49 640 136 542 b 488 764 400 542 488 640 b 268 986 488 888 400 986 b 49 764 136 986 49 888 z m 782 972 l 157 0 l 261 0 l 886 972 z m 147 764 b 268 896 147 835 192 896 b 389 764 344 896 389 835 b 268 632 389 693 344 632 b 147 764 192 632 147 693 z m 1083 208 b 1303 -14 1083 85 1171 -14 b 1522 208 1435 -14 1522 85 b 1303 431 1522 332 1435 431 b 1083 208 1171 431 1083 332 z m 556 208 b 775 -14 556 85 643 -14 b 994 208 907 -14 994 85 b 775 431 994 332 907 431 b 556 208 643 431 556 332 z m 1182 208 b 1303 340 1182 279 1226 340 b 1424 208 1379 340 1424 279 b 1303 76 1424 138 1379 76 b 1182 208 1226 76 1182 138 z m 654 208 b 775 340 654 279 699 340 b 896 208 851 340 896 279 b 775 76 896 138 851 76 b 654 208 699 76 654 138 z "},"‱":{"ha":2099,"x_min":0,"x_max":0,"o":"m 49 764 b 268 542 49 640 136 542 b 488 764 400 542 488 640 b 268 986 488 888 400 986 b 49 764 136 986 49 888 z m 782 972 l 157 0 l 261 0 l 886 972 z m 147 764 b 268 896 147 835 192 896 b 389 764 344 896 389 835 b 268 632 389 693 344 632 b 147 764 192 632 147 693 z m 1611 208 b 1831 -14 1611 85 1699 -14 b 2050 208 1963 -14 2050 85 b 1831 431 2050 332 1963 431 b 1611 208 1699 431 1611 332 z m 1083 208 b 1303 -14 1083 85 1171 -14 b 1522 208 1435 -14 1522 85 b 1303 431 1522 332 1435 431 b 1083 208 1171 431 1083 332 z m 556 208 b 775 -14 556 85 643 -14 b 994 208 907 -14 994 85 b 775 431 994 332 907 431 b 556 208 643 431 556 332 z m 1710 208 b 1831 340 1710 279 1754 340 b 1951 208 1907 340 1951 279 b 1831 76 1951 138 1907 76 b 1710 208 1754 76 1710 138 z m 1182 208 b 1303 340 1182 279 1226 340 b 1424 208 1379 340 1424 279 b 1303 76 1424 138 1379 76 b 1182 208 1226 76 1182 138 z m 654 208 b 775 340 654 279 699 340 b 896 208 851 340 896 279 b 775 76 896 138 851 76 b 654 208 699 76 654 138 z "},"'":{"ha":396,"x_min":0,"x_max":0,"o":"m 181 972 l 111 556 l 188 556 l 313 972 z "},"\"":{"ha":646,"x_min":0,"x_max":0,"o":"m 181 972 l 111 556 l 188 556 l 313 972 z m 431 972 l 361 556 l 438 556 l 563 972 z "},"‘":{"ha":382,"x_min":0,"x_max":0,"o":"m 229 653 l 313 972 l 236 972 l 97 653 z "},"’":{"ha":382,"x_min":0,"x_max":0,"o":"m 153 972 l 69 653 l 146 653 l 285 972 z "},"“":{"ha":660,"x_min":0,"x_max":0,"o":"m 229 653 l 313 972 l 236 972 l 97 653 z m 507 653 l 590 972 l 514 972 l 375 653 z "},"”":{"ha":660,"x_min":0,"x_max":0,"o":"m 153 972 l 69 653 l 146 653 l 285 972 z m 431 972 l 347 653 l 424 653 l 563 972 z "},"‚":{"ha":382,"x_min":0,"x_max":0,"o":"m 167 111 l 83 -208 l 160 -208 l 299 111 z "},"„":{"ha":660,"x_min":0,"x_max":0,"o":"m 153 111 l 69 -208 l 146 -208 l 285 111 z m 431 111 l 347 -208 l 424 -208 l 563 111 z "},"‹":{"ha":486,"x_min":0,"x_max":0,"o":"m 181 360 l 389 618 l 319 681 l 56 354 l 319 28 l 389 90 z "},"›":{"ha":486,"x_min":0,"x_max":0,"o":"m 306 349 l 97 90 l 167 28 l 431 354 l 167 681 l 97 618 z "},"«":{"ha":708,"x_min":0,"x_max":0,"o":"m 403 360 l 611 618 l 542 681 l 278 354 l 542 28 l 611 90 z m 181 360 l 389 618 l 319 681 l 56 354 l 319 28 l 389 90 z "},"»":{"ha":708,"x_min":0,"x_max":0,"o":"m 306 349 l 97 90 l 167 28 l 431 354 l 167 681 l 97 618 z m 528 349 l 319 90 l 389 28 l 653 354 l 389 681 l 319 618 z "},"*":{"ha":822,"x_min":0,"x_max":0,"o":"m 292 454 l 411 638 l 531 454 l 610 511 l 472 682 l 683 739 l 654 832 l 449 753 l 460 972 l 363 972 l 374 753 l 168 832 l 139 739 l 350 682 l 213 511 z "},"†":{"ha":792,"x_min":0,"x_max":0,"o":"m 125 750 l 125 646 l 340 646 l 340 -208 l 451 -208 l 451 646 l 667 646 l 667 750 l 451 750 l 451 972 l 340 972 l 340 750 z "},"‡":{"ha":792,"x_min":0,"x_max":0,"o":"m 125 167 l 125 63 l 340 63 l 340 -208 l 451 -208 l 451 63 l 667 63 l 667 167 l 451 167 l 451 646 l 667 646 l 667 750 l 451 750 l 451 972 l 340 972 l 340 750 l 125 750 l 125 646 l 340 646 l 340 167 z "},".":{"ha":417,"x_min":0,"x_max":0,"o":"m 132 56 b 208 -21 132 14 167 -21 b 285 56 250 -21 285 14 b 208 132 285 97 250 132 b 132 56 167 132 132 97 z "},",":{"ha":428,"x_min":0,"x_max":0,"o":"m 206 153 l 83 -207 l 164 -236 l 317 111 z "},":":{"ha":417,"x_min":0,"x_max":0,"o":"m 132 583 b 208 507 132 542 167 507 b 285 583 250 507 285 542 b 208 660 285 625 250 660 b 132 583 167 660 132 625 z m 132 56 b 208 -21 132 14 167 -21 b 285 56 250 -21 285 14 b 208 132 285 97 250 132 b 132 56 167 132 132 97 z "},";":{"ha":458,"x_min":0,"x_max":0,"o":"m 174 583 b 250 507 174 542 208 507 b 326 583 292 507 326 542 b 250 660 326 625 292 660 b 174 583 208 660 174 625 z m 206 153 l 83 -207 l 164 -236 l 317 111 z "},"…":{"ha":1250,"x_min":0,"x_max":0,"o":"m 132 56 b 208 -21 132 14 167 -21 b 285 56 250 -21 285 14 b 208 132 285 97 250 132 b 132 56 167 132 132 97 z m 549 56 b 625 -21 549 14 583 -21 b 701 56 667 -21 701 14 b 625 132 701 97 667 132 b 549 56 583 132 549 97 z m 965 56 b 1042 -21 965 14 1000 -21 b 1118 56 1083 -21 1118 14 b 1042 132 1118 97 1083 132 b 965 56 1000 132 965 97 z "},"!":{"ha":417,"x_min":0,"x_max":0,"o":"m 139 972 l 167 278 l 250 278 l 278 972 z m 132 56 b 208 -21 132 14 167 -21 b 285 56 250 -21 285 14 b 208 132 285 97 250 132 b 132 56 167 132 132 97 z "},"¡":{"ha":417,"x_min":0,"x_max":0,"o":"m 285 576 b 208 653 285 618 250 653 b 132 576 167 653 132 618 b 208 500 132 535 167 500 b 285 576 250 500 285 535 z m 278 -340 l 250 354 l 167 354 l 139 -340 z "},"?":{"ha":774,"x_min":0,"x_max":0,"o":"m 578 694 b 311 479 578 589 478 479 l 275 479 l 303 236 l 386 236 l 396 403 b 690 694 550 411 690 535 b 388 986 690 860 561 986 b 83 824 222 986 147 921 l 174 767 b 374 882 217 836 281 882 b 578 694 499 882 578 814 z m 271 56 b 347 -21 271 14 306 -21 b 424 56 389 -21 424 14 b 347 132 424 97 389 132 b 271 56 306 132 271 97 z "},"¿":{"ha":774,"x_min":0,"x_max":0,"o":"m 503 917 b 426 993 503 958 468 993 b 350 917 385 993 350 958 b 426 840 350 875 385 840 b 503 917 468 840 503 875 z m 196 278 b 463 493 196 383 296 493 l 499 493 l 471 736 l 388 736 l 378 569 b 83 278 224 561 83 438 b 386 -14 83 113 213 -14 b 690 149 551 -14 626 51 l 600 206 b 400 90 557 136 493 90 b 196 278 275 90 196 158 z "},"/":{"ha":715,"x_min":0,"x_max":0,"o":"m 583 972 l 21 -208 l 132 -208 l 694 972 z "},"\\":{"ha":715,"x_min":0,"x_max":0,"o":"m 21 972 l 576 0 l 694 0 l 139 972 z "},"⁄":{"ha":979,"x_min":0,"x_max":0,"o":"m 806 972 l 83 0 l 174 0 l 896 972 z "},"|":{"ha":381,"x_min":0,"x_max":0,"o":"m 139 1090 l 139 -299 l 242 -299 l 242 1090 z "},"¦":{"ha":381,"x_min":0,"x_max":0,"o":"m 139 965 l 139 632 l 242 632 l 242 965 z m 242 340 l 139 340 l 139 7 l 242 7 z "},"@":{"ha":1069,"x_min":0,"x_max":0,"o":"m 49 444 b 507 -14 49 168 210 -14 b 835 69 665 -14 751 19 l 786 149 b 507 76 694 90 604 76 b 146 444 288 76 146 218 b 576 896 146 699 315 896 b 924 542 810 896 924 726 b 786 300 924 367 828 300 b 732 364 740 300 732 331 b 735 401 732 375 733 392 l 792 722 l 688 722 l 674 629 b 525 736 649 690 600 736 b 264 440 407 736 264 633 b 456 222 264 303 354 222 b 647 324 533 222 603 257 b 772 208 656 257 704 208 b 1021 542 876 208 1021 297 b 576 986 1021 763 874 986 b 49 444 265 986 49 749 z m 369 444 b 525 639 369 564 449 639 b 646 514 594 639 646 592 b 483 319 646 367 553 319 b 369 444 407 319 369 367 z "},"&":{"ha":938,"x_min":0,"x_max":0,"o":"m 776 0 l 910 0 l 754 179 b 922 385 814 242 869 314 l 836 439 b 686 257 789 374 739 311 l 451 528 b 633 769 567 600 633 682 b 400 988 633 886 546 988 b 163 772 261 988 163 903 b 294 550 163 675 246 601 b 56 254 193 499 56 422 b 368 -14 56 89 208 -14 b 681 110 490 -14 592 36 z m 279 772 b 400 889 279 843 324 889 b 521 769 476 889 521 840 b 388 600 521 713 471 653 b 279 772 335 660 279 711 z m 174 261 b 360 476 174 371 269 428 l 613 188 b 375 89 539 128 460 89 b 174 261 264 89 174 156 z "},"§":{"ha":567,"x_min":0,"x_max":0,"o":"m 133 224 l 42 171 b 292 -14 61 67 174 -14 b 525 181 429 -14 525 43 b 400 346 525 256 468 308 b 525 514 476 367 525 417 b 349 703 525 607 439 665 b 193 818 278 732 193 768 b 290 881 193 861 235 881 b 431 804 342 881 403 857 l 519 861 b 289 986 494 932 390 986 b 82 818 186 986 82 924 b 211 654 82 733 143 688 b 82 499 125 632 82 578 b 265 299 82 392 178 333 b 410 171 339 269 410 240 b 299 90 410 115 368 90 b 133 224 219 90 150 146 z m 193 513 b 292 621 193 564 225 596 b 410 504 354 596 410 565 b 313 383 410 454 371 396 b 193 513 251 408 193 436 z "},"¶":{"ha":803,"x_min":0,"x_max":0,"o":"m 400 375 l 400 -306 l 497 -306 l 497 882 l 622 882 l 622 -306 l 719 -306 l 719 972 l 400 972 b 83 674 226 972 83 867 b 400 375 83 481 226 375 z "},"·":{"ha":417,"x_min":0,"x_max":0,"o":"m 132 333 b 208 257 132 292 167 257 b 285 333 250 257 285 292 b 208 410 285 375 250 410 b 132 333 167 410 132 375 z "},"•":{"ha":417,"x_min":0,"x_max":0,"o":"m 132 576 b 208 500 132 535 167 500 b 285 576 250 500 285 535 b 208 653 285 618 250 653 b 132 576 167 653 132 618 z "},"‽":{"ha":774,"x_min":0,"x_max":0,"o":"m 278 708 l 306 236 l 389 236 l 399 403 b 690 694 551 413 690 536 b 388 986 690 860 561 986 b 83 824 222 986 147 921 l 174 767 b 374 882 217 836 281 882 b 578 694 499 882 578 814 b 404 492 578 610 514 524 l 417 708 z m 271 56 b 347 -21 271 14 306 -21 b 424 56 389 -21 424 14 b 347 132 424 97 389 132 b 271 56 306 132 271 97 z "},"+":{"ha":854,"x_min":0,"x_max":0,"o":"m 90 299 l 368 299 l 368 14 l 486 14 l 486 299 l 764 299 l 764 410 l 486 410 l 486 694 l 368 694 l 368 410 l 90 410 z "},"−":{"ha":819,"x_min":0,"x_max":0,"o":"m 97 278 l 722 278 l 722 382 l 97 382 z "},"±":{"ha":854,"x_min":0,"x_max":0,"o":"m 90 479 l 368 479 l 368 208 l 486 208 l 486 479 l 764 479 l 764 590 l 486 590 l 486 861 l 368 861 l 368 590 l 90 590 z m 90 0 l 764 0 l 764 111 l 90 111 z "},"÷":{"ha":865,"x_min":0,"x_max":0,"o":"m 354 625 b 431 549 354 583 389 549 b 507 625 472 549 507 583 b 431 701 507 667 472 701 b 354 625 389 701 354 667 z m 83 313 l 778 313 l 778 424 l 83 424 z m 354 97 b 431 21 354 56 389 21 b 507 97 472 21 507 56 b 431 174 507 139 472 174 b 354 97 389 174 354 139 z "},"×":{"ha":828,"x_min":0,"x_max":0,"o":"m 168 31 l 414 283 l 660 31 l 738 108 l 485 354 l 738 600 l 660 678 l 414 425 l 168 678 l 90 600 l 343 354 l 90 108 z "},"=":{"ha":854,"x_min":0,"x_max":0,"o":"m 90 403 l 764 403 l 764 507 l 90 507 z m 90 194 l 764 194 l 764 299 l 90 299 z "},"<":{"ha":889,"x_min":0,"x_max":0,"o":"m 274 364 l 799 583 l 799 694 l 90 389 l 90 326 l 799 21 l 799 132 z "},">":{"ha":889,"x_min":0,"x_max":0,"o":"m 615 351 l 90 132 l 90 21 l 799 326 l 799 389 l 90 694 l 90 583 z "},"≤":{"ha":833,"x_min":0,"x_max":0,"o":"m 764 160 l 764 271 l 239 503 l 764 722 l 764 833 l 56 528 l 56 465 z m 56 0 l 764 0 l 764 111 l 56 111 z "},"≥":{"ha":833,"x_min":0,"x_max":0,"o":"m 90 160 l 799 465 l 799 528 l 90 833 l 90 722 l 615 490 l 90 271 z m 90 0 l 799 0 l 799 111 l 90 111 z "},"≈":{"ha":833,"x_min":0,"x_max":0,"o":"m 547 517 b 703 719 650 517 728 615 l 593 726 b 542 621 615 671 592 621 b 440 665 514 621 479 635 b 269 732 385 708 322 732 b 94 529 157 732 67 626 l 197 522 b 268 629 178 583 207 629 b 388 583 310 629 343 617 b 547 517 446 539 500 517 z m 547 169 b 703 372 650 169 728 268 l 593 379 b 542 274 615 324 592 274 b 440 318 514 274 479 288 b 269 385 385 361 322 385 b 94 182 157 385 67 279 l 197 175 b 268 282 178 236 207 282 b 388 236 310 282 343 269 b 547 169 446 192 500 169 z "},"≠":{"ha":833,"x_min":0,"x_max":0,"o":"m 90 194 l 268 194 l 214 100 l 304 47 l 389 194 l 764 194 l 764 299 l 449 299 l 510 403 l 764 403 l 764 507 l 569 507 l 640 631 l 550 683 l 449 507 l 90 507 l 90 403 l 389 403 l 328 299 l 90 299 z "},"¬":{"ha":861,"x_min":0,"x_max":0,"o":"m 90 417 l 667 417 l 667 243 l 771 243 l 771 521 l 90 521 z "},"∂":{"ha":758,"x_min":0,"x_max":0,"o":"m 379 -14 b 710 319 572 -14 710 125 b 286 1007 710 506 583 710 l 219 929 b 510 590 356 807 449 700 b 336 635 450 619 392 635 b 49 319 169 635 49 501 b 379 -14 49 125 186 -14 z m 379 93 b 161 319 251 93 161 189 b 379 549 161 451 254 549 b 597 319 504 549 597 451 b 379 93 597 189 507 93 z "},"∅":{"ha":833,"x_min":0,"x_max":0,"o":"m 172 42 l 233 103 b 417 39 283 63 347 39 b 714 336 581 39 714 172 b 651 518 714 404 690 468 l 714 581 l 661 631 l 600 569 b 417 633 550 610 486 633 b 119 336 253 633 119 500 b 182 153 119 267 143 204 l 121 92 z m 206 336 b 417 547 206 453 300 547 b 539 508 463 547 504 533 l 244 214 b 206 336 219 249 206 290 z m 417 125 b 294 164 371 125 329 139 l 590 457 b 628 336 614 422 628 381 b 417 125 628 225 535 125 z "},"∏":{"ha":833,"x_min":0,"x_max":0,"o":"m 222 0 l 333 0 l 333 875 l 500 875 l 500 0 l 611 0 l 611 875 l 729 875 l 729 972 l 104 972 l 104 875 l 222 875 z "},"∑":{"ha":833,"x_min":0,"x_max":0,"o":"m 139 0 l 694 0 l 694 100 l 300 100 l 486 489 l 300 872 l 694 872 l 694 972 l 139 972 l 375 489 z "},"µ":{"ha":729,"x_min":0,"x_max":0,"o":"m 215 639 l 104 639 l 104 -444 l 215 -444 l 215 11 b 324 -14 246 -6 282 -14 b 514 86 401 -14 469 24 l 514 0 l 625 0 l 625 639 l 514 639 l 514 250 b 351 90 514 158 449 90 b 215 250 261 90 215 144 z "},"∕":{"ha":715,"x_min":0,"x_max":0,"o":"m 583 972 l 21 -208 l 132 -208 l 694 972 z "},"∙":{"ha":417,"x_min":0,"x_max":0,"o":"m 132 576 b 208 500 132 535 167 500 b 285 576 250 500 285 535 b 208 653 285 618 250 653 b 132 576 167 653 132 618 z "},"√":{"ha":833,"x_min":0,"x_max":0,"o":"m 338 -278 l 567 872 l 697 872 l 697 972 l 478 972 l 315 72 l 247 325 l 63 279 l 82 200 l 171 222 z "},"∞":{"ha":1042,"x_min":0,"x_max":0,"o":"m 265 67 b 522 233 351 67 435 122 b 778 67 608 122 692 67 b 1011 319 903 67 1011 185 b 778 569 1011 454 903 569 b 522 403 692 569 608 514 b 265 569 436 514 351 569 b 31 319 140 569 31 454 b 265 67 31 185 140 67 z m 281 175 b 147 319 211 175 147 244 b 281 463 147 396 211 463 b 463 319 342 463 407 411 b 281 175 404 226 342 175 z m 763 175 b 581 319 701 175 636 228 b 763 463 636 411 701 463 b 894 319 832 463 894 396 b 763 175 894 244 832 175 z "},"∫":{"ha":833,"x_min":0,"x_max":0,"o":"m 283 -278 b 465 -53 386 -281 457 -194 l 517 861 b 589 988 522 942 547 988 b 650 951 606 988 621 979 l 710 1038 b 586 1096 663 1079 628 1094 b 404 869 482 1099 413 1011 l 353 -44 b 281 -169 347 -125 322 -169 b 219 -133 264 -169 249 -161 l 160 -219 b 283 -278 207 -261 242 -276 z "},"$":{"ha":806,"x_min":0,"x_max":0,"o":"m 611 714 l 707 778 b 463 982 672 864 589 960 l 463 1136 l 360 1136 l 360 983 b 125 750 225 965 125 869 b 369 469 125 574 272 504 b 597 254 481 429 597 379 b 431 97 597 157 542 97 b 176 314 310 97 235 181 l 76 254 b 360 -8 129 117 231 17 l 360 -156 l 463 -156 l 463 -12 b 719 264 631 1 719 110 b 474 550 719 440 575 513 b 249 742 356 594 249 636 b 408 874 249 826 297 874 b 611 714 515 874 569 794 z "},"¢":{"ha":806,"x_min":0,"x_max":0,"o":"m 225 319 b 443 549 225 453 318 549 b 665 432 546 549 636 494 l 665 571 b 478 651 626 615 554 644 l 478 803 l 389 803 l 389 649 b 113 319 229 625 113 493 b 389 -10 113 146 229 14 l 389 -156 l 478 -156 l 478 -12 b 665 68 554 -6 626 22 l 665 207 b 443 90 636 144 546 90 b 225 319 318 90 225 186 z "},"£":{"ha":806,"x_min":0,"x_max":0,"o":"m 93 514 l 93 410 l 289 410 b 301 346 297 390 301 369 b 89 0 301 224 225 142 l 718 0 l 718 111 l 292 111 b 414 367 361 165 414 260 b 410 410 414 382 413 396 l 593 410 l 593 514 l 367 514 b 282 722 329 574 282 626 b 446 869 282 828 363 869 b 625 665 565 869 619 767 l 724 706 b 446 986 717 817 631 986 b 161 719 281 986 161 885 b 229 514 161 626 194 567 z "},"¤":{"ha":806,"x_min":0,"x_max":0,"o":"m 121 65 l 203 147 b 403 83 257 107 326 83 b 603 147 479 83 549 107 l 685 65 l 753 135 l 671 217 b 733 417 711 271 733 340 b 671 617 733 493 711 563 l 753 699 l 685 768 l 603 686 b 403 750 549 726 479 750 b 203 686 326 750 257 726 l 121 768 l 51 699 l 135 617 b 72 417 94 563 72 493 b 135 217 72 340 94 271 l 51 135 z m 185 417 b 403 646 185 550 278 646 b 621 417 528 646 621 550 b 403 188 621 283 528 188 b 185 417 278 188 185 283 z "},"¥":{"ha":806,"x_min":0,"x_max":0,"o":"m 63 194 l 344 194 l 344 0 l 464 0 l 464 194 l 736 194 l 736 299 l 464 299 l 464 403 l 736 403 l 736 507 l 513 507 l 785 972 l 654 972 l 403 522 l 153 972 l 21 972 l 294 507 l 63 507 l 63 403 l 344 403 l 344 299 l 63 299 z "},"€":{"ha":806,"x_min":0,"x_max":0,"o":"m 21 399 l 103 399 b 514 -14 135 154 297 -14 b 722 43 589 -14 660 7 l 722 183 b 514 97 665 128 593 97 b 222 399 360 97 249 219 l 681 399 l 681 465 l 215 465 b 215 486 215 472 215 479 b 221 565 215 514 217 540 l 717 565 l 717 632 l 233 632 b 514 875 275 779 378 875 b 722 789 593 875 665 844 l 722 929 b 514 986 660 965 589 986 b 113 632 315 986 161 844 l 21 632 l 21 565 l 101 565 b 97 486 99 540 97 514 b 97 465 97 479 97 472 l 21 465 z "},"ƒ":{"ha":833,"x_min":0,"x_max":0,"o":"m 283 -278 b 465 -53 386 -281 457 -194 l 497 535 l 606 535 l 614 639 l 503 639 l 517 861 b 589 988 522 942 547 988 b 650 951 606 988 621 979 l 710 1038 b 586 1096 663 1079 628 1094 b 404 869 482 1099 413 1011 l 392 639 l 308 639 l 300 535 l 386 535 l 353 -44 b 281 -169 347 -125 322 -169 b 219 -133 264 -169 249 -161 l 160 -219 b 283 -278 207 -261 242 -276 z "},"₽":{"ha":886,"x_min":0,"x_max":0,"o":"m 42 146 l 208 146 l 208 0 l 326 0 l 326 146 l 583 146 l 583 250 l 326 250 l 326 403 l 479 403 b 831 688 667 403 831 481 b 479 972 831 894 667 972 l 208 972 l 208 507 l 42 507 l 42 403 l 208 403 l 208 250 l 42 250 z m 479 861 b 719 688 625 861 719 807 b 479 514 719 568 625 514 l 326 514 l 326 861 z "},"^":{"ha":708,"x_min":0,"x_max":0,"o":"m 354 863 l 507 639 l 618 639 l 382 986 l 326 986 l 90 639 l 201 639 z "},"~":{"ha":799,"x_min":0,"x_max":0,"o":"m 197 244 b 192 275 193 256 192 265 b 268 351 192 324 218 351 b 388 306 303 351 346 338 b 547 239 447 261 500 239 b 678 304 597 239 642 257 b 708 403 701 336 708 375 b 703 442 708 417 706 431 l 593 449 b 600 411 599 435 600 422 b 542 343 600 367 582 343 b 440 388 517 343 482 356 b 269 454 382 432 324 454 b 124 382 211 454 160 431 b 90 285 99 349 90 314 b 94 251 90 272 92 261 z "},"´":{"ha":521,"x_min":0,"x_max":0,"o":"m 417 917 l 313 972 l 104 750 l 167 708 z "},"`":{"ha":521,"x_min":0,"x_max":0,"o":"m 104 917 l 354 708 l 417 750 l 208 972 z "},"˝":{"ha":0,"x_min":0,"x_max":0,"o":"m 72 710 l 258 975 l 144 1003 l 0 733 z m 300 710 l 489 975 l 372 1003 l 229 733 z "},"ˆ":{"ha":667,"x_min":0,"x_max":0,"o":"m 333 896 l 486 764 l 556 819 l 333 1014 l 111 819 l 181 764 z "},"ˇ":{"ha":667,"x_min":0,"x_max":0,"o":"m 333 910 l 181 1042 l 111 986 l 333 792 l 556 986 l 486 1042 z "},"˘":{"ha":758,"x_min":0,"x_max":0,"o":"m 160 1181 b 379 986 160 1085 233 986 b 599 1181 525 986 599 1085 l 500 1181 b 379 1076 500 1144 476 1076 b 258 1181 282 1076 258 1144 z "},"˜":{"ha":736,"x_min":0,"x_max":0,"o":"m 139 868 l 213 817 b 282 888 213 838 225 888 b 450 822 344 888 374 822 b 597 924 519 822 575 872 l 533 983 b 456 917 506 939 482 917 b 283 982 381 917 374 982 b 139 868 221 982 153 936 z "},"¯":{"ha":708,"x_min":0,"x_max":0,"o":"m 111 833 l 597 833 l 597 938 l 111 938 z "},"¨":{"ha":653,"x_min":0,"x_max":0,"o":"m 389 917 b 465 840 389 875 424 840 b 542 917 507 840 542 875 b 465 993 542 958 507 993 b 389 917 424 993 389 958 z m 111 917 b 188 840 111 875 146 840 b 264 917 229 840 264 875 b 188 993 264 958 229 993 b 111 917 146 993 111 958 z "},"˙":{"ha":417,"x_min":0,"x_max":0,"o":"m 132 1097 b 208 1021 132 1056 167 1021 b 285 1097 250 1021 285 1056 b 208 1174 285 1139 250 1174 b 132 1097 167 1174 132 1139 z "},"˚":{"ha":386,"x_min":0,"x_max":0,"o":"m 51 1090 b 193 951 51 1007 121 951 b 335 1090 265 951 335 1007 b 193 1229 335 1174 265 1229 b 51 1090 121 1229 51 1174 z m 122 1090 b 193 1164 122 1136 158 1164 b 264 1090 228 1164 264 1136 b 193 1017 264 1044 228 1017 b 122 1090 158 1017 122 1044 z "},"¸":{"ha":486,"x_min":0,"x_max":0,"o":"m 272 83 l 154 -150 b 233 -125 183 -131 219 -125 b 303 -175 281 -125 303 -142 b 233 -231 303 -208 281 -231 b 156 -197 197 -231 182 -219 l 110 -253 b 233 -306 149 -292 182 -306 b 382 -175 310 -306 382 -260 b 281 -72 382 -107 326 -72 l 268 -72 l 357 83 z "},"˛":{"ha":361,"x_min":0,"x_max":0,"o":"m 269 -181 b 200 -208 250 -199 236 -208 b 133 -139 158 -208 133 -189 b 263 0 133 -87 190 -31 l 206 35 b 22 -167 108 -15 22 -85 b 193 -306 22 -249 76 -306 b 315 -250 253 -306 294 -278 z "},"©":{"ha":1111,"x_min":0,"x_max":0,"o":"m 56 486 b 556 -14 56 196 272 -14 b 1056 486 839 -14 1056 196 b 556 986 1056 776 839 986 b 56 486 272 986 56 776 z m 132 486 b 556 917 132 733 315 917 b 979 486 796 917 979 733 b 556 56 979 239 796 56 b 132 486 315 56 132 239 z m 332 486 b 549 715 332 622 425 715 b 736 629 631 715 696 681 l 736 722 b 549 786 688 765 633 786 b 257 486 388 786 257 660 b 549 186 257 313 388 186 b 736 250 633 186 688 207 l 736 343 b 549 257 696 292 631 257 b 332 486 425 257 332 350 z "},"®":{"ha":1111,"x_min":0,"x_max":0,"o":"m 56 486 b 556 -14 56 196 272 -14 b 1056 486 839 -14 1056 196 b 556 986 1056 776 839 986 b 56 486 272 986 56 776 z m 132 486 b 556 917 132 733 315 917 b 979 486 796 917 979 733 b 556 56 979 239 796 56 b 132 486 315 56 132 239 z m 381 792 l 381 208 l 451 208 l 451 442 l 522 442 l 685 208 l 772 208 l 599 449 b 738 617 681 468 738 529 b 539 792 738 724 651 792 z m 539 729 b 667 617 614 729 667 689 b 539 504 667 544 614 504 l 451 504 l 451 729 z "},"™":{"ha":924,"x_min":0,"x_max":0,"o":"m 819 996 l 625 644 l 431 996 l 372 486 l 431 486 l 467 813 l 625 531 l 783 813 l 819 486 l 878 486 z m 44 917 l 169 917 l 169 486 l 229 486 l 229 917 l 354 917 l 354 972 l 44 972 z "},"°":{"ha":386,"x_min":0,"x_max":0,"o":"m 28 833 b 193 667 28 736 99 667 b 358 833 288 667 358 736 b 193 1000 358 931 288 1000 b 28 833 99 1000 28 931 z m 83 833 b 193 947 83 900 131 947 b 303 833 256 947 303 900 b 193 719 303 767 256 719 b 83 833 131 719 83 767 z "},"◊":{"ha":833,"x_min":0,"x_max":0,"o":"m 425 21 l 694 494 l 425 967 l 139 494 z m 421 239 l 265 494 l 421 750 l 568 494 z "},"\r":{"ha":417,"x_min":0,"x_max":0,"o":""},"­":{"ha":292,"x_min":0,"x_max":0,"o":"m 7 278 l 285 278 l 285 382 l 7 382 z "},"\u0000":{"ha":417,"x_min":0,"x_max":0,"o":""}}}
